M48
; DRILL file {KiCad 7.0.1} date Fri Feb 28 05:26:22 2025
; FORMAT={-:-/ absolute / metric / decimal}
; #@! TF.CreationDate,2025-02-28T05:26:22+09:00
; #@! TF.GenerationSoftware,Kicad,Pcbnew,7.0.1
; #@! TF.FileFunction,Plated,1,2,PTH
FMAT,2
METRIC
; #@! TA.AperFunction,Plated,PTH,ViaDrill
T1C0.300
; #@! TA.AperFunction,Plated,PTH,ComponentDrill
T2C0.600
; #@! TA.AperFunction,Plated,PTH,ComponentDrill
T3C1.000
; #@! TA.AperFunction,Plated,PTH,ComponentDrill
T4C1.100
%
G90
G05
T1
X60.833Y-53.896
X61.375Y-122.516
X64.353Y-65.326
X66.734Y-84.376
X69.115Y-103.426
X73.76Y-51.356
X79.883Y-53.896
X84.125Y-88.416
X84.875Y-122.516
X88.165Y-65.326
X92.263Y-44.416
X92.928Y-84.376
X97.69Y-46.276
X97.69Y-103.426
X99.275Y-75.316
X105.975Y-74.816
X107.215Y-65.326
X109.596Y-122.476
X111.978Y-84.376
X116.74Y-46.276
X116.74Y-103.426
X126.265Y-65.326
X131.028Y-84.376
X135.79Y-46.276
X135.79Y-103.426
X135.79Y-122.476
X141.675Y-112.695
X145.315Y-65.326
X150.078Y-84.376
X154.84Y-46.276
X154.84Y-103.426
X164.365Y-65.326
X164.913Y-53.216
X169.069Y-122.634
X169.128Y-84.376
X169.675Y-58.706
X173.89Y-103.426
X182.775Y-65.316
X183.963Y-53.203
X186.375Y-72.896
X186.375Y-74.796
X188.725Y-58.706
X189.107Y-71.791
X189.421Y-91.996
X190.048Y-80.525
X190.175Y-83.766
X190.875Y-75.416
X190.875Y-77.016
X191.676Y-71.862
X191.875Y-95.25
X191.965Y-103.516
X192.475Y-75.416
X192.475Y-77.016
X192.94Y-46.276
X194.475Y-82.066
X200.673Y-76.018
X202.465Y-65.326
X202.465Y-122.476
X204.075Y-92.716
X205.475Y-77.416
X206.375Y-72.516
X207.228Y-84.376
X211.99Y-46.276
X211.99Y-103.426
X217.3Y-91.316
X221.515Y-65.326
X226.278Y-84.376
X228.659Y-122.476
X231.04Y-46.276
X231.04Y-103.426
X240.565Y-65.326
X245.328Y-84.376
X250.09Y-46.276
X250.09Y-103.426
X252.471Y-122.476
X259.615Y-65.326
X264.378Y-84.376
X269.14Y-46.276
X269.14Y-103.426
X278.665Y-65.326
X278.665Y-122.476
X283.428Y-84.376
X288.19Y-46.276
X292.953Y-103.426
X297.715Y-65.326
X297.715Y-122.476
X316.765Y-122.476
T4
X333.697Y-122.566
X333.697Y-127.066
X340.197Y-122.566
X340.197Y-127.066
T2
G00X71.408Y-40.866
M15
G01X71.408Y-41.466
M16
G05
G00X71.408Y-44.796
M15
G01X71.408Y-45.896
M16
G05
G00X80.048Y-40.866
M15
G01X80.048Y-41.466
M16
G05
G00X80.048Y-44.796
M15
G01X80.048Y-45.896
M16
G05
T3
G00X336.947Y-122.066
M15
G01X336.947Y-122.066
M16
G05
G00X336.947Y-127.566
M15
G01X336.947Y-127.566
M16
G05
T0
M30
