M48
; DRILL file {KiCad 7.0.1} date Fri Feb 28 05:26:22 2025
; FORMAT={-:-/ absolute / metric / decimal}
; #@! TF.CreationDate,2025-02-28T05:26:22+09:00
; #@! TF.GenerationSoftware,Kicad,Pcbnew,7.0.1
; #@! TF.FileFunction,NonPlated,1,2,NPTH
FMAT,2
METRIC
; #@! TA.AperFunction,NonPlated,NPTH,ComponentDrill
T1C0.650
; #@! TA.AperFunction,NonPlated,NPTH,ComponentDrill
T2C1.900
; #@! TA.AperFunction,NonPlated,NPTH,ComponentDrill
T3C2.400
; #@! TA.AperFunction,NonPlated,NPTH,ComponentDrill
T4C3.000
; #@! TA.AperFunction,NonPlated,NPTH,ComponentDrill
T5C3.050
; #@! TA.AperFunction,NonPlated,NPTH,ComponentDrill
T6C4.000
; #@! TA.AperFunction,NonPlated,NPTH,ComponentDrill
T7C4.100
%
G90
G05
T1
X72.838Y-44.816
X78.618Y-44.816
T2
X61.595Y-48.816
X63.976Y-125.016
X66.358Y-67.866
X68.739Y-86.916
X71.12Y-105.966
X71.755Y-48.816
X74.136Y-125.016
X76.518Y-67.866
X78.899Y-86.916
X80.645Y-48.816
X81.28Y-105.966
X87.789Y-125.016
X90.17Y-67.866
X90.805Y-48.816
X94.933Y-86.916
X97.949Y-125.016
X99.695Y-48.816
X99.695Y-105.966
X100.33Y-67.866
X105.093Y-86.916
X109.22Y-67.866
X109.855Y-48.816
X109.855Y-105.966
X111.601Y-125.016
X113.983Y-86.916
X118.745Y-48.816
X118.745Y-105.966
X119.38Y-67.866
X121.761Y-125.016
X124.143Y-86.916
X128.27Y-67.866
X128.905Y-48.816
X128.905Y-105.966
X133.033Y-86.916
X137.795Y-48.816
X137.795Y-105.966
X137.795Y-125.016
X138.43Y-67.866
X143.193Y-86.916
X147.32Y-67.866
X147.955Y-48.816
X147.955Y-105.966
X147.955Y-125.016
X152.083Y-86.916
X156.845Y-48.816
X156.845Y-105.966
X157.48Y-67.866
X162.243Y-86.916
X166.37Y-67.866
X167.005Y-48.816
X167.005Y-105.966
X171.133Y-86.916
X171.133Y-125.016
X175.895Y-48.816
X175.895Y-105.966
X176.53Y-67.866
X181.293Y-86.916
X181.293Y-125.016
X185.42Y-67.866
X186.055Y-48.816
X186.055Y-105.966
X190.183Y-86.916
X194.945Y-48.816
X194.945Y-105.966
X195.58Y-67.866
X200.343Y-86.916
X204.47Y-67.866
X204.47Y-125.016
X205.105Y-48.816
X205.105Y-105.966
X209.233Y-86.916
X213.995Y-48.816
X213.995Y-105.966
X214.63Y-67.866
X214.63Y-125.016
X219.393Y-86.916
X223.52Y-67.866
X224.155Y-48.816
X224.155Y-105.966
X228.283Y-86.916
X230.664Y-125.016
X233.045Y-48.816
X233.045Y-105.966
X233.68Y-67.866
X238.443Y-86.916
X240.824Y-125.016
X242.57Y-67.866
X243.205Y-48.816
X243.205Y-105.966
X247.333Y-86.916
X252.095Y-48.816
X252.095Y-105.966
X252.73Y-67.866
X254.476Y-125.016
X257.493Y-86.916
X261.62Y-67.866
X262.255Y-48.816
X262.255Y-105.966
X264.636Y-125.016
X266.383Y-86.916
X271.145Y-48.816
X271.145Y-105.966
X271.78Y-67.866
X276.543Y-86.916
X280.67Y-67.866
X280.67Y-125.016
X281.305Y-48.816
X281.305Y-105.966
X285.433Y-86.916
X290.195Y-48.816
X290.83Y-67.866
X290.83Y-125.016
X294.958Y-105.966
X295.593Y-86.916
X299.72Y-67.866
X299.72Y-125.016
X300.355Y-48.816
X305.118Y-105.966
X309.88Y-67.866
X309.88Y-125.016
X316.389Y-86.916
X318.77Y-48.816
X318.77Y-125.016
X321.151Y-105.966
X323.533Y-67.866
X326.549Y-86.916
X328.93Y-48.816
X328.93Y-125.016
X331.311Y-105.966
X333.693Y-67.866
T4
X64.135Y-53.896
X65.246Y-122.476
X67.628Y-65.326
X70.009Y-84.376
X70.485Y-51.356
X71.596Y-119.936
X72.39Y-103.426
X73.978Y-62.786
X76.359Y-81.836
X78.74Y-100.886
X83.185Y-53.896
X89.059Y-122.476
X89.535Y-51.356
X91.44Y-65.326
X95.409Y-119.936
X96.203Y-84.376
X97.79Y-62.786
X100.965Y-46.276
X100.965Y-103.426
X102.553Y-81.836
X107.315Y-43.736
X107.315Y-100.886
X110.49Y-65.326
X112.871Y-122.476
X115.253Y-84.376
X116.84Y-62.786
X119.221Y-119.936
X120.015Y-46.276
X120.015Y-103.426
X121.603Y-81.836
X126.365Y-43.736
X126.365Y-100.886
X129.54Y-65.326
X134.303Y-84.376
X135.89Y-62.786
X139.065Y-46.276
X139.065Y-103.426
X139.065Y-122.476
X140.653Y-81.836
X145.415Y-43.736
X145.415Y-100.886
X145.415Y-119.936
X148.59Y-65.326
X153.353Y-84.376
X154.94Y-62.786
X158.115Y-46.276
X158.115Y-103.426
X159.703Y-81.836
X164.465Y-43.736
X164.465Y-100.886
X167.64Y-65.326
X172.403Y-84.376
X172.403Y-122.476
X173.99Y-62.786
X177.165Y-46.276
X177.165Y-103.426
X178.753Y-81.836
X178.753Y-119.936
X183.515Y-43.736
X183.515Y-100.886
X186.69Y-65.326
X192.723Y-91.996
X193.04Y-62.786
X196.215Y-46.276
X196.215Y-103.426
X199.073Y-89.456
X202.565Y-43.736
X202.565Y-100.886
X205.74Y-65.326
X205.74Y-122.476
X210.503Y-84.376
X212.09Y-62.786
X212.09Y-119.936
X215.265Y-46.276
X215.265Y-103.426
X216.853Y-81.836
X221.615Y-43.736
X221.615Y-100.886
X224.79Y-65.326
X229.553Y-84.376
X231.14Y-62.786
X231.934Y-122.476
X234.315Y-46.276
X234.315Y-103.426
X235.903Y-81.836
X238.284Y-119.936
X240.665Y-43.736
X240.665Y-100.886
X243.84Y-65.326
X248.603Y-84.376
X250.19Y-62.786
X253.365Y-46.276
X253.365Y-103.426
X254.953Y-81.836
X255.746Y-122.476
X259.715Y-43.736
X259.715Y-100.886
X262.096Y-119.936
X262.89Y-65.326
X267.653Y-84.376
X269.24Y-62.786
X272.415Y-46.276
X272.415Y-103.426
X274.003Y-81.836
X278.765Y-43.736
X278.765Y-100.886
X281.94Y-65.326
X281.94Y-122.476
X286.703Y-84.376
X288.29Y-62.786
X288.29Y-119.936
X291.465Y-46.276
X293.053Y-81.836
X296.228Y-103.426
X297.815Y-43.736
X300.99Y-65.326
X300.99Y-122.476
X302.578Y-100.886
X307.34Y-62.786
X307.34Y-119.936
X317.659Y-84.376
X320.04Y-46.276
X320.04Y-122.476
X322.421Y-103.426
X324.009Y-81.836
X326.073Y-72.946
X326.39Y-43.736
X326.39Y-119.936
X328.771Y-100.886
X332.423Y-70.406
T5
X64.3Y-98.966
X88.1Y-98.966
X164.313Y-132.016
X188.113Y-132.016
X309.569Y-93.916
X311.95Y-41.816
X333.369Y-93.916
X335.75Y-41.816
T6
X64.3Y-114.206
X88.1Y-114.206
X164.313Y-116.776
X188.113Y-116.776
X309.569Y-78.676
X311.95Y-57.056
X333.369Y-78.676
X335.75Y-57.056
T7
X66.675Y-48.816
X69.056Y-125.016
X71.438Y-67.866
X73.819Y-86.916
X76.2Y-105.966
X85.725Y-48.816
X92.869Y-125.016
X95.25Y-67.866
X100.013Y-86.916
X104.775Y-48.816
X104.775Y-105.966
X114.3Y-67.866
X116.681Y-125.016
X119.063Y-86.916
X123.825Y-48.816
X123.825Y-105.966
X133.35Y-67.866
X138.113Y-86.916
X142.875Y-48.816
X142.875Y-105.966
X142.875Y-125.016
X152.4Y-67.866
X157.163Y-86.916
X161.925Y-48.816
X161.925Y-105.966
X171.45Y-67.866
X176.213Y-86.916
X176.213Y-125.016
X180.975Y-48.816
X180.975Y-105.966
X190.5Y-67.866
X195.263Y-86.916
X200.025Y-48.816
X200.025Y-105.966
X209.55Y-67.866
X209.55Y-125.016
X214.313Y-86.916
X219.075Y-48.816
X219.075Y-105.966
X228.6Y-67.866
X233.363Y-86.916
X235.744Y-125.016
X238.125Y-48.816
X238.125Y-105.966
X247.65Y-67.866
X252.413Y-86.916
X257.175Y-48.816
X257.175Y-105.966
X259.556Y-125.016
X266.7Y-67.866
X271.463Y-86.916
X276.225Y-48.816
X276.225Y-105.966
X285.75Y-67.866
X285.75Y-125.016
X290.513Y-86.916
X295.275Y-48.816
X300.038Y-105.966
X304.8Y-67.866
X304.8Y-125.016
X321.469Y-86.916
X323.85Y-48.816
X323.85Y-125.016
X326.231Y-105.966
X328.613Y-67.866
T3
G00X57.186Y-96.118
M15
G01X60.786Y-96.118
M16
G05
G00X81.927Y-67.518
M15
G01X83.527Y-67.518
M16
G05
G00X184.928Y-86.617
M15
G01X186.528Y-86.617
M16
G05
G00X247.227Y-124.818
M15
G01X248.827Y-124.818
M16
G05
G00X316.777Y-67.518
M15
G01X318.377Y-67.518
M16
G05
G00X339.269Y-96.118
M15
G01X342.869Y-96.118
M16
G05
T0
M30
