%TF.GenerationSoftware,KiCad,Pcbnew,7.0.1*%
%TF.CreationDate,2025-02-28T05:26:20+09:00*%
%TF.ProjectId,bonyo6x_panel,626f6e79-6f36-4785-9f70-616e656c2e6b,rev?*%
%TF.SameCoordinates,Original*%
%TF.FileFunction,Legend,Bot*%
%TF.FilePolarity,Positive*%
%FSLAX46Y46*%
G04 Gerber Fmt 4.6, Leading zero omitted, Abs format (unit mm)*
G04 Created by KiCad (PCBNEW 7.0.1) date 2025-02-28 05:26:20*
%MOMM*%
%LPD*%
G01*
G04 APERTURE LIST*
%ADD10C,0.150000*%
%ADD11C,0.100000*%
%ADD12C,0.300000*%
%ADD13C,0.500000*%
%ADD14C,0.800000*%
%ADD15C,3.000000*%
%ADD16C,3.500000*%
%ADD17C,1.000000*%
%ADD18C,0.400000*%
%ADD19C,0.120000*%
G04 APERTURE END LIST*
D10*
X240585714Y-112177619D02*
X241061904Y-112177619D01*
X241061904Y-112177619D02*
X241061904Y-111177619D01*
X240252380Y-111653809D02*
X239919047Y-111653809D01*
X239776190Y-112177619D02*
X240252380Y-112177619D01*
X240252380Y-112177619D02*
X240252380Y-111177619D01*
X240252380Y-111177619D02*
X239776190Y-111177619D01*
X239347618Y-112177619D02*
X239347618Y-111177619D01*
X239347618Y-111177619D02*
X239109523Y-111177619D01*
X239109523Y-111177619D02*
X238966666Y-111225238D01*
X238966666Y-111225238D02*
X238871428Y-111320476D01*
X238871428Y-111320476D02*
X238823809Y-111415714D01*
X238823809Y-111415714D02*
X238776190Y-111606190D01*
X238776190Y-111606190D02*
X238776190Y-111749047D01*
X238776190Y-111749047D02*
X238823809Y-111939523D01*
X238823809Y-111939523D02*
X238871428Y-112034761D01*
X238871428Y-112034761D02*
X238966666Y-112130000D01*
X238966666Y-112130000D02*
X239109523Y-112177619D01*
X239109523Y-112177619D02*
X239347618Y-112177619D01*
X237395237Y-111177619D02*
X237204761Y-111177619D01*
X237204761Y-111177619D02*
X237109523Y-111225238D01*
X237109523Y-111225238D02*
X237014285Y-111320476D01*
X237014285Y-111320476D02*
X236966666Y-111510952D01*
X236966666Y-111510952D02*
X236966666Y-111844285D01*
X236966666Y-111844285D02*
X237014285Y-112034761D01*
X237014285Y-112034761D02*
X237109523Y-112130000D01*
X237109523Y-112130000D02*
X237204761Y-112177619D01*
X237204761Y-112177619D02*
X237395237Y-112177619D01*
X237395237Y-112177619D02*
X237490475Y-112130000D01*
X237490475Y-112130000D02*
X237585713Y-112034761D01*
X237585713Y-112034761D02*
X237633332Y-111844285D01*
X237633332Y-111844285D02*
X237633332Y-111510952D01*
X237633332Y-111510952D02*
X237585713Y-111320476D01*
X237585713Y-111320476D02*
X237490475Y-111225238D01*
X237490475Y-111225238D02*
X237395237Y-111177619D01*
X236538094Y-111510952D02*
X236538094Y-112510952D01*
X236538094Y-111558571D02*
X236442856Y-111510952D01*
X236442856Y-111510952D02*
X236252380Y-111510952D01*
X236252380Y-111510952D02*
X236157142Y-111558571D01*
X236157142Y-111558571D02*
X236109523Y-111606190D01*
X236109523Y-111606190D02*
X236061904Y-111701428D01*
X236061904Y-111701428D02*
X236061904Y-111987142D01*
X236061904Y-111987142D02*
X236109523Y-112082380D01*
X236109523Y-112082380D02*
X236157142Y-112130000D01*
X236157142Y-112130000D02*
X236252380Y-112177619D01*
X236252380Y-112177619D02*
X236442856Y-112177619D01*
X236442856Y-112177619D02*
X236538094Y-112130000D01*
X235776189Y-111510952D02*
X235395237Y-111510952D01*
X235633332Y-111177619D02*
X235633332Y-112034761D01*
X235633332Y-112034761D02*
X235585713Y-112130000D01*
X235585713Y-112130000D02*
X235490475Y-112177619D01*
X235490475Y-112177619D02*
X235395237Y-112177619D01*
X235061903Y-112177619D02*
X235061903Y-111510952D01*
X235061903Y-111177619D02*
X235109522Y-111225238D01*
X235109522Y-111225238D02*
X235061903Y-111272857D01*
X235061903Y-111272857D02*
X235014284Y-111225238D01*
X235014284Y-111225238D02*
X235061903Y-111177619D01*
X235061903Y-111177619D02*
X235061903Y-111272857D01*
X234442856Y-112177619D02*
X234538094Y-112130000D01*
X234538094Y-112130000D02*
X234585713Y-112082380D01*
X234585713Y-112082380D02*
X234633332Y-111987142D01*
X234633332Y-111987142D02*
X234633332Y-111701428D01*
X234633332Y-111701428D02*
X234585713Y-111606190D01*
X234585713Y-111606190D02*
X234538094Y-111558571D01*
X234538094Y-111558571D02*
X234442856Y-111510952D01*
X234442856Y-111510952D02*
X234299999Y-111510952D01*
X234299999Y-111510952D02*
X234204761Y-111558571D01*
X234204761Y-111558571D02*
X234157142Y-111606190D01*
X234157142Y-111606190D02*
X234109523Y-111701428D01*
X234109523Y-111701428D02*
X234109523Y-111987142D01*
X234109523Y-111987142D02*
X234157142Y-112082380D01*
X234157142Y-112082380D02*
X234204761Y-112130000D01*
X234204761Y-112130000D02*
X234299999Y-112177619D01*
X234299999Y-112177619D02*
X234442856Y-112177619D01*
X233680951Y-111510952D02*
X233680951Y-112177619D01*
X233680951Y-111606190D02*
X233633332Y-111558571D01*
X233633332Y-111558571D02*
X233538094Y-111510952D01*
X233538094Y-111510952D02*
X233395237Y-111510952D01*
X233395237Y-111510952D02*
X233299999Y-111558571D01*
X233299999Y-111558571D02*
X233252380Y-111653809D01*
X233252380Y-111653809D02*
X233252380Y-112177619D01*
X232490475Y-112558571D02*
X232538094Y-112510952D01*
X232538094Y-112510952D02*
X232633332Y-112368095D01*
X232633332Y-112368095D02*
X232680951Y-112272857D01*
X232680951Y-112272857D02*
X232728570Y-112130000D01*
X232728570Y-112130000D02*
X232776189Y-111891904D01*
X232776189Y-111891904D02*
X232776189Y-111701428D01*
X232776189Y-111701428D02*
X232728570Y-111463333D01*
X232728570Y-111463333D02*
X232680951Y-111320476D01*
X232680951Y-111320476D02*
X232633332Y-111225238D01*
X232633332Y-111225238D02*
X232538094Y-111082380D01*
X232538094Y-111082380D02*
X232490475Y-111034761D01*
X232157141Y-112130000D02*
X232014284Y-112177619D01*
X232014284Y-112177619D02*
X231776189Y-112177619D01*
X231776189Y-112177619D02*
X231680951Y-112130000D01*
X231680951Y-112130000D02*
X231633332Y-112082380D01*
X231633332Y-112082380D02*
X231585713Y-111987142D01*
X231585713Y-111987142D02*
X231585713Y-111891904D01*
X231585713Y-111891904D02*
X231633332Y-111796666D01*
X231633332Y-111796666D02*
X231680951Y-111749047D01*
X231680951Y-111749047D02*
X231776189Y-111701428D01*
X231776189Y-111701428D02*
X231966665Y-111653809D01*
X231966665Y-111653809D02*
X232061903Y-111606190D01*
X232061903Y-111606190D02*
X232109522Y-111558571D01*
X232109522Y-111558571D02*
X232157141Y-111463333D01*
X232157141Y-111463333D02*
X232157141Y-111368095D01*
X232157141Y-111368095D02*
X232109522Y-111272857D01*
X232109522Y-111272857D02*
X232061903Y-111225238D01*
X232061903Y-111225238D02*
X231966665Y-111177619D01*
X231966665Y-111177619D02*
X231728570Y-111177619D01*
X231728570Y-111177619D02*
X231585713Y-111225238D01*
X231157141Y-112177619D02*
X231157141Y-111177619D01*
X230585713Y-112177619D02*
X231014284Y-111606190D01*
X230585713Y-111177619D02*
X231157141Y-111749047D01*
X229728570Y-111177619D02*
X229919046Y-111177619D01*
X229919046Y-111177619D02*
X230014284Y-111225238D01*
X230014284Y-111225238D02*
X230061903Y-111272857D01*
X230061903Y-111272857D02*
X230157141Y-111415714D01*
X230157141Y-111415714D02*
X230204760Y-111606190D01*
X230204760Y-111606190D02*
X230204760Y-111987142D01*
X230204760Y-111987142D02*
X230157141Y-112082380D01*
X230157141Y-112082380D02*
X230109522Y-112130000D01*
X230109522Y-112130000D02*
X230014284Y-112177619D01*
X230014284Y-112177619D02*
X229823808Y-112177619D01*
X229823808Y-112177619D02*
X229728570Y-112130000D01*
X229728570Y-112130000D02*
X229680951Y-112082380D01*
X229680951Y-112082380D02*
X229633332Y-111987142D01*
X229633332Y-111987142D02*
X229633332Y-111749047D01*
X229633332Y-111749047D02*
X229680951Y-111653809D01*
X229680951Y-111653809D02*
X229728570Y-111606190D01*
X229728570Y-111606190D02*
X229823808Y-111558571D01*
X229823808Y-111558571D02*
X230014284Y-111558571D01*
X230014284Y-111558571D02*
X230109522Y-111606190D01*
X230109522Y-111606190D02*
X230157141Y-111653809D01*
X230157141Y-111653809D02*
X230204760Y-111749047D01*
X229061903Y-111606190D02*
X229157141Y-111558571D01*
X229157141Y-111558571D02*
X229204760Y-111510952D01*
X229204760Y-111510952D02*
X229252379Y-111415714D01*
X229252379Y-111415714D02*
X229252379Y-111368095D01*
X229252379Y-111368095D02*
X229204760Y-111272857D01*
X229204760Y-111272857D02*
X229157141Y-111225238D01*
X229157141Y-111225238D02*
X229061903Y-111177619D01*
X229061903Y-111177619D02*
X228871427Y-111177619D01*
X228871427Y-111177619D02*
X228776189Y-111225238D01*
X228776189Y-111225238D02*
X228728570Y-111272857D01*
X228728570Y-111272857D02*
X228680951Y-111368095D01*
X228680951Y-111368095D02*
X228680951Y-111415714D01*
X228680951Y-111415714D02*
X228728570Y-111510952D01*
X228728570Y-111510952D02*
X228776189Y-111558571D01*
X228776189Y-111558571D02*
X228871427Y-111606190D01*
X228871427Y-111606190D02*
X229061903Y-111606190D01*
X229061903Y-111606190D02*
X229157141Y-111653809D01*
X229157141Y-111653809D02*
X229204760Y-111701428D01*
X229204760Y-111701428D02*
X229252379Y-111796666D01*
X229252379Y-111796666D02*
X229252379Y-111987142D01*
X229252379Y-111987142D02*
X229204760Y-112082380D01*
X229204760Y-112082380D02*
X229157141Y-112130000D01*
X229157141Y-112130000D02*
X229061903Y-112177619D01*
X229061903Y-112177619D02*
X228871427Y-112177619D01*
X228871427Y-112177619D02*
X228776189Y-112130000D01*
X228776189Y-112130000D02*
X228728570Y-112082380D01*
X228728570Y-112082380D02*
X228680951Y-111987142D01*
X228680951Y-111987142D02*
X228680951Y-111796666D01*
X228680951Y-111796666D02*
X228728570Y-111701428D01*
X228728570Y-111701428D02*
X228776189Y-111653809D01*
X228776189Y-111653809D02*
X228871427Y-111606190D01*
X227728570Y-112177619D02*
X228299998Y-112177619D01*
X228014284Y-112177619D02*
X228014284Y-111177619D01*
X228014284Y-111177619D02*
X228109522Y-111320476D01*
X228109522Y-111320476D02*
X228204760Y-111415714D01*
X228204760Y-111415714D02*
X228299998Y-111463333D01*
X227347617Y-111272857D02*
X227299998Y-111225238D01*
X227299998Y-111225238D02*
X227204760Y-111177619D01*
X227204760Y-111177619D02*
X226966665Y-111177619D01*
X226966665Y-111177619D02*
X226871427Y-111225238D01*
X226871427Y-111225238D02*
X226823808Y-111272857D01*
X226823808Y-111272857D02*
X226776189Y-111368095D01*
X226776189Y-111368095D02*
X226776189Y-111463333D01*
X226776189Y-111463333D02*
X226823808Y-111606190D01*
X226823808Y-111606190D02*
X227395236Y-112177619D01*
X227395236Y-112177619D02*
X226776189Y-112177619D01*
X226347617Y-112177619D02*
X226347617Y-111177619D01*
X226347617Y-111177619D02*
X226014284Y-111891904D01*
X226014284Y-111891904D02*
X225680951Y-111177619D01*
X225680951Y-111177619D02*
X225680951Y-112177619D01*
X225204760Y-112177619D02*
X225204760Y-111177619D01*
X224728570Y-112177619D02*
X224728570Y-111177619D01*
X224728570Y-111177619D02*
X224157142Y-112177619D01*
X224157142Y-112177619D02*
X224157142Y-111177619D01*
X223680951Y-112177619D02*
X223680951Y-111177619D01*
X223204761Y-111796666D02*
X222442857Y-111796666D01*
X221966666Y-111653809D02*
X221633333Y-111653809D01*
X221490476Y-112177619D02*
X221966666Y-112177619D01*
X221966666Y-112177619D02*
X221966666Y-111177619D01*
X221966666Y-111177619D02*
X221490476Y-111177619D01*
X220395237Y-112177619D02*
X219871428Y-111510952D01*
X220395237Y-111510952D02*
X219871428Y-112177619D01*
X219538094Y-111272857D02*
X219490475Y-111225238D01*
X219490475Y-111225238D02*
X219395237Y-111177619D01*
X219395237Y-111177619D02*
X219157142Y-111177619D01*
X219157142Y-111177619D02*
X219061904Y-111225238D01*
X219061904Y-111225238D02*
X219014285Y-111272857D01*
X219014285Y-111272857D02*
X218966666Y-111368095D01*
X218966666Y-111368095D02*
X218966666Y-111463333D01*
X218966666Y-111463333D02*
X219014285Y-111606190D01*
X219014285Y-111606190D02*
X219585713Y-112177619D01*
X219585713Y-112177619D02*
X218966666Y-112177619D01*
X218633332Y-112558571D02*
X218585713Y-112510952D01*
X218585713Y-112510952D02*
X218490475Y-112368095D01*
X218490475Y-112368095D02*
X218442856Y-112272857D01*
X218442856Y-112272857D02*
X218395237Y-112130000D01*
X218395237Y-112130000D02*
X218347618Y-111891904D01*
X218347618Y-111891904D02*
X218347618Y-111701428D01*
X218347618Y-111701428D02*
X218395237Y-111463333D01*
X218395237Y-111463333D02*
X218442856Y-111320476D01*
X218442856Y-111320476D02*
X218490475Y-111225238D01*
X218490475Y-111225238D02*
X218585713Y-111082380D01*
X218585713Y-111082380D02*
X218633332Y-111034761D01*
X340423797Y-115558967D02*
X339852369Y-115558967D01*
X340138083Y-116558967D02*
X340138083Y-115558967D01*
X339090464Y-116558967D02*
X339090464Y-116035157D01*
X339090464Y-116035157D02*
X339138083Y-115939919D01*
X339138083Y-115939919D02*
X339233321Y-115892300D01*
X339233321Y-115892300D02*
X339423797Y-115892300D01*
X339423797Y-115892300D02*
X339519035Y-115939919D01*
X339090464Y-116511348D02*
X339185702Y-116558967D01*
X339185702Y-116558967D02*
X339423797Y-116558967D01*
X339423797Y-116558967D02*
X339519035Y-116511348D01*
X339519035Y-116511348D02*
X339566654Y-116416109D01*
X339566654Y-116416109D02*
X339566654Y-116320871D01*
X339566654Y-116320871D02*
X339519035Y-116225633D01*
X339519035Y-116225633D02*
X339423797Y-116178014D01*
X339423797Y-116178014D02*
X339185702Y-116178014D01*
X339185702Y-116178014D02*
X339090464Y-116130395D01*
X338185702Y-116511348D02*
X338280940Y-116558967D01*
X338280940Y-116558967D02*
X338471416Y-116558967D01*
X338471416Y-116558967D02*
X338566654Y-116511348D01*
X338566654Y-116511348D02*
X338614273Y-116463728D01*
X338614273Y-116463728D02*
X338661892Y-116368490D01*
X338661892Y-116368490D02*
X338661892Y-116082776D01*
X338661892Y-116082776D02*
X338614273Y-115987538D01*
X338614273Y-115987538D02*
X338566654Y-115939919D01*
X338566654Y-115939919D02*
X338471416Y-115892300D01*
X338471416Y-115892300D02*
X338280940Y-115892300D01*
X338280940Y-115892300D02*
X338185702Y-115939919D01*
X337899987Y-115892300D02*
X337519035Y-115892300D01*
X337757130Y-115558967D02*
X337757130Y-116416109D01*
X337757130Y-116416109D02*
X337709511Y-116511348D01*
X337709511Y-116511348D02*
X337614273Y-116558967D01*
X337614273Y-116558967D02*
X337519035Y-116558967D01*
X336757130Y-116558967D02*
X336757130Y-116035157D01*
X336757130Y-116035157D02*
X336804749Y-115939919D01*
X336804749Y-115939919D02*
X336899987Y-115892300D01*
X336899987Y-115892300D02*
X337090463Y-115892300D01*
X337090463Y-115892300D02*
X337185701Y-115939919D01*
X336757130Y-116511348D02*
X336852368Y-116558967D01*
X336852368Y-116558967D02*
X337090463Y-116558967D01*
X337090463Y-116558967D02*
X337185701Y-116511348D01*
X337185701Y-116511348D02*
X337233320Y-116416109D01*
X337233320Y-116416109D02*
X337233320Y-116320871D01*
X337233320Y-116320871D02*
X337185701Y-116225633D01*
X337185701Y-116225633D02*
X337090463Y-116178014D01*
X337090463Y-116178014D02*
X336852368Y-116178014D01*
X336852368Y-116178014D02*
X336757130Y-116130395D01*
X336280939Y-116558967D02*
X336280939Y-115892300D01*
X336280939Y-115558967D02*
X336328558Y-115606586D01*
X336328558Y-115606586D02*
X336280939Y-115654205D01*
X336280939Y-115654205D02*
X336233320Y-115606586D01*
X336233320Y-115606586D02*
X336280939Y-115558967D01*
X336280939Y-115558967D02*
X336280939Y-115654205D01*
X335661892Y-116558967D02*
X335757130Y-116511348D01*
X335757130Y-116511348D02*
X335804749Y-116416109D01*
X335804749Y-116416109D02*
X335804749Y-115558967D01*
X334899987Y-116511348D02*
X334995225Y-116558967D01*
X334995225Y-116558967D02*
X335185701Y-116558967D01*
X335185701Y-116558967D02*
X335280939Y-116511348D01*
X335280939Y-116511348D02*
X335328558Y-116416109D01*
X335328558Y-116416109D02*
X335328558Y-116035157D01*
X335328558Y-116035157D02*
X335280939Y-115939919D01*
X335280939Y-115939919D02*
X335185701Y-115892300D01*
X335185701Y-115892300D02*
X334995225Y-115892300D01*
X334995225Y-115892300D02*
X334899987Y-115939919D01*
X334899987Y-115939919D02*
X334852368Y-116035157D01*
X334852368Y-116035157D02*
X334852368Y-116130395D01*
X334852368Y-116130395D02*
X335328558Y-116225633D01*
X333709510Y-116511348D02*
X333566653Y-116558967D01*
X333566653Y-116558967D02*
X333328558Y-116558967D01*
X333328558Y-116558967D02*
X333233320Y-116511348D01*
X333233320Y-116511348D02*
X333185701Y-116463728D01*
X333185701Y-116463728D02*
X333138082Y-116368490D01*
X333138082Y-116368490D02*
X333138082Y-116273252D01*
X333138082Y-116273252D02*
X333185701Y-116178014D01*
X333185701Y-116178014D02*
X333233320Y-116130395D01*
X333233320Y-116130395D02*
X333328558Y-116082776D01*
X333328558Y-116082776D02*
X333519034Y-116035157D01*
X333519034Y-116035157D02*
X333614272Y-115987538D01*
X333614272Y-115987538D02*
X333661891Y-115939919D01*
X333661891Y-115939919D02*
X333709510Y-115844681D01*
X333709510Y-115844681D02*
X333709510Y-115749443D01*
X333709510Y-115749443D02*
X333661891Y-115654205D01*
X333661891Y-115654205D02*
X333614272Y-115606586D01*
X333614272Y-115606586D02*
X333519034Y-115558967D01*
X333519034Y-115558967D02*
X333280939Y-115558967D01*
X333280939Y-115558967D02*
X333138082Y-115606586D01*
X332804748Y-115892300D02*
X332614272Y-116558967D01*
X332614272Y-116558967D02*
X332423796Y-116082776D01*
X332423796Y-116082776D02*
X332233320Y-116558967D01*
X332233320Y-116558967D02*
X332042844Y-115892300D01*
X331661891Y-116558967D02*
X331661891Y-115892300D01*
X331661891Y-115558967D02*
X331709510Y-115606586D01*
X331709510Y-115606586D02*
X331661891Y-115654205D01*
X331661891Y-115654205D02*
X331614272Y-115606586D01*
X331614272Y-115606586D02*
X331661891Y-115558967D01*
X331661891Y-115558967D02*
X331661891Y-115654205D01*
X331328558Y-115892300D02*
X330947606Y-115892300D01*
X331185701Y-115558967D02*
X331185701Y-116416109D01*
X331185701Y-116416109D02*
X331138082Y-116511348D01*
X331138082Y-116511348D02*
X331042844Y-116558967D01*
X331042844Y-116558967D02*
X330947606Y-116558967D01*
X330185701Y-116511348D02*
X330280939Y-116558967D01*
X330280939Y-116558967D02*
X330471415Y-116558967D01*
X330471415Y-116558967D02*
X330566653Y-116511348D01*
X330566653Y-116511348D02*
X330614272Y-116463728D01*
X330614272Y-116463728D02*
X330661891Y-116368490D01*
X330661891Y-116368490D02*
X330661891Y-116082776D01*
X330661891Y-116082776D02*
X330614272Y-115987538D01*
X330614272Y-115987538D02*
X330566653Y-115939919D01*
X330566653Y-115939919D02*
X330471415Y-115892300D01*
X330471415Y-115892300D02*
X330280939Y-115892300D01*
X330280939Y-115892300D02*
X330185701Y-115939919D01*
X329757129Y-116558967D02*
X329757129Y-115558967D01*
X329328558Y-116558967D02*
X329328558Y-116035157D01*
X329328558Y-116035157D02*
X329376177Y-115939919D01*
X329376177Y-115939919D02*
X329471415Y-115892300D01*
X329471415Y-115892300D02*
X329614272Y-115892300D01*
X329614272Y-115892300D02*
X329709510Y-115939919D01*
X329709510Y-115939919D02*
X329757129Y-115987538D01*
X327899986Y-115558967D02*
X327709510Y-115558967D01*
X327709510Y-115558967D02*
X327614272Y-115606586D01*
X327614272Y-115606586D02*
X327519034Y-115701824D01*
X327519034Y-115701824D02*
X327471415Y-115892300D01*
X327471415Y-115892300D02*
X327471415Y-116225633D01*
X327471415Y-116225633D02*
X327519034Y-116416109D01*
X327519034Y-116416109D02*
X327614272Y-116511348D01*
X327614272Y-116511348D02*
X327709510Y-116558967D01*
X327709510Y-116558967D02*
X327899986Y-116558967D01*
X327899986Y-116558967D02*
X327995224Y-116511348D01*
X327995224Y-116511348D02*
X328090462Y-116416109D01*
X328090462Y-116416109D02*
X328138081Y-116225633D01*
X328138081Y-116225633D02*
X328138081Y-115892300D01*
X328138081Y-115892300D02*
X328090462Y-115701824D01*
X328090462Y-115701824D02*
X327995224Y-115606586D01*
X327995224Y-115606586D02*
X327899986Y-115558967D01*
X327042843Y-115892300D02*
X327042843Y-116892300D01*
X327042843Y-115939919D02*
X326947605Y-115892300D01*
X326947605Y-115892300D02*
X326757129Y-115892300D01*
X326757129Y-115892300D02*
X326661891Y-115939919D01*
X326661891Y-115939919D02*
X326614272Y-115987538D01*
X326614272Y-115987538D02*
X326566653Y-116082776D01*
X326566653Y-116082776D02*
X326566653Y-116368490D01*
X326566653Y-116368490D02*
X326614272Y-116463728D01*
X326614272Y-116463728D02*
X326661891Y-116511348D01*
X326661891Y-116511348D02*
X326757129Y-116558967D01*
X326757129Y-116558967D02*
X326947605Y-116558967D01*
X326947605Y-116558967D02*
X327042843Y-116511348D01*
X326280938Y-115892300D02*
X325899986Y-115892300D01*
X326138081Y-115558967D02*
X326138081Y-116416109D01*
X326138081Y-116416109D02*
X326090462Y-116511348D01*
X326090462Y-116511348D02*
X325995224Y-116558967D01*
X325995224Y-116558967D02*
X325899986Y-116558967D01*
X325566652Y-116558967D02*
X325566652Y-115892300D01*
X325566652Y-115558967D02*
X325614271Y-115606586D01*
X325614271Y-115606586D02*
X325566652Y-115654205D01*
X325566652Y-115654205D02*
X325519033Y-115606586D01*
X325519033Y-115606586D02*
X325566652Y-115558967D01*
X325566652Y-115558967D02*
X325566652Y-115654205D01*
X324947605Y-116558967D02*
X325042843Y-116511348D01*
X325042843Y-116511348D02*
X325090462Y-116463728D01*
X325090462Y-116463728D02*
X325138081Y-116368490D01*
X325138081Y-116368490D02*
X325138081Y-116082776D01*
X325138081Y-116082776D02*
X325090462Y-115987538D01*
X325090462Y-115987538D02*
X325042843Y-115939919D01*
X325042843Y-115939919D02*
X324947605Y-115892300D01*
X324947605Y-115892300D02*
X324804748Y-115892300D01*
X324804748Y-115892300D02*
X324709510Y-115939919D01*
X324709510Y-115939919D02*
X324661891Y-115987538D01*
X324661891Y-115987538D02*
X324614272Y-116082776D01*
X324614272Y-116082776D02*
X324614272Y-116368490D01*
X324614272Y-116368490D02*
X324661891Y-116463728D01*
X324661891Y-116463728D02*
X324709510Y-116511348D01*
X324709510Y-116511348D02*
X324804748Y-116558967D01*
X324804748Y-116558967D02*
X324947605Y-116558967D01*
X324185700Y-115892300D02*
X324185700Y-116558967D01*
X324185700Y-115987538D02*
X324138081Y-115939919D01*
X324138081Y-115939919D02*
X324042843Y-115892300D01*
X324042843Y-115892300D02*
X323899986Y-115892300D01*
X323899986Y-115892300D02*
X323804748Y-115939919D01*
X323804748Y-115939919D02*
X323757129Y-116035157D01*
X323757129Y-116035157D02*
X323757129Y-116558967D01*
X322995224Y-116939919D02*
X323042843Y-116892300D01*
X323042843Y-116892300D02*
X323138081Y-116749443D01*
X323138081Y-116749443D02*
X323185700Y-116654205D01*
X323185700Y-116654205D02*
X323233319Y-116511348D01*
X323233319Y-116511348D02*
X323280938Y-116273252D01*
X323280938Y-116273252D02*
X323280938Y-116082776D01*
X323280938Y-116082776D02*
X323233319Y-115844681D01*
X323233319Y-115844681D02*
X323185700Y-115701824D01*
X323185700Y-115701824D02*
X323138081Y-115606586D01*
X323138081Y-115606586D02*
X323042843Y-115463728D01*
X323042843Y-115463728D02*
X322995224Y-115416109D01*
X322185700Y-115558967D02*
X322376176Y-115558967D01*
X322376176Y-115558967D02*
X322471414Y-115606586D01*
X322471414Y-115606586D02*
X322519033Y-115654205D01*
X322519033Y-115654205D02*
X322614271Y-115797062D01*
X322614271Y-115797062D02*
X322661890Y-115987538D01*
X322661890Y-115987538D02*
X322661890Y-116368490D01*
X322661890Y-116368490D02*
X322614271Y-116463728D01*
X322614271Y-116463728D02*
X322566652Y-116511348D01*
X322566652Y-116511348D02*
X322471414Y-116558967D01*
X322471414Y-116558967D02*
X322280938Y-116558967D01*
X322280938Y-116558967D02*
X322185700Y-116511348D01*
X322185700Y-116511348D02*
X322138081Y-116463728D01*
X322138081Y-116463728D02*
X322090462Y-116368490D01*
X322090462Y-116368490D02*
X322090462Y-116130395D01*
X322090462Y-116130395D02*
X322138081Y-116035157D01*
X322138081Y-116035157D02*
X322185700Y-115987538D01*
X322185700Y-115987538D02*
X322280938Y-115939919D01*
X322280938Y-115939919D02*
X322471414Y-115939919D01*
X322471414Y-115939919D02*
X322566652Y-115987538D01*
X322566652Y-115987538D02*
X322614271Y-116035157D01*
X322614271Y-116035157D02*
X322661890Y-116130395D01*
X321757128Y-116558967D02*
X321233319Y-115892300D01*
X321757128Y-115892300D02*
X321233319Y-116558967D01*
X320423795Y-115558967D02*
X320614271Y-115558967D01*
X320614271Y-115558967D02*
X320709509Y-115606586D01*
X320709509Y-115606586D02*
X320757128Y-115654205D01*
X320757128Y-115654205D02*
X320852366Y-115797062D01*
X320852366Y-115797062D02*
X320899985Y-115987538D01*
X320899985Y-115987538D02*
X320899985Y-116368490D01*
X320899985Y-116368490D02*
X320852366Y-116463728D01*
X320852366Y-116463728D02*
X320804747Y-116511348D01*
X320804747Y-116511348D02*
X320709509Y-116558967D01*
X320709509Y-116558967D02*
X320519033Y-116558967D01*
X320519033Y-116558967D02*
X320423795Y-116511348D01*
X320423795Y-116511348D02*
X320376176Y-116463728D01*
X320376176Y-116463728D02*
X320328557Y-116368490D01*
X320328557Y-116368490D02*
X320328557Y-116130395D01*
X320328557Y-116130395D02*
X320376176Y-116035157D01*
X320376176Y-116035157D02*
X320423795Y-115987538D01*
X320423795Y-115987538D02*
X320519033Y-115939919D01*
X320519033Y-115939919D02*
X320709509Y-115939919D01*
X320709509Y-115939919D02*
X320804747Y-115987538D01*
X320804747Y-115987538D02*
X320852366Y-116035157D01*
X320852366Y-116035157D02*
X320899985Y-116130395D01*
X319899985Y-116558967D02*
X319899985Y-115892300D01*
X319899985Y-115987538D02*
X319852366Y-115939919D01*
X319852366Y-115939919D02*
X319757128Y-115892300D01*
X319757128Y-115892300D02*
X319614271Y-115892300D01*
X319614271Y-115892300D02*
X319519033Y-115939919D01*
X319519033Y-115939919D02*
X319471414Y-116035157D01*
X319471414Y-116035157D02*
X319471414Y-116558967D01*
X319471414Y-116035157D02*
X319423795Y-115939919D01*
X319423795Y-115939919D02*
X319328557Y-115892300D01*
X319328557Y-115892300D02*
X319185700Y-115892300D01*
X319185700Y-115892300D02*
X319090461Y-115939919D01*
X319090461Y-115939919D02*
X319042842Y-116035157D01*
X319042842Y-116035157D02*
X319042842Y-116558967D01*
X318566652Y-116558967D02*
X318566652Y-115892300D01*
X318566652Y-115987538D02*
X318519033Y-115939919D01*
X318519033Y-115939919D02*
X318423795Y-115892300D01*
X318423795Y-115892300D02*
X318280938Y-115892300D01*
X318280938Y-115892300D02*
X318185700Y-115939919D01*
X318185700Y-115939919D02*
X318138081Y-116035157D01*
X318138081Y-116035157D02*
X318138081Y-116558967D01*
X318138081Y-116035157D02*
X318090462Y-115939919D01*
X318090462Y-115939919D02*
X317995224Y-115892300D01*
X317995224Y-115892300D02*
X317852367Y-115892300D01*
X317852367Y-115892300D02*
X317757128Y-115939919D01*
X317757128Y-115939919D02*
X317709509Y-116035157D01*
X317709509Y-116035157D02*
X317709509Y-116558967D01*
X316519033Y-116511348D02*
X316423795Y-116558967D01*
X316423795Y-116558967D02*
X316233319Y-116558967D01*
X316233319Y-116558967D02*
X316138081Y-116511348D01*
X316138081Y-116511348D02*
X316090462Y-116416109D01*
X316090462Y-116416109D02*
X316090462Y-116368490D01*
X316090462Y-116368490D02*
X316138081Y-116273252D01*
X316138081Y-116273252D02*
X316233319Y-116225633D01*
X316233319Y-116225633D02*
X316376176Y-116225633D01*
X316376176Y-116225633D02*
X316471414Y-116178014D01*
X316471414Y-116178014D02*
X316519033Y-116082776D01*
X316519033Y-116082776D02*
X316519033Y-116035157D01*
X316519033Y-116035157D02*
X316471414Y-115939919D01*
X316471414Y-115939919D02*
X316376176Y-115892300D01*
X316376176Y-115892300D02*
X316233319Y-115892300D01*
X316233319Y-115892300D02*
X316138081Y-115939919D01*
X315661890Y-116558967D02*
X315661890Y-115892300D01*
X315661890Y-115558967D02*
X315709509Y-115606586D01*
X315709509Y-115606586D02*
X315661890Y-115654205D01*
X315661890Y-115654205D02*
X315614271Y-115606586D01*
X315614271Y-115606586D02*
X315661890Y-115558967D01*
X315661890Y-115558967D02*
X315661890Y-115654205D01*
X315280938Y-115892300D02*
X314757129Y-115892300D01*
X314757129Y-115892300D02*
X315280938Y-116558967D01*
X315280938Y-116558967D02*
X314757129Y-116558967D01*
X313995224Y-116511348D02*
X314090462Y-116558967D01*
X314090462Y-116558967D02*
X314280938Y-116558967D01*
X314280938Y-116558967D02*
X314376176Y-116511348D01*
X314376176Y-116511348D02*
X314423795Y-116416109D01*
X314423795Y-116416109D02*
X314423795Y-116035157D01*
X314423795Y-116035157D02*
X314376176Y-115939919D01*
X314376176Y-115939919D02*
X314280938Y-115892300D01*
X314280938Y-115892300D02*
X314090462Y-115892300D01*
X314090462Y-115892300D02*
X313995224Y-115939919D01*
X313995224Y-115939919D02*
X313947605Y-116035157D01*
X313947605Y-116035157D02*
X313947605Y-116130395D01*
X313947605Y-116130395D02*
X314423795Y-116225633D01*
X313614271Y-116939919D02*
X313566652Y-116892300D01*
X313566652Y-116892300D02*
X313471414Y-116749443D01*
X313471414Y-116749443D02*
X313423795Y-116654205D01*
X313423795Y-116654205D02*
X313376176Y-116511348D01*
X313376176Y-116511348D02*
X313328557Y-116273252D01*
X313328557Y-116273252D02*
X313328557Y-116082776D01*
X313328557Y-116082776D02*
X313376176Y-115844681D01*
X313376176Y-115844681D02*
X313423795Y-115701824D01*
X313423795Y-115701824D02*
X313471414Y-115606586D01*
X313471414Y-115606586D02*
X313566652Y-115463728D01*
X313566652Y-115463728D02*
X313614271Y-115416109D01*
D11*
%TO.C,C1*%
X99375055Y-76336094D02*
X99403627Y-76364666D01*
X99403627Y-76364666D02*
X99489341Y-76393237D01*
X99489341Y-76393237D02*
X99546484Y-76393237D01*
X99546484Y-76393237D02*
X99632198Y-76364666D01*
X99632198Y-76364666D02*
X99689341Y-76307523D01*
X99689341Y-76307523D02*
X99717912Y-76250380D01*
X99717912Y-76250380D02*
X99746484Y-76136094D01*
X99746484Y-76136094D02*
X99746484Y-76050380D01*
X99746484Y-76050380D02*
X99717912Y-75936094D01*
X99717912Y-75936094D02*
X99689341Y-75878951D01*
X99689341Y-75878951D02*
X99632198Y-75821808D01*
X99632198Y-75821808D02*
X99546484Y-75793237D01*
X99546484Y-75793237D02*
X99489341Y-75793237D01*
X99489341Y-75793237D02*
X99403627Y-75821808D01*
X99403627Y-75821808D02*
X99375055Y-75850380D01*
X98803627Y-76393237D02*
X99146484Y-76393237D01*
X98975055Y-76393237D02*
X98975055Y-75793237D01*
X98975055Y-75793237D02*
X99032198Y-75878951D01*
X99032198Y-75878951D02*
X99089341Y-75936094D01*
X99089341Y-75936094D02*
X99146484Y-75964666D01*
D10*
%TO.C,R1*%
X69937675Y-43648999D02*
X69461484Y-43315666D01*
X69937675Y-43077571D02*
X68937675Y-43077571D01*
X68937675Y-43077571D02*
X68937675Y-43458523D01*
X68937675Y-43458523D02*
X68985294Y-43553761D01*
X68985294Y-43553761D02*
X69032913Y-43601380D01*
X69032913Y-43601380D02*
X69128151Y-43648999D01*
X69128151Y-43648999D02*
X69271008Y-43648999D01*
X69271008Y-43648999D02*
X69366246Y-43601380D01*
X69366246Y-43601380D02*
X69413865Y-43553761D01*
X69413865Y-43553761D02*
X69461484Y-43458523D01*
X69461484Y-43458523D02*
X69461484Y-43077571D01*
X69937675Y-44601380D02*
X69937675Y-44029952D01*
X69937675Y-44315666D02*
X68937675Y-44315666D01*
X68937675Y-44315666D02*
X69080532Y-44220428D01*
X69080532Y-44220428D02*
X69175770Y-44125190D01*
X69175770Y-44125190D02*
X69223389Y-44029952D01*
D11*
%TO.C,C5*%
X184995484Y-75815666D02*
X185024056Y-75787094D01*
X185024056Y-75787094D02*
X185052627Y-75701380D01*
X185052627Y-75701380D02*
X185052627Y-75644237D01*
X185052627Y-75644237D02*
X185024056Y-75558523D01*
X185024056Y-75558523D02*
X184966913Y-75501380D01*
X184966913Y-75501380D02*
X184909770Y-75472809D01*
X184909770Y-75472809D02*
X184795484Y-75444237D01*
X184795484Y-75444237D02*
X184709770Y-75444237D01*
X184709770Y-75444237D02*
X184595484Y-75472809D01*
X184595484Y-75472809D02*
X184538341Y-75501380D01*
X184538341Y-75501380D02*
X184481198Y-75558523D01*
X184481198Y-75558523D02*
X184452627Y-75644237D01*
X184452627Y-75644237D02*
X184452627Y-75701380D01*
X184452627Y-75701380D02*
X184481198Y-75787094D01*
X184481198Y-75787094D02*
X184509770Y-75815666D01*
X184452627Y-76358523D02*
X184452627Y-76072809D01*
X184452627Y-76072809D02*
X184738341Y-76044237D01*
X184738341Y-76044237D02*
X184709770Y-76072809D01*
X184709770Y-76072809D02*
X184681198Y-76129952D01*
X184681198Y-76129952D02*
X184681198Y-76272809D01*
X184681198Y-76272809D02*
X184709770Y-76329952D01*
X184709770Y-76329952D02*
X184738341Y-76358523D01*
X184738341Y-76358523D02*
X184795484Y-76387094D01*
X184795484Y-76387094D02*
X184938341Y-76387094D01*
X184938341Y-76387094D02*
X184995484Y-76358523D01*
X184995484Y-76358523D02*
X185024056Y-76329952D01*
X185024056Y-76329952D02*
X185052627Y-76272809D01*
X185052627Y-76272809D02*
X185052627Y-76129952D01*
X185052627Y-76129952D02*
X185024056Y-76072809D01*
X185024056Y-76072809D02*
X184995484Y-76044237D01*
%TO.C,C9*%
X206475055Y-73036094D02*
X206503627Y-73064666D01*
X206503627Y-73064666D02*
X206589341Y-73093237D01*
X206589341Y-73093237D02*
X206646484Y-73093237D01*
X206646484Y-73093237D02*
X206732198Y-73064666D01*
X206732198Y-73064666D02*
X206789341Y-73007523D01*
X206789341Y-73007523D02*
X206817912Y-72950380D01*
X206817912Y-72950380D02*
X206846484Y-72836094D01*
X206846484Y-72836094D02*
X206846484Y-72750380D01*
X206846484Y-72750380D02*
X206817912Y-72636094D01*
X206817912Y-72636094D02*
X206789341Y-72578951D01*
X206789341Y-72578951D02*
X206732198Y-72521808D01*
X206732198Y-72521808D02*
X206646484Y-72493237D01*
X206646484Y-72493237D02*
X206589341Y-72493237D01*
X206589341Y-72493237D02*
X206503627Y-72521808D01*
X206503627Y-72521808D02*
X206475055Y-72550380D01*
X206189341Y-73093237D02*
X206075055Y-73093237D01*
X206075055Y-73093237D02*
X206017912Y-73064666D01*
X206017912Y-73064666D02*
X205989341Y-73036094D01*
X205989341Y-73036094D02*
X205932198Y-72950380D01*
X205932198Y-72950380D02*
X205903627Y-72836094D01*
X205903627Y-72836094D02*
X205903627Y-72607523D01*
X205903627Y-72607523D02*
X205932198Y-72550380D01*
X205932198Y-72550380D02*
X205960770Y-72521808D01*
X205960770Y-72521808D02*
X206017912Y-72493237D01*
X206017912Y-72493237D02*
X206132198Y-72493237D01*
X206132198Y-72493237D02*
X206189341Y-72521808D01*
X206189341Y-72521808D02*
X206217912Y-72550380D01*
X206217912Y-72550380D02*
X206246484Y-72607523D01*
X206246484Y-72607523D02*
X206246484Y-72750380D01*
X206246484Y-72750380D02*
X206217912Y-72807523D01*
X206217912Y-72807523D02*
X206189341Y-72836094D01*
X206189341Y-72836094D02*
X206132198Y-72864666D01*
X206132198Y-72864666D02*
X206017912Y-72864666D01*
X206017912Y-72864666D02*
X205960770Y-72836094D01*
X205960770Y-72836094D02*
X205932198Y-72807523D01*
X205932198Y-72807523D02*
X205903627Y-72750380D01*
%TO.C,C8*%
X188175055Y-72136094D02*
X188203627Y-72164666D01*
X188203627Y-72164666D02*
X188289341Y-72193237D01*
X188289341Y-72193237D02*
X188346484Y-72193237D01*
X188346484Y-72193237D02*
X188432198Y-72164666D01*
X188432198Y-72164666D02*
X188489341Y-72107523D01*
X188489341Y-72107523D02*
X188517912Y-72050380D01*
X188517912Y-72050380D02*
X188546484Y-71936094D01*
X188546484Y-71936094D02*
X188546484Y-71850380D01*
X188546484Y-71850380D02*
X188517912Y-71736094D01*
X188517912Y-71736094D02*
X188489341Y-71678951D01*
X188489341Y-71678951D02*
X188432198Y-71621808D01*
X188432198Y-71621808D02*
X188346484Y-71593237D01*
X188346484Y-71593237D02*
X188289341Y-71593237D01*
X188289341Y-71593237D02*
X188203627Y-71621808D01*
X188203627Y-71621808D02*
X188175055Y-71650380D01*
X187832198Y-71850380D02*
X187889341Y-71821808D01*
X187889341Y-71821808D02*
X187917912Y-71793237D01*
X187917912Y-71793237D02*
X187946484Y-71736094D01*
X187946484Y-71736094D02*
X187946484Y-71707523D01*
X187946484Y-71707523D02*
X187917912Y-71650380D01*
X187917912Y-71650380D02*
X187889341Y-71621808D01*
X187889341Y-71621808D02*
X187832198Y-71593237D01*
X187832198Y-71593237D02*
X187717912Y-71593237D01*
X187717912Y-71593237D02*
X187660770Y-71621808D01*
X187660770Y-71621808D02*
X187632198Y-71650380D01*
X187632198Y-71650380D02*
X187603627Y-71707523D01*
X187603627Y-71707523D02*
X187603627Y-71736094D01*
X187603627Y-71736094D02*
X187632198Y-71793237D01*
X187632198Y-71793237D02*
X187660770Y-71821808D01*
X187660770Y-71821808D02*
X187717912Y-71850380D01*
X187717912Y-71850380D02*
X187832198Y-71850380D01*
X187832198Y-71850380D02*
X187889341Y-71878951D01*
X187889341Y-71878951D02*
X187917912Y-71907523D01*
X187917912Y-71907523D02*
X187946484Y-71964666D01*
X187946484Y-71964666D02*
X187946484Y-72078951D01*
X187946484Y-72078951D02*
X187917912Y-72136094D01*
X187917912Y-72136094D02*
X187889341Y-72164666D01*
X187889341Y-72164666D02*
X187832198Y-72193237D01*
X187832198Y-72193237D02*
X187717912Y-72193237D01*
X187717912Y-72193237D02*
X187660770Y-72164666D01*
X187660770Y-72164666D02*
X187632198Y-72136094D01*
X187632198Y-72136094D02*
X187603627Y-72078951D01*
X187603627Y-72078951D02*
X187603627Y-71964666D01*
X187603627Y-71964666D02*
X187632198Y-71907523D01*
X187632198Y-71907523D02*
X187660770Y-71878951D01*
X187660770Y-71878951D02*
X187717912Y-71850380D01*
%TO.C,R4*%
X188975055Y-71393237D02*
X189175055Y-71107523D01*
X189317912Y-71393237D02*
X189317912Y-70793237D01*
X189317912Y-70793237D02*
X189089341Y-70793237D01*
X189089341Y-70793237D02*
X189032198Y-70821808D01*
X189032198Y-70821808D02*
X189003627Y-70850380D01*
X189003627Y-70850380D02*
X188975055Y-70907523D01*
X188975055Y-70907523D02*
X188975055Y-70993237D01*
X188975055Y-70993237D02*
X189003627Y-71050380D01*
X189003627Y-71050380D02*
X189032198Y-71078951D01*
X189032198Y-71078951D02*
X189089341Y-71107523D01*
X189089341Y-71107523D02*
X189317912Y-71107523D01*
X188460770Y-70993237D02*
X188460770Y-71393237D01*
X188603627Y-70764666D02*
X188746484Y-71193237D01*
X188746484Y-71193237D02*
X188375055Y-71193237D01*
%TO.C,Y1*%
X191860770Y-85107523D02*
X191860770Y-85393237D01*
X192060770Y-84793237D02*
X191860770Y-85107523D01*
X191860770Y-85107523D02*
X191660770Y-84793237D01*
X191146484Y-85393237D02*
X191489341Y-85393237D01*
X191317912Y-85393237D02*
X191317912Y-84793237D01*
X191317912Y-84793237D02*
X191375055Y-84878951D01*
X191375055Y-84878951D02*
X191432198Y-84936094D01*
X191432198Y-84936094D02*
X191489341Y-84964666D01*
D10*
%TO.C,J1*%
X76060889Y-48078285D02*
X76060889Y-48792570D01*
X76060889Y-48792570D02*
X76108508Y-48935427D01*
X76108508Y-48935427D02*
X76203746Y-49030666D01*
X76203746Y-49030666D02*
X76346603Y-49078285D01*
X76346603Y-49078285D02*
X76441841Y-49078285D01*
X75060889Y-49078285D02*
X75632317Y-49078285D01*
X75346603Y-49078285D02*
X75346603Y-48078285D01*
X75346603Y-48078285D02*
X75441841Y-48221142D01*
X75441841Y-48221142D02*
X75537079Y-48316380D01*
X75537079Y-48316380D02*
X75632317Y-48363999D01*
D11*
%TO.C,C6*%
X186095484Y-75815666D02*
X186124056Y-75787094D01*
X186124056Y-75787094D02*
X186152627Y-75701380D01*
X186152627Y-75701380D02*
X186152627Y-75644237D01*
X186152627Y-75644237D02*
X186124056Y-75558523D01*
X186124056Y-75558523D02*
X186066913Y-75501380D01*
X186066913Y-75501380D02*
X186009770Y-75472809D01*
X186009770Y-75472809D02*
X185895484Y-75444237D01*
X185895484Y-75444237D02*
X185809770Y-75444237D01*
X185809770Y-75444237D02*
X185695484Y-75472809D01*
X185695484Y-75472809D02*
X185638341Y-75501380D01*
X185638341Y-75501380D02*
X185581198Y-75558523D01*
X185581198Y-75558523D02*
X185552627Y-75644237D01*
X185552627Y-75644237D02*
X185552627Y-75701380D01*
X185552627Y-75701380D02*
X185581198Y-75787094D01*
X185581198Y-75787094D02*
X185609770Y-75815666D01*
X185552627Y-76329952D02*
X185552627Y-76215666D01*
X185552627Y-76215666D02*
X185581198Y-76158523D01*
X185581198Y-76158523D02*
X185609770Y-76129952D01*
X185609770Y-76129952D02*
X185695484Y-76072809D01*
X185695484Y-76072809D02*
X185809770Y-76044237D01*
X185809770Y-76044237D02*
X186038341Y-76044237D01*
X186038341Y-76044237D02*
X186095484Y-76072809D01*
X186095484Y-76072809D02*
X186124056Y-76101380D01*
X186124056Y-76101380D02*
X186152627Y-76158523D01*
X186152627Y-76158523D02*
X186152627Y-76272809D01*
X186152627Y-76272809D02*
X186124056Y-76329952D01*
X186124056Y-76329952D02*
X186095484Y-76358523D01*
X186095484Y-76358523D02*
X186038341Y-76387094D01*
X186038341Y-76387094D02*
X185895484Y-76387094D01*
X185895484Y-76387094D02*
X185838341Y-76358523D01*
X185838341Y-76358523D02*
X185809770Y-76329952D01*
X185809770Y-76329952D02*
X185781198Y-76272809D01*
X185781198Y-76272809D02*
X185781198Y-76158523D01*
X185781198Y-76158523D02*
X185809770Y-76101380D01*
X185809770Y-76101380D02*
X185838341Y-76072809D01*
X185838341Y-76072809D02*
X185895484Y-76044237D01*
%TO.C,C11*%
X189645040Y-84936094D02*
X189673612Y-84964666D01*
X189673612Y-84964666D02*
X189759326Y-84993237D01*
X189759326Y-84993237D02*
X189816469Y-84993237D01*
X189816469Y-84993237D02*
X189902183Y-84964666D01*
X189902183Y-84964666D02*
X189959326Y-84907523D01*
X189959326Y-84907523D02*
X189987897Y-84850380D01*
X189987897Y-84850380D02*
X190016469Y-84736094D01*
X190016469Y-84736094D02*
X190016469Y-84650380D01*
X190016469Y-84650380D02*
X189987897Y-84536094D01*
X189987897Y-84536094D02*
X189959326Y-84478951D01*
X189959326Y-84478951D02*
X189902183Y-84421808D01*
X189902183Y-84421808D02*
X189816469Y-84393237D01*
X189816469Y-84393237D02*
X189759326Y-84393237D01*
X189759326Y-84393237D02*
X189673612Y-84421808D01*
X189673612Y-84421808D02*
X189645040Y-84450380D01*
X189073612Y-84993237D02*
X189416469Y-84993237D01*
X189245040Y-84993237D02*
X189245040Y-84393237D01*
X189245040Y-84393237D02*
X189302183Y-84478951D01*
X189302183Y-84478951D02*
X189359326Y-84536094D01*
X189359326Y-84536094D02*
X189416469Y-84564666D01*
X188502183Y-84993237D02*
X188845040Y-84993237D01*
X188673611Y-84993237D02*
X188673611Y-84393237D01*
X188673611Y-84393237D02*
X188730754Y-84478951D01*
X188730754Y-84478951D02*
X188787897Y-84536094D01*
X188787897Y-84536094D02*
X188845040Y-84564666D01*
%TO.C,C7*%
X187204859Y-75834416D02*
X187233431Y-75805844D01*
X187233431Y-75805844D02*
X187262002Y-75720130D01*
X187262002Y-75720130D02*
X187262002Y-75662987D01*
X187262002Y-75662987D02*
X187233431Y-75577273D01*
X187233431Y-75577273D02*
X187176288Y-75520130D01*
X187176288Y-75520130D02*
X187119145Y-75491559D01*
X187119145Y-75491559D02*
X187004859Y-75462987D01*
X187004859Y-75462987D02*
X186919145Y-75462987D01*
X186919145Y-75462987D02*
X186804859Y-75491559D01*
X186804859Y-75491559D02*
X186747716Y-75520130D01*
X186747716Y-75520130D02*
X186690573Y-75577273D01*
X186690573Y-75577273D02*
X186662002Y-75662987D01*
X186662002Y-75662987D02*
X186662002Y-75720130D01*
X186662002Y-75720130D02*
X186690573Y-75805844D01*
X186690573Y-75805844D02*
X186719145Y-75834416D01*
X186662002Y-76034416D02*
X186662002Y-76434416D01*
X186662002Y-76434416D02*
X187262002Y-76177273D01*
%TO.C,R3*%
X188975055Y-70593237D02*
X189175055Y-70307523D01*
X189317912Y-70593237D02*
X189317912Y-69993237D01*
X189317912Y-69993237D02*
X189089341Y-69993237D01*
X189089341Y-69993237D02*
X189032198Y-70021808D01*
X189032198Y-70021808D02*
X189003627Y-70050380D01*
X189003627Y-70050380D02*
X188975055Y-70107523D01*
X188975055Y-70107523D02*
X188975055Y-70193237D01*
X188975055Y-70193237D02*
X189003627Y-70250380D01*
X189003627Y-70250380D02*
X189032198Y-70278951D01*
X189032198Y-70278951D02*
X189089341Y-70307523D01*
X189089341Y-70307523D02*
X189317912Y-70307523D01*
X188775055Y-69993237D02*
X188403627Y-69993237D01*
X188403627Y-69993237D02*
X188603627Y-70221808D01*
X188603627Y-70221808D02*
X188517912Y-70221808D01*
X188517912Y-70221808D02*
X188460770Y-70250380D01*
X188460770Y-70250380D02*
X188432198Y-70278951D01*
X188432198Y-70278951D02*
X188403627Y-70336094D01*
X188403627Y-70336094D02*
X188403627Y-70478951D01*
X188403627Y-70478951D02*
X188432198Y-70536094D01*
X188432198Y-70536094D02*
X188460770Y-70564666D01*
X188460770Y-70564666D02*
X188517912Y-70593237D01*
X188517912Y-70593237D02*
X188689341Y-70593237D01*
X188689341Y-70593237D02*
X188746484Y-70564666D01*
X188746484Y-70564666D02*
X188775055Y-70536094D01*
%TO.C,C4*%
X185975055Y-71236094D02*
X186003627Y-71264666D01*
X186003627Y-71264666D02*
X186089341Y-71293237D01*
X186089341Y-71293237D02*
X186146484Y-71293237D01*
X186146484Y-71293237D02*
X186232198Y-71264666D01*
X186232198Y-71264666D02*
X186289341Y-71207523D01*
X186289341Y-71207523D02*
X186317912Y-71150380D01*
X186317912Y-71150380D02*
X186346484Y-71036094D01*
X186346484Y-71036094D02*
X186346484Y-70950380D01*
X186346484Y-70950380D02*
X186317912Y-70836094D01*
X186317912Y-70836094D02*
X186289341Y-70778951D01*
X186289341Y-70778951D02*
X186232198Y-70721808D01*
X186232198Y-70721808D02*
X186146484Y-70693237D01*
X186146484Y-70693237D02*
X186089341Y-70693237D01*
X186089341Y-70693237D02*
X186003627Y-70721808D01*
X186003627Y-70721808D02*
X185975055Y-70750380D01*
X185460770Y-70893237D02*
X185460770Y-71293237D01*
X185603627Y-70664666D02*
X185746484Y-71093237D01*
X185746484Y-71093237D02*
X185375055Y-71093237D01*
%TO.C,R6*%
X188175055Y-83893237D02*
X188375055Y-83607523D01*
X188517912Y-83893237D02*
X188517912Y-83293237D01*
X188517912Y-83293237D02*
X188289341Y-83293237D01*
X188289341Y-83293237D02*
X188232198Y-83321808D01*
X188232198Y-83321808D02*
X188203627Y-83350380D01*
X188203627Y-83350380D02*
X188175055Y-83407523D01*
X188175055Y-83407523D02*
X188175055Y-83493237D01*
X188175055Y-83493237D02*
X188203627Y-83550380D01*
X188203627Y-83550380D02*
X188232198Y-83578951D01*
X188232198Y-83578951D02*
X188289341Y-83607523D01*
X188289341Y-83607523D02*
X188517912Y-83607523D01*
X187660770Y-83293237D02*
X187775055Y-83293237D01*
X187775055Y-83293237D02*
X187832198Y-83321808D01*
X187832198Y-83321808D02*
X187860770Y-83350380D01*
X187860770Y-83350380D02*
X187917912Y-83436094D01*
X187917912Y-83436094D02*
X187946484Y-83550380D01*
X187946484Y-83550380D02*
X187946484Y-83778951D01*
X187946484Y-83778951D02*
X187917912Y-83836094D01*
X187917912Y-83836094D02*
X187889341Y-83864666D01*
X187889341Y-83864666D02*
X187832198Y-83893237D01*
X187832198Y-83893237D02*
X187717912Y-83893237D01*
X187717912Y-83893237D02*
X187660770Y-83864666D01*
X187660770Y-83864666D02*
X187632198Y-83836094D01*
X187632198Y-83836094D02*
X187603627Y-83778951D01*
X187603627Y-83778951D02*
X187603627Y-83636094D01*
X187603627Y-83636094D02*
X187632198Y-83578951D01*
X187632198Y-83578951D02*
X187660770Y-83550380D01*
X187660770Y-83550380D02*
X187717912Y-83521808D01*
X187717912Y-83521808D02*
X187832198Y-83521808D01*
X187832198Y-83521808D02*
X187889341Y-83550380D01*
X187889341Y-83550380D02*
X187917912Y-83578951D01*
X187917912Y-83578951D02*
X187946484Y-83636094D01*
%TO.C,U1*%
X104132198Y-77468237D02*
X104132198Y-77953951D01*
X104132198Y-77953951D02*
X104103627Y-78011094D01*
X104103627Y-78011094D02*
X104075056Y-78039666D01*
X104075056Y-78039666D02*
X104017913Y-78068237D01*
X104017913Y-78068237D02*
X103903627Y-78068237D01*
X103903627Y-78068237D02*
X103846484Y-78039666D01*
X103846484Y-78039666D02*
X103817913Y-78011094D01*
X103817913Y-78011094D02*
X103789341Y-77953951D01*
X103789341Y-77953951D02*
X103789341Y-77468237D01*
X103189342Y-78068237D02*
X103532199Y-78068237D01*
X103360770Y-78068237D02*
X103360770Y-77468237D01*
X103360770Y-77468237D02*
X103417913Y-77553951D01*
X103417913Y-77553951D02*
X103475056Y-77611094D01*
X103475056Y-77611094D02*
X103532199Y-77639666D01*
%TO.C,U2*%
X192132198Y-71393237D02*
X192132198Y-71878951D01*
X192132198Y-71878951D02*
X192103627Y-71936094D01*
X192103627Y-71936094D02*
X192075056Y-71964666D01*
X192075056Y-71964666D02*
X192017913Y-71993237D01*
X192017913Y-71993237D02*
X191903627Y-71993237D01*
X191903627Y-71993237D02*
X191846484Y-71964666D01*
X191846484Y-71964666D02*
X191817913Y-71936094D01*
X191817913Y-71936094D02*
X191789341Y-71878951D01*
X191789341Y-71878951D02*
X191789341Y-71393237D01*
X191532199Y-71450380D02*
X191503627Y-71421808D01*
X191503627Y-71421808D02*
X191446485Y-71393237D01*
X191446485Y-71393237D02*
X191303627Y-71393237D01*
X191303627Y-71393237D02*
X191246485Y-71421808D01*
X191246485Y-71421808D02*
X191217913Y-71450380D01*
X191217913Y-71450380D02*
X191189342Y-71507523D01*
X191189342Y-71507523D02*
X191189342Y-71564666D01*
X191189342Y-71564666D02*
X191217913Y-71650380D01*
X191217913Y-71650380D02*
X191560770Y-71993237D01*
X191560770Y-71993237D02*
X191189342Y-71993237D01*
%TO.C,R5*%
X206475055Y-74893237D02*
X206675055Y-74607523D01*
X206817912Y-74893237D02*
X206817912Y-74293237D01*
X206817912Y-74293237D02*
X206589341Y-74293237D01*
X206589341Y-74293237D02*
X206532198Y-74321808D01*
X206532198Y-74321808D02*
X206503627Y-74350380D01*
X206503627Y-74350380D02*
X206475055Y-74407523D01*
X206475055Y-74407523D02*
X206475055Y-74493237D01*
X206475055Y-74493237D02*
X206503627Y-74550380D01*
X206503627Y-74550380D02*
X206532198Y-74578951D01*
X206532198Y-74578951D02*
X206589341Y-74607523D01*
X206589341Y-74607523D02*
X206817912Y-74607523D01*
X205932198Y-74293237D02*
X206217912Y-74293237D01*
X206217912Y-74293237D02*
X206246484Y-74578951D01*
X206246484Y-74578951D02*
X206217912Y-74550380D01*
X206217912Y-74550380D02*
X206160770Y-74521808D01*
X206160770Y-74521808D02*
X206017912Y-74521808D01*
X206017912Y-74521808D02*
X205960770Y-74550380D01*
X205960770Y-74550380D02*
X205932198Y-74578951D01*
X205932198Y-74578951D02*
X205903627Y-74636094D01*
X205903627Y-74636094D02*
X205903627Y-74778951D01*
X205903627Y-74778951D02*
X205932198Y-74836094D01*
X205932198Y-74836094D02*
X205960770Y-74864666D01*
X205960770Y-74864666D02*
X206017912Y-74893237D01*
X206017912Y-74893237D02*
X206160770Y-74893237D01*
X206160770Y-74893237D02*
X206217912Y-74864666D01*
X206217912Y-74864666D02*
X206246484Y-74836094D01*
%TO.C,C2*%
X108275055Y-76136094D02*
X108303627Y-76164666D01*
X108303627Y-76164666D02*
X108389341Y-76193237D01*
X108389341Y-76193237D02*
X108446484Y-76193237D01*
X108446484Y-76193237D02*
X108532198Y-76164666D01*
X108532198Y-76164666D02*
X108589341Y-76107523D01*
X108589341Y-76107523D02*
X108617912Y-76050380D01*
X108617912Y-76050380D02*
X108646484Y-75936094D01*
X108646484Y-75936094D02*
X108646484Y-75850380D01*
X108646484Y-75850380D02*
X108617912Y-75736094D01*
X108617912Y-75736094D02*
X108589341Y-75678951D01*
X108589341Y-75678951D02*
X108532198Y-75621808D01*
X108532198Y-75621808D02*
X108446484Y-75593237D01*
X108446484Y-75593237D02*
X108389341Y-75593237D01*
X108389341Y-75593237D02*
X108303627Y-75621808D01*
X108303627Y-75621808D02*
X108275055Y-75650380D01*
X108046484Y-75650380D02*
X108017912Y-75621808D01*
X108017912Y-75621808D02*
X107960770Y-75593237D01*
X107960770Y-75593237D02*
X107817912Y-75593237D01*
X107817912Y-75593237D02*
X107760770Y-75621808D01*
X107760770Y-75621808D02*
X107732198Y-75650380D01*
X107732198Y-75650380D02*
X107703627Y-75707523D01*
X107703627Y-75707523D02*
X107703627Y-75764666D01*
X107703627Y-75764666D02*
X107732198Y-75850380D01*
X107732198Y-75850380D02*
X108075055Y-76193237D01*
X108075055Y-76193237D02*
X107703627Y-76193237D01*
%TO.C,U3*%
X206832198Y-73393237D02*
X206832198Y-73878951D01*
X206832198Y-73878951D02*
X206803627Y-73936094D01*
X206803627Y-73936094D02*
X206775056Y-73964666D01*
X206775056Y-73964666D02*
X206717913Y-73993237D01*
X206717913Y-73993237D02*
X206603627Y-73993237D01*
X206603627Y-73993237D02*
X206546484Y-73964666D01*
X206546484Y-73964666D02*
X206517913Y-73936094D01*
X206517913Y-73936094D02*
X206489341Y-73878951D01*
X206489341Y-73878951D02*
X206489341Y-73393237D01*
X206260770Y-73393237D02*
X205889342Y-73393237D01*
X205889342Y-73393237D02*
X206089342Y-73621808D01*
X206089342Y-73621808D02*
X206003627Y-73621808D01*
X206003627Y-73621808D02*
X205946485Y-73650380D01*
X205946485Y-73650380D02*
X205917913Y-73678951D01*
X205917913Y-73678951D02*
X205889342Y-73736094D01*
X205889342Y-73736094D02*
X205889342Y-73878951D01*
X205889342Y-73878951D02*
X205917913Y-73936094D01*
X205917913Y-73936094D02*
X205946485Y-73964666D01*
X205946485Y-73964666D02*
X206003627Y-73993237D01*
X206003627Y-73993237D02*
X206175056Y-73993237D01*
X206175056Y-73993237D02*
X206232199Y-73964666D01*
X206232199Y-73964666D02*
X206260770Y-73936094D01*
%TO.C,C3*%
X184875055Y-71236094D02*
X184903627Y-71264666D01*
X184903627Y-71264666D02*
X184989341Y-71293237D01*
X184989341Y-71293237D02*
X185046484Y-71293237D01*
X185046484Y-71293237D02*
X185132198Y-71264666D01*
X185132198Y-71264666D02*
X185189341Y-71207523D01*
X185189341Y-71207523D02*
X185217912Y-71150380D01*
X185217912Y-71150380D02*
X185246484Y-71036094D01*
X185246484Y-71036094D02*
X185246484Y-70950380D01*
X185246484Y-70950380D02*
X185217912Y-70836094D01*
X185217912Y-70836094D02*
X185189341Y-70778951D01*
X185189341Y-70778951D02*
X185132198Y-70721808D01*
X185132198Y-70721808D02*
X185046484Y-70693237D01*
X185046484Y-70693237D02*
X184989341Y-70693237D01*
X184989341Y-70693237D02*
X184903627Y-70721808D01*
X184903627Y-70721808D02*
X184875055Y-70750380D01*
X184675055Y-70693237D02*
X184303627Y-70693237D01*
X184303627Y-70693237D02*
X184503627Y-70921808D01*
X184503627Y-70921808D02*
X184417912Y-70921808D01*
X184417912Y-70921808D02*
X184360770Y-70950380D01*
X184360770Y-70950380D02*
X184332198Y-70978951D01*
X184332198Y-70978951D02*
X184303627Y-71036094D01*
X184303627Y-71036094D02*
X184303627Y-71178951D01*
X184303627Y-71178951D02*
X184332198Y-71236094D01*
X184332198Y-71236094D02*
X184360770Y-71264666D01*
X184360770Y-71264666D02*
X184417912Y-71293237D01*
X184417912Y-71293237D02*
X184589341Y-71293237D01*
X184589341Y-71293237D02*
X184646484Y-71264666D01*
X184646484Y-71264666D02*
X184675055Y-71236094D01*
%TO.C,C10*%
X195660770Y-84436094D02*
X195689342Y-84464666D01*
X195689342Y-84464666D02*
X195775056Y-84493237D01*
X195775056Y-84493237D02*
X195832199Y-84493237D01*
X195832199Y-84493237D02*
X195917913Y-84464666D01*
X195917913Y-84464666D02*
X195975056Y-84407523D01*
X195975056Y-84407523D02*
X196003627Y-84350380D01*
X196003627Y-84350380D02*
X196032199Y-84236094D01*
X196032199Y-84236094D02*
X196032199Y-84150380D01*
X196032199Y-84150380D02*
X196003627Y-84036094D01*
X196003627Y-84036094D02*
X195975056Y-83978951D01*
X195975056Y-83978951D02*
X195917913Y-83921808D01*
X195917913Y-83921808D02*
X195832199Y-83893237D01*
X195832199Y-83893237D02*
X195775056Y-83893237D01*
X195775056Y-83893237D02*
X195689342Y-83921808D01*
X195689342Y-83921808D02*
X195660770Y-83950380D01*
X195089342Y-84493237D02*
X195432199Y-84493237D01*
X195260770Y-84493237D02*
X195260770Y-83893237D01*
X195260770Y-83893237D02*
X195317913Y-83978951D01*
X195317913Y-83978951D02*
X195375056Y-84036094D01*
X195375056Y-84036094D02*
X195432199Y-84064666D01*
X194717913Y-83893237D02*
X194660770Y-83893237D01*
X194660770Y-83893237D02*
X194603627Y-83921808D01*
X194603627Y-83921808D02*
X194575056Y-83950380D01*
X194575056Y-83950380D02*
X194546484Y-84007523D01*
X194546484Y-84007523D02*
X194517913Y-84121808D01*
X194517913Y-84121808D02*
X194517913Y-84264666D01*
X194517913Y-84264666D02*
X194546484Y-84378951D01*
X194546484Y-84378951D02*
X194575056Y-84436094D01*
X194575056Y-84436094D02*
X194603627Y-84464666D01*
X194603627Y-84464666D02*
X194660770Y-84493237D01*
X194660770Y-84493237D02*
X194717913Y-84493237D01*
X194717913Y-84493237D02*
X194775056Y-84464666D01*
X194775056Y-84464666D02*
X194803627Y-84436094D01*
X194803627Y-84436094D02*
X194832198Y-84378951D01*
X194832198Y-84378951D02*
X194860770Y-84264666D01*
X194860770Y-84264666D02*
X194860770Y-84121808D01*
X194860770Y-84121808D02*
X194832198Y-84007523D01*
X194832198Y-84007523D02*
X194803627Y-83950380D01*
X194803627Y-83950380D02*
X194775056Y-83921808D01*
X194775056Y-83921808D02*
X194717913Y-83893237D01*
D10*
%TO.C,R2*%
X82337675Y-43648999D02*
X81861484Y-43315666D01*
X82337675Y-43077571D02*
X81337675Y-43077571D01*
X81337675Y-43077571D02*
X81337675Y-43458523D01*
X81337675Y-43458523D02*
X81385294Y-43553761D01*
X81385294Y-43553761D02*
X81432913Y-43601380D01*
X81432913Y-43601380D02*
X81528151Y-43648999D01*
X81528151Y-43648999D02*
X81671008Y-43648999D01*
X81671008Y-43648999D02*
X81766246Y-43601380D01*
X81766246Y-43601380D02*
X81813865Y-43553761D01*
X81813865Y-43553761D02*
X81861484Y-43458523D01*
X81861484Y-43458523D02*
X81861484Y-43077571D01*
X81432913Y-44029952D02*
X81385294Y-44077571D01*
X81385294Y-44077571D02*
X81337675Y-44172809D01*
X81337675Y-44172809D02*
X81337675Y-44410904D01*
X81337675Y-44410904D02*
X81385294Y-44506142D01*
X81385294Y-44506142D02*
X81432913Y-44553761D01*
X81432913Y-44553761D02*
X81528151Y-44601380D01*
X81528151Y-44601380D02*
X81623389Y-44601380D01*
X81623389Y-44601380D02*
X81766246Y-44553761D01*
X81766246Y-44553761D02*
X82337675Y-43982333D01*
X82337675Y-43982333D02*
X82337675Y-44601380D01*
%TO.C,D41*%
X311625264Y-89737576D02*
X311625264Y-91237576D01*
X311625264Y-91237576D02*
X317025264Y-91237576D01*
X313825264Y-89987576D02*
X313825264Y-90987576D01*
X313925264Y-90487576D02*
X314825264Y-89987576D01*
X314825264Y-89987576D02*
X314825264Y-90987576D01*
X314825264Y-90987576D02*
X313925264Y-90487576D01*
X317025264Y-89737576D02*
X311625264Y-89737576D01*
X317025264Y-91237576D02*
X317025264Y-89737576D01*
%TO.C,SW16*%
X89350056Y-63165666D02*
X89350056Y-63915666D01*
X89350056Y-63915666D02*
X89550056Y-63915666D01*
D12*
X89450056Y-63815666D02*
X89450056Y-63165666D01*
D10*
X89600056Y-62315666D02*
X89600056Y-66765666D01*
X89600056Y-66765666D02*
X92630056Y-66765666D01*
D13*
X89800056Y-66565666D02*
X92250056Y-66565666D01*
D14*
X89950056Y-66265666D02*
X89950056Y-64465667D01*
D15*
X91080056Y-62765666D02*
X91080056Y-65005666D01*
D10*
X94850056Y-64865666D02*
X99650056Y-64865666D01*
D16*
X97850056Y-63065666D02*
X91150056Y-63065666D01*
D17*
X99150056Y-61865666D02*
X99150056Y-64365666D01*
D13*
X99450056Y-64615666D02*
X98150056Y-64565666D01*
D18*
X99500056Y-61465666D02*
X98250056Y-61465666D01*
D10*
X99630056Y-63865666D02*
X99630056Y-61615666D01*
X99650056Y-61265666D02*
X91450055Y-61265666D01*
X99650056Y-64865666D02*
X99650056Y-61265666D01*
X91450055Y-61265665D02*
G75*
G03*
X89350056Y-63165667I-100000J-1999999D01*
G01*
D17*
X94450056Y-64465666D02*
G75*
G03*
X92233738Y-66344195I-65001J-2169999D01*
G01*
D10*
X94850056Y-64865666D02*
G75*
G03*
X92633738Y-66744195I-65001J-2169999D01*
G01*
%TO.C,SW57*%
X110781306Y-120315666D02*
X110781306Y-121065666D01*
X110781306Y-121065666D02*
X110981306Y-121065666D01*
D12*
X110881306Y-120965666D02*
X110881306Y-120315666D01*
D10*
X111031306Y-119465666D02*
X111031306Y-123915666D01*
X111031306Y-123915666D02*
X114061306Y-123915666D01*
D13*
X111231306Y-123715666D02*
X113681306Y-123715666D01*
D14*
X111381306Y-123415666D02*
X111381306Y-121615667D01*
D15*
X112511306Y-119915666D02*
X112511306Y-122155666D01*
D10*
X116281306Y-122015666D02*
X121081306Y-122015666D01*
D16*
X119281306Y-120215666D02*
X112581306Y-120215666D01*
D17*
X120581306Y-119015666D02*
X120581306Y-121515666D01*
D13*
X120881306Y-121765666D02*
X119581306Y-121715666D01*
D18*
X120931306Y-118615666D02*
X119681306Y-118615666D01*
D10*
X121061306Y-121015666D02*
X121061306Y-118765666D01*
X121081306Y-118415666D02*
X112881305Y-118415666D01*
X121081306Y-122015666D02*
X121081306Y-118415666D01*
X112881305Y-118415665D02*
G75*
G03*
X110781306Y-120315667I-100000J-1999999D01*
G01*
D17*
X115881306Y-121615666D02*
G75*
G03*
X113664988Y-123494195I-65001J-2169999D01*
G01*
D10*
X116281306Y-122015666D02*
G75*
G03*
X114064988Y-123894195I-65001J-2169999D01*
G01*
%TO.C,D16*%
X92550080Y-58781300D02*
X92550080Y-60281300D01*
X92550080Y-60281300D02*
X97950080Y-60281300D01*
X94750080Y-59031300D02*
X94750080Y-60031300D01*
X94850080Y-59531300D02*
X95750080Y-59031300D01*
X95750080Y-59031300D02*
X95750080Y-60031300D01*
X95750080Y-60031300D02*
X94850080Y-59531300D01*
X97950080Y-58781300D02*
X92550080Y-58781300D01*
X97950080Y-60281300D02*
X97950080Y-58781300D01*
%TO.C,D9*%
X221137688Y-51637544D02*
X221137688Y-53137544D01*
X221137688Y-53137544D02*
X226537688Y-53137544D01*
X223337688Y-51887544D02*
X223337688Y-52887544D01*
X223437688Y-52387544D02*
X224337688Y-51887544D01*
X224337688Y-51887544D02*
X224337688Y-52887544D01*
X224337688Y-52887544D02*
X223437688Y-52387544D01*
X226537688Y-51637544D02*
X221137688Y-51637544D01*
X226537688Y-53137544D02*
X226537688Y-51637544D01*
%TO.C,SW23*%
X222700056Y-63165666D02*
X222700056Y-63915666D01*
X222700056Y-63915666D02*
X222900056Y-63915666D01*
D12*
X222800056Y-63815666D02*
X222800056Y-63165666D01*
D10*
X222950056Y-62315666D02*
X222950056Y-66765666D01*
X222950056Y-66765666D02*
X225980056Y-66765666D01*
D13*
X223150056Y-66565666D02*
X225600056Y-66565666D01*
D14*
X223300056Y-66265666D02*
X223300056Y-64465667D01*
D15*
X224430056Y-62765666D02*
X224430056Y-65005666D01*
D10*
X228200056Y-64865666D02*
X233000056Y-64865666D01*
D16*
X231200056Y-63065666D02*
X224500056Y-63065666D01*
D17*
X232500056Y-61865666D02*
X232500056Y-64365666D01*
D13*
X232800056Y-64615666D02*
X231500056Y-64565666D01*
D18*
X232850056Y-61465666D02*
X231600056Y-61465666D01*
D10*
X232980056Y-63865666D02*
X232980056Y-61615666D01*
X233000056Y-61265666D02*
X224800055Y-61265666D01*
X233000056Y-64865666D02*
X233000056Y-61265666D01*
X224800055Y-61265665D02*
G75*
G03*
X222700056Y-63165667I-100000J-1999999D01*
G01*
D17*
X227800056Y-64465666D02*
G75*
G03*
X225583738Y-66344195I-65001J-2169999D01*
G01*
D10*
X228200056Y-64865666D02*
G75*
G03*
X225983738Y-66744195I-65001J-2169999D01*
G01*
%TO.C,SW6*%
X156025056Y-44115666D02*
X156025056Y-44865666D01*
X156025056Y-44865666D02*
X156225056Y-44865666D01*
D12*
X156125056Y-44765666D02*
X156125056Y-44115666D01*
D10*
X156275056Y-43265666D02*
X156275056Y-47715666D01*
X156275056Y-47715666D02*
X159305056Y-47715666D01*
D13*
X156475056Y-47515666D02*
X158925056Y-47515666D01*
D14*
X156625056Y-47215666D02*
X156625056Y-45415667D01*
D15*
X157755056Y-43715666D02*
X157755056Y-45955666D01*
D10*
X161525056Y-45815666D02*
X166325056Y-45815666D01*
D16*
X164525056Y-44015666D02*
X157825056Y-44015666D01*
D17*
X165825056Y-42815666D02*
X165825056Y-45315666D01*
D13*
X166125056Y-45565666D02*
X164825056Y-45515666D01*
D18*
X166175056Y-42415666D02*
X164925056Y-42415666D01*
D10*
X166305056Y-44815666D02*
X166305056Y-42565666D01*
X166325056Y-42215666D02*
X158125055Y-42215666D01*
X166325056Y-45815666D02*
X166325056Y-42215666D01*
X158125055Y-42215665D02*
G75*
G03*
X156025056Y-44115667I-100000J-1999999D01*
G01*
D17*
X161125056Y-45415666D02*
G75*
G03*
X158908738Y-47294195I-65001J-2169999D01*
G01*
D10*
X161525056Y-45815666D02*
G75*
G03*
X159308738Y-47694195I-65001J-2169999D01*
G01*
%TO.C,D39*%
X273525232Y-89737576D02*
X273525232Y-91237576D01*
X273525232Y-91237576D02*
X278925232Y-91237576D01*
X275725232Y-89987576D02*
X275725232Y-90987576D01*
X275825232Y-90487576D02*
X276725232Y-89987576D01*
X276725232Y-89987576D02*
X276725232Y-90987576D01*
X276725232Y-90987576D02*
X275825232Y-90487576D01*
X278925232Y-89737576D02*
X273525232Y-89737576D01*
X278925232Y-91237576D02*
X278925232Y-89737576D01*
%TO.C,D55*%
X71118812Y-127837608D02*
X71118812Y-129337608D01*
X71118812Y-129337608D02*
X76518812Y-129337608D01*
X73318812Y-128087608D02*
X73318812Y-129087608D01*
X73418812Y-128587608D02*
X74318812Y-128087608D01*
X74318812Y-128087608D02*
X74318812Y-129087608D01*
X74318812Y-129087608D02*
X73418812Y-128587608D01*
X76518812Y-127837608D02*
X71118812Y-127837608D01*
X76518812Y-129337608D02*
X76518812Y-127837608D01*
%TO.C,SW59*%
X170312648Y-120315730D02*
X170312648Y-121065730D01*
X170312648Y-121065730D02*
X170512648Y-121065730D01*
D12*
X170412648Y-120965730D02*
X170412648Y-120315730D01*
D10*
X170562648Y-119465730D02*
X170562648Y-123915730D01*
X170562648Y-123915730D02*
X173592648Y-123915730D01*
D13*
X170762648Y-123715730D02*
X173212648Y-123715730D01*
D14*
X170912648Y-123415730D02*
X170912648Y-121615731D01*
D15*
X172042648Y-119915730D02*
X172042648Y-122155730D01*
D10*
X175812648Y-122015730D02*
X180612648Y-122015730D01*
D16*
X178812648Y-120215730D02*
X172112648Y-120215730D01*
D17*
X180112648Y-119015730D02*
X180112648Y-121515730D01*
D13*
X180412648Y-121765730D02*
X179112648Y-121715730D01*
D18*
X180462648Y-118615730D02*
X179212648Y-118615730D01*
D10*
X180592648Y-121015730D02*
X180592648Y-118765730D01*
X180612648Y-118415730D02*
X172412647Y-118415730D01*
X180612648Y-122015730D02*
X180612648Y-118415730D01*
X172412647Y-118415729D02*
G75*
G03*
X170312648Y-120315731I-100000J-1999999D01*
G01*
D17*
X175412648Y-121615730D02*
G75*
G03*
X173196330Y-123494259I-65001J-2169999D01*
G01*
D10*
X175812648Y-122015730D02*
G75*
G03*
X173596330Y-123894259I-65001J-2169999D01*
G01*
%TO.C,SW31*%
X113162556Y-82215666D02*
X113162556Y-82965666D01*
X113162556Y-82965666D02*
X113362556Y-82965666D01*
D12*
X113262556Y-82865666D02*
X113262556Y-82215666D01*
D10*
X113412556Y-81365666D02*
X113412556Y-85815666D01*
X113412556Y-85815666D02*
X116442556Y-85815666D01*
D13*
X113612556Y-85615666D02*
X116062556Y-85615666D01*
D14*
X113762556Y-85315666D02*
X113762556Y-83515667D01*
D15*
X114892556Y-81815666D02*
X114892556Y-84055666D01*
D10*
X118662556Y-83915666D02*
X123462556Y-83915666D01*
D16*
X121662556Y-82115666D02*
X114962556Y-82115666D01*
D17*
X122962556Y-80915666D02*
X122962556Y-83415666D01*
D13*
X123262556Y-83665666D02*
X121962556Y-83615666D01*
D18*
X123312556Y-80515666D02*
X122062556Y-80515666D01*
D10*
X123442556Y-82915666D02*
X123442556Y-80665666D01*
X123462556Y-80315666D02*
X115262555Y-80315666D01*
X123462556Y-83915666D02*
X123462556Y-80315666D01*
X115262555Y-80315665D02*
G75*
G03*
X113162556Y-82215667I-100000J-1999999D01*
G01*
D17*
X118262556Y-83515666D02*
G75*
G03*
X116046238Y-85394195I-65001J-2169999D01*
G01*
D10*
X118662556Y-83915666D02*
G75*
G03*
X116446238Y-85794195I-65001J-2169999D01*
G01*
%TO.C,SW62*%
X253656468Y-120315730D02*
X253656468Y-121065730D01*
X253656468Y-121065730D02*
X253856468Y-121065730D01*
D12*
X253756468Y-120965730D02*
X253756468Y-120315730D01*
D10*
X253906468Y-119465730D02*
X253906468Y-123915730D01*
X253906468Y-123915730D02*
X256936468Y-123915730D01*
D13*
X254106468Y-123715730D02*
X256556468Y-123715730D01*
D14*
X254256468Y-123415730D02*
X254256468Y-121615731D01*
D15*
X255386468Y-119915730D02*
X255386468Y-122155730D01*
D10*
X259156468Y-122015730D02*
X263956468Y-122015730D01*
D16*
X262156468Y-120215730D02*
X255456468Y-120215730D01*
D17*
X263456468Y-119015730D02*
X263456468Y-121515730D01*
D13*
X263756468Y-121765730D02*
X262456468Y-121715730D01*
D18*
X263806468Y-118615730D02*
X262556468Y-118615730D01*
D10*
X263936468Y-121015730D02*
X263936468Y-118765730D01*
X263956468Y-118415730D02*
X255756467Y-118415730D01*
X263956468Y-122015730D02*
X263956468Y-118415730D01*
X255756467Y-118415729D02*
G75*
G03*
X253656468Y-120315731I-100000J-1999999D01*
G01*
D17*
X258756468Y-121615730D02*
G75*
G03*
X256540150Y-123494259I-65001J-2169999D01*
G01*
D10*
X259156468Y-122015730D02*
G75*
G03*
X256940150Y-123894259I-65001J-2169999D01*
G01*
%TO.C,D56*%
X94931332Y-127837608D02*
X94931332Y-129337608D01*
X94931332Y-129337608D02*
X100331332Y-129337608D01*
X97131332Y-128087608D02*
X97131332Y-129087608D01*
X97231332Y-128587608D02*
X98131332Y-128087608D01*
X98131332Y-128087608D02*
X98131332Y-129087608D01*
X98131332Y-129087608D02*
X97231332Y-128587608D01*
X100331332Y-127837608D02*
X94931332Y-127837608D01*
X100331332Y-129337608D02*
X100331332Y-127837608D01*
%TO.C,D62*%
X261618972Y-127837608D02*
X261618972Y-129337608D01*
X261618972Y-129337608D02*
X267018972Y-129337608D01*
X263818972Y-128087608D02*
X263818972Y-129087608D01*
X263918972Y-128587608D02*
X264818972Y-128087608D01*
X264818972Y-128087608D02*
X264818972Y-129087608D01*
X264818972Y-129087608D02*
X263918972Y-128587608D01*
X267018972Y-127837608D02*
X261618972Y-127837608D01*
X267018972Y-129337608D02*
X267018972Y-127837608D01*
%TO.C,SW1*%
X72575056Y-53515666D02*
X72575056Y-52765666D01*
X72575056Y-52765666D02*
X72375056Y-52765666D01*
D12*
X72475056Y-52865666D02*
X72475056Y-53515666D01*
D10*
X72325056Y-54365666D02*
X72325056Y-49915666D01*
X72325056Y-49915666D02*
X69295056Y-49915666D01*
D13*
X72125056Y-50115666D02*
X69675056Y-50115666D01*
D14*
X71975056Y-50415666D02*
X71975056Y-52215665D01*
D15*
X70845056Y-53915666D02*
X70845056Y-51675666D01*
D10*
X67075056Y-51815666D02*
X62275056Y-51815666D01*
D16*
X64075056Y-53615666D02*
X70775056Y-53615666D01*
D17*
X62775056Y-54815666D02*
X62775056Y-52315666D01*
D13*
X62475056Y-52065666D02*
X63775056Y-52115666D01*
D18*
X62425056Y-55215666D02*
X63675056Y-55215666D01*
D10*
X62295056Y-52815666D02*
X62295056Y-55065666D01*
X62275056Y-55415666D02*
X70475057Y-55415666D01*
X62275056Y-51815666D02*
X62275056Y-55415666D01*
X70475057Y-55415667D02*
G75*
G03*
X72575056Y-53515665I100000J1999999D01*
G01*
D17*
X67475056Y-52215666D02*
G75*
G03*
X69691374Y-50337137I65001J2169999D01*
G01*
D10*
X67075056Y-51815666D02*
G75*
G03*
X69291374Y-49937137I65001J2169999D01*
G01*
%TO.C,D17*%
X111600096Y-58781300D02*
X111600096Y-60281300D01*
X111600096Y-60281300D02*
X117000096Y-60281300D01*
X113800096Y-59031300D02*
X113800096Y-60031300D01*
X113900096Y-59531300D02*
X114800096Y-59031300D01*
X114800096Y-59031300D02*
X114800096Y-60031300D01*
X114800096Y-60031300D02*
X113900096Y-59531300D01*
X117000096Y-58781300D02*
X111600096Y-58781300D01*
X117000096Y-60281300D02*
X117000096Y-58781300D01*
%TO.C,D10*%
X240187704Y-51637544D02*
X240187704Y-53137544D01*
X240187704Y-53137544D02*
X245587704Y-53137544D01*
X242387704Y-51887544D02*
X242387704Y-52887544D01*
X242487704Y-52387544D02*
X243387704Y-51887544D01*
X243387704Y-51887544D02*
X243387704Y-52887544D01*
X243387704Y-52887544D02*
X242487704Y-52387544D01*
X245587704Y-51637544D02*
X240187704Y-51637544D01*
X245587704Y-53137544D02*
X245587704Y-51637544D01*
%TO.C,D64*%
X306862760Y-127837608D02*
X306862760Y-129337608D01*
X306862760Y-129337608D02*
X312262760Y-129337608D01*
X309062760Y-128087608D02*
X309062760Y-129087608D01*
X309162760Y-128587608D02*
X310062760Y-128087608D01*
X310062760Y-128087608D02*
X310062760Y-129087608D01*
X310062760Y-129087608D02*
X309162760Y-128587608D01*
X312262760Y-127837608D02*
X306862760Y-127837608D01*
X312262760Y-129337608D02*
X312262760Y-127837608D01*
%TO.C,SW18*%
X127450056Y-63165666D02*
X127450056Y-63915666D01*
X127450056Y-63915666D02*
X127650056Y-63915666D01*
D12*
X127550056Y-63815666D02*
X127550056Y-63165666D01*
D10*
X127700056Y-62315666D02*
X127700056Y-66765666D01*
X127700056Y-66765666D02*
X130730056Y-66765666D01*
D13*
X127900056Y-66565666D02*
X130350056Y-66565666D01*
D14*
X128050056Y-66265666D02*
X128050056Y-64465667D01*
D15*
X129180056Y-62765666D02*
X129180056Y-65005666D01*
D10*
X132950056Y-64865666D02*
X137750056Y-64865666D01*
D16*
X135950056Y-63065666D02*
X129250056Y-63065666D01*
D17*
X137250056Y-61865666D02*
X137250056Y-64365666D01*
D13*
X137550056Y-64615666D02*
X136250056Y-64565666D01*
D18*
X137600056Y-61465666D02*
X136350056Y-61465666D01*
D10*
X137730056Y-63865666D02*
X137730056Y-61615666D01*
X137750056Y-61265666D02*
X129550055Y-61265666D01*
X137750056Y-64865666D02*
X137750056Y-61265666D01*
X129550055Y-61265665D02*
G75*
G03*
X127450056Y-63165667I-100000J-1999999D01*
G01*
D17*
X132550056Y-64465666D02*
G75*
G03*
X130333738Y-66344195I-65001J-2169999D01*
G01*
D10*
X132950056Y-64865666D02*
G75*
G03*
X130733738Y-66744195I-65001J-2169999D01*
G01*
%TO.C,SW32*%
X132212556Y-82215666D02*
X132212556Y-82965666D01*
X132212556Y-82965666D02*
X132412556Y-82965666D01*
D12*
X132312556Y-82865666D02*
X132312556Y-82215666D01*
D10*
X132462556Y-81365666D02*
X132462556Y-85815666D01*
X132462556Y-85815666D02*
X135492556Y-85815666D01*
D13*
X132662556Y-85615666D02*
X135112556Y-85615666D01*
D14*
X132812556Y-85315666D02*
X132812556Y-83515667D01*
D15*
X133942556Y-81815666D02*
X133942556Y-84055666D01*
D10*
X137712556Y-83915666D02*
X142512556Y-83915666D01*
D16*
X140712556Y-82115666D02*
X134012556Y-82115666D01*
D17*
X142012556Y-80915666D02*
X142012556Y-83415666D01*
D13*
X142312556Y-83665666D02*
X141012556Y-83615666D01*
D18*
X142362556Y-80515666D02*
X141112556Y-80515666D01*
D10*
X142492556Y-82915666D02*
X142492556Y-80665666D01*
X142512556Y-80315666D02*
X134312555Y-80315666D01*
X142512556Y-83915666D02*
X142512556Y-80315666D01*
X134312555Y-80315665D02*
G75*
G03*
X132212556Y-82215667I-100000J-1999999D01*
G01*
D17*
X137312556Y-83515666D02*
G75*
G03*
X135096238Y-85394195I-65001J-2169999D01*
G01*
D10*
X137712556Y-83915666D02*
G75*
G03*
X135496238Y-85794195I-65001J-2169999D01*
G01*
%TO.C,D4*%
X125887608Y-51637544D02*
X125887608Y-53137544D01*
X125887608Y-53137544D02*
X131287608Y-53137544D01*
X128087608Y-51887544D02*
X128087608Y-52887544D01*
X128187608Y-52387544D02*
X129087608Y-51887544D01*
X129087608Y-51887544D02*
X129087608Y-52887544D01*
X129087608Y-52887544D02*
X128187608Y-52387544D01*
X131287608Y-51637544D02*
X125887608Y-51637544D01*
X131287608Y-53137544D02*
X131287608Y-51637544D01*
%TO.C,SW63*%
X279850240Y-120315730D02*
X279850240Y-121065730D01*
X279850240Y-121065730D02*
X280050240Y-121065730D01*
D12*
X279950240Y-120965730D02*
X279950240Y-120315730D01*
D10*
X280100240Y-119465730D02*
X280100240Y-123915730D01*
X280100240Y-123915730D02*
X283130240Y-123915730D01*
D13*
X280300240Y-123715730D02*
X282750240Y-123715730D01*
D14*
X280450240Y-123415730D02*
X280450240Y-121615731D01*
D15*
X281580240Y-119915730D02*
X281580240Y-122155730D01*
D10*
X285350240Y-122015730D02*
X290150240Y-122015730D01*
D16*
X288350240Y-120215730D02*
X281650240Y-120215730D01*
D17*
X289650240Y-119015730D02*
X289650240Y-121515730D01*
D13*
X289950240Y-121765730D02*
X288650240Y-121715730D01*
D18*
X290000240Y-118615730D02*
X288750240Y-118615730D01*
D10*
X290130240Y-121015730D02*
X290130240Y-118765730D01*
X290150240Y-118415730D02*
X281950239Y-118415730D01*
X290150240Y-122015730D02*
X290150240Y-118415730D01*
X281950239Y-118415729D02*
G75*
G03*
X279850240Y-120315731I-100000J-1999999D01*
G01*
D17*
X284950240Y-121615730D02*
G75*
G03*
X282733922Y-123494259I-65001J-2169999D01*
G01*
D10*
X285350240Y-122015730D02*
G75*
G03*
X283133922Y-123894259I-65001J-2169999D01*
G01*
%TO.C,SW49*%
X213175184Y-101265714D02*
X213175184Y-102015714D01*
X213175184Y-102015714D02*
X213375184Y-102015714D01*
D12*
X213275184Y-101915714D02*
X213275184Y-101265714D01*
D10*
X213425184Y-100415714D02*
X213425184Y-104865714D01*
X213425184Y-104865714D02*
X216455184Y-104865714D01*
D13*
X213625184Y-104665714D02*
X216075184Y-104665714D01*
D14*
X213775184Y-104365714D02*
X213775184Y-102565715D01*
D15*
X214905184Y-100865714D02*
X214905184Y-103105714D01*
D10*
X218675184Y-102965714D02*
X223475184Y-102965714D01*
D16*
X221675184Y-101165714D02*
X214975184Y-101165714D01*
D17*
X222975184Y-99965714D02*
X222975184Y-102465714D01*
D13*
X223275184Y-102715714D02*
X221975184Y-102665714D01*
D18*
X223325184Y-99565714D02*
X222075184Y-99565714D01*
D10*
X223455184Y-101965714D02*
X223455184Y-99715714D01*
X223475184Y-99365714D02*
X215275183Y-99365714D01*
X223475184Y-102965714D02*
X223475184Y-99365714D01*
X215275183Y-99365713D02*
G75*
G03*
X213175184Y-101265715I-100000J-1999999D01*
G01*
D17*
X218275184Y-102565714D02*
G75*
G03*
X216058866Y-104444243I-65001J-2169999D01*
G01*
D10*
X218675184Y-102965714D02*
G75*
G03*
X216458866Y-104844243I-65001J-2169999D01*
G01*
%TO.C,D65*%
X325912776Y-127837608D02*
X325912776Y-129337608D01*
X325912776Y-129337608D02*
X331312776Y-129337608D01*
X328112776Y-128087608D02*
X328112776Y-129087608D01*
X328212776Y-128587608D02*
X329112776Y-128087608D01*
X329112776Y-128087608D02*
X329112776Y-129087608D01*
X329112776Y-129087608D02*
X328212776Y-128587608D01*
X331312776Y-127837608D02*
X325912776Y-127837608D01*
X331312776Y-129337608D02*
X331312776Y-127837608D01*
%TO.C,SW61*%
X229843948Y-120315730D02*
X229843948Y-121065730D01*
X229843948Y-121065730D02*
X230043948Y-121065730D01*
D12*
X229943948Y-120965730D02*
X229943948Y-120315730D01*
D10*
X230093948Y-119465730D02*
X230093948Y-123915730D01*
X230093948Y-123915730D02*
X233123948Y-123915730D01*
D13*
X230293948Y-123715730D02*
X232743948Y-123715730D01*
D14*
X230443948Y-123415730D02*
X230443948Y-121615731D01*
D15*
X231573948Y-119915730D02*
X231573948Y-122155730D01*
D10*
X235343948Y-122015730D02*
X240143948Y-122015730D01*
D16*
X238343948Y-120215730D02*
X231643948Y-120215730D01*
D17*
X239643948Y-119015730D02*
X239643948Y-121515730D01*
D13*
X239943948Y-121765730D02*
X238643948Y-121715730D01*
D18*
X239993948Y-118615730D02*
X238743948Y-118615730D01*
D10*
X240123948Y-121015730D02*
X240123948Y-118765730D01*
X240143948Y-118415730D02*
X231943947Y-118415730D01*
X240143948Y-122015730D02*
X240143948Y-118415730D01*
X231943947Y-118415729D02*
G75*
G03*
X229843948Y-120315731I-100000J-1999999D01*
G01*
D17*
X234943948Y-121615730D02*
G75*
G03*
X232727630Y-123494259I-65001J-2169999D01*
G01*
D10*
X235343948Y-122015730D02*
G75*
G03*
X233127630Y-123894259I-65001J-2169999D01*
G01*
%TO.C,SW45*%
X136975120Y-101265666D02*
X136975120Y-102015666D01*
X136975120Y-102015666D02*
X137175120Y-102015666D01*
D12*
X137075120Y-101915666D02*
X137075120Y-101265666D01*
D10*
X137225120Y-100415666D02*
X137225120Y-104865666D01*
X137225120Y-104865666D02*
X140255120Y-104865666D01*
D13*
X137425120Y-104665666D02*
X139875120Y-104665666D01*
D14*
X137575120Y-104365666D02*
X137575120Y-102565667D01*
D15*
X138705120Y-100865666D02*
X138705120Y-103105666D01*
D10*
X142475120Y-102965666D02*
X147275120Y-102965666D01*
D16*
X145475120Y-101165666D02*
X138775120Y-101165666D01*
D17*
X146775120Y-99965666D02*
X146775120Y-102465666D01*
D13*
X147075120Y-102715666D02*
X145775120Y-102665666D01*
D18*
X147125120Y-99565666D02*
X145875120Y-99565666D01*
D10*
X147255120Y-101965666D02*
X147255120Y-99715666D01*
X147275120Y-99365666D02*
X139075119Y-99365666D01*
X147275120Y-102965666D02*
X147275120Y-99365666D01*
X139075119Y-99365665D02*
G75*
G03*
X136975120Y-101265667I-100000J-1999999D01*
G01*
D17*
X142075120Y-102565666D02*
G75*
G03*
X139858802Y-104444195I-65001J-2169999D01*
G01*
D10*
X142475120Y-102965666D02*
G75*
G03*
X140258802Y-104844195I-65001J-2169999D01*
G01*
%TO.C,D19*%
X149700128Y-58781300D02*
X149700128Y-60281300D01*
X149700128Y-60281300D02*
X155100128Y-60281300D01*
X151900128Y-59031300D02*
X151900128Y-60031300D01*
X152000128Y-59531300D02*
X152900128Y-59031300D01*
X152900128Y-59031300D02*
X152900128Y-60031300D01*
X152900128Y-60031300D02*
X152000128Y-59531300D01*
X155100128Y-58781300D02*
X149700128Y-58781300D01*
X155100128Y-60281300D02*
X155100128Y-58781300D01*
%TO.C,SW24*%
X241750056Y-63165666D02*
X241750056Y-63915666D01*
X241750056Y-63915666D02*
X241950056Y-63915666D01*
D12*
X241850056Y-63815666D02*
X241850056Y-63165666D01*
D10*
X242000056Y-62315666D02*
X242000056Y-66765666D01*
X242000056Y-66765666D02*
X245030056Y-66765666D01*
D13*
X242200056Y-66565666D02*
X244650056Y-66565666D01*
D14*
X242350056Y-66265666D02*
X242350056Y-64465667D01*
D15*
X243480056Y-62765666D02*
X243480056Y-65005666D01*
D10*
X247250056Y-64865666D02*
X252050056Y-64865666D01*
D16*
X250250056Y-63065666D02*
X243550056Y-63065666D01*
D17*
X251550056Y-61865666D02*
X251550056Y-64365666D01*
D13*
X251850056Y-64615666D02*
X250550056Y-64565666D01*
D18*
X251900056Y-61465666D02*
X250650056Y-61465666D01*
D10*
X252030056Y-63865666D02*
X252030056Y-61615666D01*
X252050056Y-61265666D02*
X243850055Y-61265666D01*
X252050056Y-64865666D02*
X252050056Y-61265666D01*
X243850055Y-61265665D02*
G75*
G03*
X241750056Y-63165667I-100000J-1999999D01*
G01*
D17*
X246850056Y-64465666D02*
G75*
G03*
X244633738Y-66344195I-65001J-2169999D01*
G01*
D10*
X247250056Y-64865666D02*
G75*
G03*
X245033738Y-66744195I-65001J-2169999D01*
G01*
%TO.C,SW51*%
X251275216Y-101265666D02*
X251275216Y-102015666D01*
X251275216Y-102015666D02*
X251475216Y-102015666D01*
D12*
X251375216Y-101915666D02*
X251375216Y-101265666D01*
D10*
X251525216Y-100415666D02*
X251525216Y-104865666D01*
X251525216Y-104865666D02*
X254555216Y-104865666D01*
D13*
X251725216Y-104665666D02*
X254175216Y-104665666D01*
D14*
X251875216Y-104365666D02*
X251875216Y-102565667D01*
D15*
X253005216Y-100865666D02*
X253005216Y-103105666D01*
D10*
X256775216Y-102965666D02*
X261575216Y-102965666D01*
D16*
X259775216Y-101165666D02*
X253075216Y-101165666D01*
D17*
X261075216Y-99965666D02*
X261075216Y-102465666D01*
D13*
X261375216Y-102715666D02*
X260075216Y-102665666D01*
D18*
X261425216Y-99565666D02*
X260175216Y-99565666D01*
D10*
X261555216Y-101965666D02*
X261555216Y-99715666D01*
X261575216Y-99365666D02*
X253375215Y-99365666D01*
X261575216Y-102965666D02*
X261575216Y-99365666D01*
X253375215Y-99365665D02*
G75*
G03*
X251275216Y-101265667I-100000J-1999999D01*
G01*
D17*
X256375216Y-102565666D02*
G75*
G03*
X254158898Y-104444195I-65001J-2169999D01*
G01*
D10*
X256775216Y-102965666D02*
G75*
G03*
X254558898Y-104844195I-65001J-2169999D01*
G01*
%TO.C,D63*%
X287812744Y-127837608D02*
X287812744Y-129337608D01*
X287812744Y-129337608D02*
X293212744Y-129337608D01*
X290012744Y-128087608D02*
X290012744Y-129087608D01*
X290112744Y-128587608D02*
X291012744Y-128087608D01*
X291012744Y-128087608D02*
X291012744Y-129087608D01*
X291012744Y-129087608D02*
X290112744Y-128587608D01*
X293212744Y-127837608D02*
X287812744Y-127837608D01*
X293212744Y-129337608D02*
X293212744Y-127837608D01*
%TO.C,D36*%
X216375184Y-89737576D02*
X216375184Y-91237576D01*
X216375184Y-91237576D02*
X221775184Y-91237576D01*
X218575184Y-89987576D02*
X218575184Y-90987576D01*
X218675184Y-90487576D02*
X219575184Y-89987576D01*
X219575184Y-89987576D02*
X219575184Y-90987576D01*
X219575184Y-90987576D02*
X218675184Y-90487576D01*
X221775184Y-89737576D02*
X216375184Y-89737576D01*
X221775184Y-91237576D02*
X221775184Y-89737576D01*
%TO.C,D54*%
X316387768Y-108787592D02*
X316387768Y-110287592D01*
X316387768Y-110287592D02*
X321787768Y-110287592D01*
X318587768Y-109037592D02*
X318587768Y-110037592D01*
X318687768Y-109537592D02*
X319587768Y-109037592D01*
X319587768Y-109037592D02*
X319587768Y-110037592D01*
X319587768Y-110037592D02*
X318687768Y-109537592D01*
X321787768Y-108787592D02*
X316387768Y-108787592D01*
X321787768Y-110287592D02*
X321787768Y-108787592D01*
%TO.C,D46*%
X163987640Y-108787592D02*
X163987640Y-110287592D01*
X163987640Y-110287592D02*
X169387640Y-110287592D01*
X166187640Y-109037592D02*
X166187640Y-110037592D01*
X166287640Y-109537592D02*
X167187640Y-109037592D01*
X167187640Y-109037592D02*
X167187640Y-110037592D01*
X167187640Y-110037592D02*
X166287640Y-109537592D01*
X169387640Y-108787592D02*
X163987640Y-108787592D01*
X169387640Y-110287592D02*
X169387640Y-108787592D01*
%TO.C,SW39*%
X265562556Y-82215666D02*
X265562556Y-82965666D01*
X265562556Y-82965666D02*
X265762556Y-82965666D01*
D12*
X265662556Y-82865666D02*
X265662556Y-82215666D01*
D10*
X265812556Y-81365666D02*
X265812556Y-85815666D01*
X265812556Y-85815666D02*
X268842556Y-85815666D01*
D13*
X266012556Y-85615666D02*
X268462556Y-85615666D01*
D14*
X266162556Y-85315666D02*
X266162556Y-83515667D01*
D15*
X267292556Y-81815666D02*
X267292556Y-84055666D01*
D10*
X271062556Y-83915666D02*
X275862556Y-83915666D01*
D16*
X274062556Y-82115666D02*
X267362556Y-82115666D01*
D17*
X275362556Y-80915666D02*
X275362556Y-83415666D01*
D13*
X275662556Y-83665666D02*
X274362556Y-83615666D01*
D18*
X275712556Y-80515666D02*
X274462556Y-80515666D01*
D10*
X275842556Y-82915666D02*
X275842556Y-80665666D01*
X275862556Y-80315666D02*
X267662555Y-80315666D01*
X275862556Y-83915666D02*
X275862556Y-80315666D01*
X267662555Y-80315665D02*
G75*
G03*
X265562556Y-82215667I-100000J-1999999D01*
G01*
D17*
X270662556Y-83515666D02*
G75*
G03*
X268446238Y-85394195I-65001J-2169999D01*
G01*
D10*
X271062556Y-83915666D02*
G75*
G03*
X268846238Y-85794195I-65001J-2169999D01*
G01*
%TO.C,SW19*%
X146500056Y-63165666D02*
X146500056Y-63915666D01*
X146500056Y-63915666D02*
X146700056Y-63915666D01*
D12*
X146600056Y-63815666D02*
X146600056Y-63165666D01*
D10*
X146750056Y-62315666D02*
X146750056Y-66765666D01*
X146750056Y-66765666D02*
X149780056Y-66765666D01*
D13*
X146950056Y-66565666D02*
X149400056Y-66565666D01*
D14*
X147100056Y-66265666D02*
X147100056Y-64465667D01*
D15*
X148230056Y-62765666D02*
X148230056Y-65005666D01*
D10*
X152000056Y-64865666D02*
X156800056Y-64865666D01*
D16*
X155000056Y-63065666D02*
X148300056Y-63065666D01*
D17*
X156300056Y-61865666D02*
X156300056Y-64365666D01*
D13*
X156600056Y-64615666D02*
X155300056Y-64565666D01*
D18*
X156650056Y-61465666D02*
X155400056Y-61465666D01*
D10*
X156780056Y-63865666D02*
X156780056Y-61615666D01*
X156800056Y-61265666D02*
X148600055Y-61265666D01*
X156800056Y-64865666D02*
X156800056Y-61265666D01*
X148600055Y-61265665D02*
G75*
G03*
X146500056Y-63165667I-100000J-1999999D01*
G01*
D17*
X151600056Y-64465666D02*
G75*
G03*
X149383738Y-66344195I-65001J-2169999D01*
G01*
D10*
X152000056Y-64865666D02*
G75*
G03*
X149783738Y-66744195I-65001J-2169999D01*
G01*
%TO.C,SW36*%
X208412556Y-82215666D02*
X208412556Y-82965666D01*
X208412556Y-82965666D02*
X208612556Y-82965666D01*
D12*
X208512556Y-82865666D02*
X208512556Y-82215666D01*
D10*
X208662556Y-81365666D02*
X208662556Y-85815666D01*
X208662556Y-85815666D02*
X211692556Y-85815666D01*
D13*
X208862556Y-85615666D02*
X211312556Y-85615666D01*
D14*
X209012556Y-85315666D02*
X209012556Y-83515667D01*
D15*
X210142556Y-81815666D02*
X210142556Y-84055666D01*
D10*
X213912556Y-83915666D02*
X218712556Y-83915666D01*
D16*
X216912556Y-82115666D02*
X210212556Y-82115666D01*
D17*
X218212556Y-80915666D02*
X218212556Y-83415666D01*
D13*
X218512556Y-83665666D02*
X217212556Y-83615666D01*
D18*
X218562556Y-80515666D02*
X217312556Y-80515666D01*
D10*
X218692556Y-82915666D02*
X218692556Y-80665666D01*
X218712556Y-80315666D02*
X210512555Y-80315666D01*
X218712556Y-83915666D02*
X218712556Y-80315666D01*
X210512555Y-80315665D02*
G75*
G03*
X208412556Y-82215667I-100000J-1999999D01*
G01*
D17*
X213512556Y-83515666D02*
G75*
G03*
X211296238Y-85394195I-65001J-2169999D01*
G01*
D10*
X213912556Y-83915666D02*
G75*
G03*
X211696238Y-85794195I-65001J-2169999D01*
G01*
%TO.C,D26*%
X283050240Y-58781300D02*
X283050240Y-60281300D01*
X283050240Y-60281300D02*
X288450240Y-60281300D01*
X285250240Y-59031300D02*
X285250240Y-60031300D01*
X285350240Y-59531300D02*
X286250240Y-59031300D01*
X286250240Y-59031300D02*
X286250240Y-60031300D01*
X286250240Y-60031300D02*
X285350240Y-59531300D01*
X288450240Y-58781300D02*
X283050240Y-58781300D01*
X288450240Y-60281300D02*
X288450240Y-58781300D01*
%TO.C,D49*%
X221137688Y-108787592D02*
X221137688Y-110287592D01*
X221137688Y-110287592D02*
X226537688Y-110287592D01*
X223337688Y-109037592D02*
X223337688Y-110037592D01*
X223437688Y-109537592D02*
X224337688Y-109037592D01*
X224337688Y-109037592D02*
X224337688Y-110037592D01*
X224337688Y-110037592D02*
X223437688Y-109537592D01*
X226537688Y-108787592D02*
X221137688Y-108787592D01*
X226537688Y-110287592D02*
X226537688Y-108787592D01*
%TO.C,SW53*%
X294137752Y-101265714D02*
X294137752Y-102015714D01*
X294137752Y-102015714D02*
X294337752Y-102015714D01*
D12*
X294237752Y-101915714D02*
X294237752Y-101265714D01*
D10*
X294387752Y-100415714D02*
X294387752Y-104865714D01*
X294387752Y-104865714D02*
X297417752Y-104865714D01*
D13*
X294587752Y-104665714D02*
X297037752Y-104665714D01*
D14*
X294737752Y-104365714D02*
X294737752Y-102565715D01*
D15*
X295867752Y-100865714D02*
X295867752Y-103105714D01*
D10*
X299637752Y-102965714D02*
X304437752Y-102965714D01*
D16*
X302637752Y-101165714D02*
X295937752Y-101165714D01*
D17*
X303937752Y-99965714D02*
X303937752Y-102465714D01*
D13*
X304237752Y-102715714D02*
X302937752Y-102665714D01*
D18*
X304287752Y-99565714D02*
X303037752Y-99565714D01*
D10*
X304417752Y-101965714D02*
X304417752Y-99715714D01*
X304437752Y-99365714D02*
X296237751Y-99365714D01*
X304437752Y-102965714D02*
X304437752Y-99365714D01*
X296237751Y-99365713D02*
G75*
G03*
X294137752Y-101265715I-100000J-1999999D01*
G01*
D17*
X299237752Y-102565714D02*
G75*
G03*
X297021434Y-104444243I-65001J-2169999D01*
G01*
D10*
X299637752Y-102965714D02*
G75*
G03*
X297421434Y-104844243I-65001J-2169999D01*
G01*
%TO.C,D3*%
X106837592Y-51637544D02*
X106837592Y-53137544D01*
X106837592Y-53137544D02*
X112237592Y-53137544D01*
X109037592Y-51887544D02*
X109037592Y-52887544D01*
X109137592Y-52387544D02*
X110037592Y-51887544D01*
X110037592Y-51887544D02*
X110037592Y-52887544D01*
X110037592Y-52887544D02*
X109137592Y-52387544D01*
X112237592Y-51637544D02*
X106837592Y-51637544D01*
X112237592Y-53137544D02*
X112237592Y-51637544D01*
%TO.C,SW21*%
X184600056Y-63165666D02*
X184600056Y-63915666D01*
X184600056Y-63915666D02*
X184800056Y-63915666D01*
D12*
X184700056Y-63815666D02*
X184700056Y-63165666D01*
D10*
X184850056Y-62315666D02*
X184850056Y-66765666D01*
X184850056Y-66765666D02*
X187880056Y-66765666D01*
D13*
X185050056Y-66565666D02*
X187500056Y-66565666D01*
D14*
X185200056Y-66265666D02*
X185200056Y-64465667D01*
D15*
X186330056Y-62765666D02*
X186330056Y-65005666D01*
D10*
X190100056Y-64865666D02*
X194900056Y-64865666D01*
D16*
X193100056Y-63065666D02*
X186400056Y-63065666D01*
D17*
X194400056Y-61865666D02*
X194400056Y-64365666D01*
D13*
X194700056Y-64615666D02*
X193400056Y-64565666D01*
D18*
X194750056Y-61465666D02*
X193500056Y-61465666D01*
D10*
X194880056Y-63865666D02*
X194880056Y-61615666D01*
X194900056Y-61265666D02*
X186700055Y-61265666D01*
X194900056Y-64865666D02*
X194900056Y-61265666D01*
X186700055Y-61265665D02*
G75*
G03*
X184600056Y-63165667I-100000J-1999999D01*
G01*
D17*
X189700056Y-64465666D02*
G75*
G03*
X187483738Y-66344195I-65001J-2169999D01*
G01*
D10*
X190100056Y-64865666D02*
G75*
G03*
X187883738Y-66744195I-65001J-2169999D01*
G01*
%TO.C,SW11*%
X251275056Y-44115666D02*
X251275056Y-44865666D01*
X251275056Y-44865666D02*
X251475056Y-44865666D01*
D12*
X251375056Y-44765666D02*
X251375056Y-44115666D01*
D10*
X251525056Y-43265666D02*
X251525056Y-47715666D01*
X251525056Y-47715666D02*
X254555056Y-47715666D01*
D13*
X251725056Y-47515666D02*
X254175056Y-47515666D01*
D14*
X251875056Y-47215666D02*
X251875056Y-45415667D01*
D15*
X253005056Y-43715666D02*
X253005056Y-45955666D01*
D10*
X256775056Y-45815666D02*
X261575056Y-45815666D01*
D16*
X259775056Y-44015666D02*
X253075056Y-44015666D01*
D17*
X261075056Y-42815666D02*
X261075056Y-45315666D01*
D13*
X261375056Y-45565666D02*
X260075056Y-45515666D01*
D18*
X261425056Y-42415666D02*
X260175056Y-42415666D01*
D10*
X261555056Y-44815666D02*
X261555056Y-42565666D01*
X261575056Y-42215666D02*
X253375055Y-42215666D01*
X261575056Y-45815666D02*
X261575056Y-42215666D01*
X253375055Y-42215665D02*
G75*
G03*
X251275056Y-44115667I-100000J-1999999D01*
G01*
D17*
X256375056Y-45415666D02*
G75*
G03*
X254158738Y-47294195I-65001J-2169999D01*
G01*
D10*
X256775056Y-45815666D02*
G75*
G03*
X254558738Y-47694195I-65001J-2169999D01*
G01*
%TO.C,SW50*%
X232225200Y-101265714D02*
X232225200Y-102015714D01*
X232225200Y-102015714D02*
X232425200Y-102015714D01*
D12*
X232325200Y-101915714D02*
X232325200Y-101265714D01*
D10*
X232475200Y-100415714D02*
X232475200Y-104865714D01*
X232475200Y-104865714D02*
X235505200Y-104865714D01*
D13*
X232675200Y-104665714D02*
X235125200Y-104665714D01*
D14*
X232825200Y-104365714D02*
X232825200Y-102565715D01*
D15*
X233955200Y-100865714D02*
X233955200Y-103105714D01*
D10*
X237725200Y-102965714D02*
X242525200Y-102965714D01*
D16*
X240725200Y-101165714D02*
X234025200Y-101165714D01*
D17*
X242025200Y-99965714D02*
X242025200Y-102465714D01*
D13*
X242325200Y-102715714D02*
X241025200Y-102665714D01*
D18*
X242375200Y-99565714D02*
X241125200Y-99565714D01*
D10*
X242505200Y-101965714D02*
X242505200Y-99715714D01*
X242525200Y-99365714D02*
X234325199Y-99365714D01*
X242525200Y-102965714D02*
X242525200Y-99365714D01*
X234325199Y-99365713D02*
G75*
G03*
X232225200Y-101265715I-100000J-1999999D01*
G01*
D17*
X237325200Y-102565714D02*
G75*
G03*
X235108882Y-104444243I-65001J-2169999D01*
G01*
D10*
X237725200Y-102965714D02*
G75*
G03*
X235508882Y-104844243I-65001J-2169999D01*
G01*
%TO.C,D32*%
X140175120Y-89737576D02*
X140175120Y-91237576D01*
X140175120Y-91237576D02*
X145575120Y-91237576D01*
X142375120Y-89987576D02*
X142375120Y-90987576D01*
X142475120Y-90487576D02*
X143375120Y-89987576D01*
X143375120Y-89987576D02*
X143375120Y-90987576D01*
X143375120Y-90987576D02*
X142475120Y-90487576D01*
X145575120Y-89737576D02*
X140175120Y-89737576D01*
X145575120Y-91237576D02*
X145575120Y-89737576D01*
%TO.C,D31*%
X121125104Y-89737576D02*
X121125104Y-91237576D01*
X121125104Y-91237576D02*
X126525104Y-91237576D01*
X123325104Y-89987576D02*
X123325104Y-90987576D01*
X123425104Y-90487576D02*
X124325104Y-89987576D01*
X124325104Y-89987576D02*
X124325104Y-90987576D01*
X124325104Y-90987576D02*
X123425104Y-90487576D01*
X126525104Y-89737576D02*
X121125104Y-89737576D01*
X126525104Y-91237576D02*
X126525104Y-89737576D01*
%TO.C,D20*%
X168750144Y-58781300D02*
X168750144Y-60281300D01*
X168750144Y-60281300D02*
X174150144Y-60281300D01*
X170950144Y-59031300D02*
X170950144Y-60031300D01*
X171050144Y-59531300D02*
X171950144Y-59031300D01*
X171950144Y-59031300D02*
X171950144Y-60031300D01*
X171950144Y-60031300D02*
X171050144Y-59531300D01*
X174150144Y-58781300D02*
X168750144Y-58781300D01*
X174150144Y-60281300D02*
X174150144Y-58781300D01*
%TO.C,SW20*%
X165550056Y-63165666D02*
X165550056Y-63915666D01*
X165550056Y-63915666D02*
X165750056Y-63915666D01*
D12*
X165650056Y-63815666D02*
X165650056Y-63165666D01*
D10*
X165800056Y-62315666D02*
X165800056Y-66765666D01*
X165800056Y-66765666D02*
X168830056Y-66765666D01*
D13*
X166000056Y-66565666D02*
X168450056Y-66565666D01*
D14*
X166150056Y-66265666D02*
X166150056Y-64465667D01*
D15*
X167280056Y-62765666D02*
X167280056Y-65005666D01*
D10*
X171050056Y-64865666D02*
X175850056Y-64865666D01*
D16*
X174050056Y-63065666D02*
X167350056Y-63065666D01*
D17*
X175350056Y-61865666D02*
X175350056Y-64365666D01*
D13*
X175650056Y-64615666D02*
X174350056Y-64565666D01*
D18*
X175700056Y-61465666D02*
X174450056Y-61465666D01*
D10*
X175830056Y-63865666D02*
X175830056Y-61615666D01*
X175850056Y-61265666D02*
X167650055Y-61265666D01*
X175850056Y-64865666D02*
X175850056Y-61265666D01*
X167650055Y-61265665D02*
G75*
G03*
X165550056Y-63165667I-100000J-1999999D01*
G01*
D17*
X170650056Y-64465666D02*
G75*
G03*
X168433738Y-66344195I-65001J-2169999D01*
G01*
D10*
X171050056Y-64865666D02*
G75*
G03*
X168833738Y-66744195I-65001J-2169999D01*
G01*
%TO.C,D30*%
X102075088Y-89737576D02*
X102075088Y-91237576D01*
X102075088Y-91237576D02*
X107475088Y-91237576D01*
X104275088Y-89987576D02*
X104275088Y-90987576D01*
X104375088Y-90487576D02*
X105275088Y-89987576D01*
X105275088Y-89987576D02*
X105275088Y-90987576D01*
X105275088Y-90987576D02*
X104375088Y-90487576D01*
X107475088Y-89737576D02*
X102075088Y-89737576D01*
X107475088Y-91237576D02*
X107475088Y-89737576D01*
%TO.C,SW14*%
X317950056Y-44115666D02*
X317950056Y-44865666D01*
X317950056Y-44865666D02*
X318150056Y-44865666D01*
D12*
X318050056Y-44765666D02*
X318050056Y-44115666D01*
D10*
X318200056Y-43265666D02*
X318200056Y-47715666D01*
X318200056Y-47715666D02*
X321230056Y-47715666D01*
D13*
X318400056Y-47515666D02*
X320850056Y-47515666D01*
D14*
X318550056Y-47215666D02*
X318550056Y-45415667D01*
D15*
X319680056Y-43715666D02*
X319680056Y-45955666D01*
D10*
X323450056Y-45815666D02*
X328250056Y-45815666D01*
D16*
X326450056Y-44015666D02*
X319750056Y-44015666D01*
D17*
X327750056Y-42815666D02*
X327750056Y-45315666D01*
D13*
X328050056Y-45565666D02*
X326750056Y-45515666D01*
D18*
X328100056Y-42415666D02*
X326850056Y-42415666D01*
D10*
X328230056Y-44815666D02*
X328230056Y-42565666D01*
X328250056Y-42215666D02*
X320050055Y-42215666D01*
X328250056Y-45815666D02*
X328250056Y-42215666D01*
X320050055Y-42215665D02*
G75*
G03*
X317950056Y-44115667I-100000J-1999999D01*
G01*
D17*
X323050056Y-45415666D02*
G75*
G03*
X320833738Y-47294195I-65001J-2169999D01*
G01*
D10*
X323450056Y-45815666D02*
G75*
G03*
X321233738Y-47694195I-65001J-2169999D01*
G01*
%TO.C,SW47*%
X175075152Y-101265666D02*
X175075152Y-102015666D01*
X175075152Y-102015666D02*
X175275152Y-102015666D01*
D12*
X175175152Y-101915666D02*
X175175152Y-101265666D01*
D10*
X175325152Y-100415666D02*
X175325152Y-104865666D01*
X175325152Y-104865666D02*
X178355152Y-104865666D01*
D13*
X175525152Y-104665666D02*
X177975152Y-104665666D01*
D14*
X175675152Y-104365666D02*
X175675152Y-102565667D01*
D15*
X176805152Y-100865666D02*
X176805152Y-103105666D01*
D10*
X180575152Y-102965666D02*
X185375152Y-102965666D01*
D16*
X183575152Y-101165666D02*
X176875152Y-101165666D01*
D17*
X184875152Y-99965666D02*
X184875152Y-102465666D01*
D13*
X185175152Y-102715666D02*
X183875152Y-102665666D01*
D18*
X185225152Y-99565666D02*
X183975152Y-99565666D01*
D10*
X185355152Y-101965666D02*
X185355152Y-99715666D01*
X185375152Y-99365666D02*
X177175151Y-99365666D01*
X185375152Y-102965666D02*
X185375152Y-99365666D01*
X177175151Y-99365665D02*
G75*
G03*
X175075152Y-101265667I-100000J-1999999D01*
G01*
D17*
X180175152Y-102565666D02*
G75*
G03*
X177958834Y-104444195I-65001J-2169999D01*
G01*
D10*
X180575152Y-102965666D02*
G75*
G03*
X178358834Y-104844195I-65001J-2169999D01*
G01*
%TO.C,D7*%
X183037656Y-51637544D02*
X183037656Y-53137544D01*
X183037656Y-53137544D02*
X188437656Y-53137544D01*
X185237656Y-51887544D02*
X185237656Y-52887544D01*
X185337656Y-52387544D02*
X186237656Y-51887544D01*
X186237656Y-51887544D02*
X186237656Y-52887544D01*
X186237656Y-52887544D02*
X185337656Y-52387544D01*
X188437656Y-51637544D02*
X183037656Y-51637544D01*
X188437656Y-53137544D02*
X188437656Y-51637544D01*
%TO.C,D57*%
X118743852Y-127837608D02*
X118743852Y-129337608D01*
X118743852Y-129337608D02*
X124143852Y-129337608D01*
X120943852Y-128087608D02*
X120943852Y-129087608D01*
X121043852Y-128587608D02*
X121943852Y-128087608D01*
X121943852Y-128087608D02*
X121943852Y-129087608D01*
X121943852Y-129087608D02*
X121043852Y-128587608D01*
X124143852Y-127837608D02*
X118743852Y-127837608D01*
X124143852Y-129337608D02*
X124143852Y-127837608D01*
%TO.C,SW60*%
X203650176Y-120315730D02*
X203650176Y-121065730D01*
X203650176Y-121065730D02*
X203850176Y-121065730D01*
D12*
X203750176Y-120965730D02*
X203750176Y-120315730D01*
D10*
X203900176Y-119465730D02*
X203900176Y-123915730D01*
X203900176Y-123915730D02*
X206930176Y-123915730D01*
D13*
X204100176Y-123715730D02*
X206550176Y-123715730D01*
D14*
X204250176Y-123415730D02*
X204250176Y-121615731D01*
D15*
X205380176Y-119915730D02*
X205380176Y-122155730D01*
D10*
X209150176Y-122015730D02*
X213950176Y-122015730D01*
D16*
X212150176Y-120215730D02*
X205450176Y-120215730D01*
D17*
X213450176Y-119015730D02*
X213450176Y-121515730D01*
D13*
X213750176Y-121765730D02*
X212450176Y-121715730D01*
D18*
X213800176Y-118615730D02*
X212550176Y-118615730D01*
D10*
X213930176Y-121015730D02*
X213930176Y-118765730D01*
X213950176Y-118415730D02*
X205750175Y-118415730D01*
X213950176Y-122015730D02*
X213950176Y-118415730D01*
X205750175Y-118415729D02*
G75*
G03*
X203650176Y-120315731I-100000J-1999999D01*
G01*
D17*
X208750176Y-121615730D02*
G75*
G03*
X206533858Y-123494259I-65001J-2169999D01*
G01*
D10*
X209150176Y-122015730D02*
G75*
G03*
X206933858Y-123894259I-65001J-2169999D01*
G01*
%TO.C,SW41*%
X315568806Y-82215666D02*
X315568806Y-82965666D01*
X315568806Y-82965666D02*
X315768806Y-82965666D01*
D12*
X315668806Y-82865666D02*
X315668806Y-82215666D01*
D10*
X315818806Y-81365666D02*
X315818806Y-85815666D01*
X315818806Y-85815666D02*
X318848806Y-85815666D01*
D13*
X316018806Y-85615666D02*
X318468806Y-85615666D01*
D14*
X316168806Y-85315666D02*
X316168806Y-83515667D01*
D15*
X317298806Y-81815666D02*
X317298806Y-84055666D01*
D10*
X321068806Y-83915666D02*
X325868806Y-83915666D01*
D16*
X324068806Y-82115666D02*
X317368806Y-82115666D01*
D17*
X325368806Y-80915666D02*
X325368806Y-83415666D01*
D13*
X325668806Y-83665666D02*
X324368806Y-83615666D01*
D18*
X325718806Y-80515666D02*
X324468806Y-80515666D01*
D10*
X325848806Y-82915666D02*
X325848806Y-80665666D01*
X325868806Y-80315666D02*
X317668805Y-80315666D01*
X325868806Y-83915666D02*
X325868806Y-80315666D01*
X317668805Y-80315665D02*
G75*
G03*
X315568806Y-82215667I-100000J-1999999D01*
G01*
D17*
X320668806Y-83515666D02*
G75*
G03*
X318452488Y-85394195I-65001J-2169999D01*
G01*
D10*
X321068806Y-83915666D02*
G75*
G03*
X318852488Y-85794195I-65001J-2169999D01*
G01*
%TO.C,D1*%
X87787576Y-44493788D02*
X87787576Y-45993788D01*
X87787576Y-45993788D02*
X93187576Y-45993788D01*
X89987576Y-44743788D02*
X89987576Y-45743788D01*
X90087576Y-45243788D02*
X90987576Y-44743788D01*
X90987576Y-44743788D02*
X90987576Y-45743788D01*
X90987576Y-45743788D02*
X90087576Y-45243788D01*
X93187576Y-44493788D02*
X87787576Y-44493788D01*
X93187576Y-45993788D02*
X93187576Y-44493788D01*
%TO.C,SW25*%
X260800056Y-63165666D02*
X260800056Y-63915666D01*
X260800056Y-63915666D02*
X261000056Y-63915666D01*
D12*
X260900056Y-63815666D02*
X260900056Y-63165666D01*
D10*
X261050056Y-62315666D02*
X261050056Y-66765666D01*
X261050056Y-66765666D02*
X264080056Y-66765666D01*
D13*
X261250056Y-66565666D02*
X263700056Y-66565666D01*
D14*
X261400056Y-66265666D02*
X261400056Y-64465667D01*
D15*
X262530056Y-62765666D02*
X262530056Y-65005666D01*
D10*
X266300056Y-64865666D02*
X271100056Y-64865666D01*
D16*
X269300056Y-63065666D02*
X262600056Y-63065666D01*
D17*
X270600056Y-61865666D02*
X270600056Y-64365666D01*
D13*
X270900056Y-64615666D02*
X269600056Y-64565666D01*
D18*
X270950056Y-61465666D02*
X269700056Y-61465666D01*
D10*
X271080056Y-63865666D02*
X271080056Y-61615666D01*
X271100056Y-61265666D02*
X262900055Y-61265666D01*
X271100056Y-64865666D02*
X271100056Y-61265666D01*
X262900055Y-61265665D02*
G75*
G03*
X260800056Y-63165667I-100000J-1999999D01*
G01*
D17*
X265900056Y-64465666D02*
G75*
G03*
X263683738Y-66344195I-65001J-2169999D01*
G01*
D10*
X266300056Y-64865666D02*
G75*
G03*
X264083738Y-66744195I-65001J-2169999D01*
G01*
%TO.C,D47*%
X183037656Y-108787592D02*
X183037656Y-110287592D01*
X183037656Y-110287592D02*
X188437656Y-110287592D01*
X185237656Y-109037592D02*
X185237656Y-110037592D01*
X185337656Y-109537592D02*
X186237656Y-109037592D01*
X186237656Y-109037592D02*
X186237656Y-110037592D01*
X186237656Y-110037592D02*
X185337656Y-109537592D01*
X188437656Y-108787592D02*
X183037656Y-108787592D01*
X188437656Y-110287592D02*
X188437656Y-108787592D01*
%TO.C,D61*%
X237806452Y-127837608D02*
X237806452Y-129337608D01*
X237806452Y-129337608D02*
X243206452Y-129337608D01*
X240006452Y-128087608D02*
X240006452Y-129087608D01*
X240106452Y-128587608D02*
X241006452Y-128087608D01*
X241006452Y-128087608D02*
X241006452Y-129087608D01*
X241006452Y-129087608D02*
X240106452Y-128587608D01*
X243206452Y-127837608D02*
X237806452Y-127837608D01*
X243206452Y-129337608D02*
X243206452Y-127837608D01*
%TO.C,D52*%
X278287736Y-108787592D02*
X278287736Y-110287592D01*
X278287736Y-110287592D02*
X283687736Y-110287592D01*
X280487736Y-109037592D02*
X280487736Y-110037592D01*
X280587736Y-109537592D02*
X281487736Y-109037592D01*
X281487736Y-109037592D02*
X281487736Y-110037592D01*
X281487736Y-110037592D02*
X280587736Y-109537592D01*
X283687736Y-108787592D02*
X278287736Y-108787592D01*
X283687736Y-110287592D02*
X283687736Y-108787592D01*
%TO.C,SW40*%
X284612556Y-82215666D02*
X284612556Y-82965666D01*
X284612556Y-82965666D02*
X284812556Y-82965666D01*
D12*
X284712556Y-82865666D02*
X284712556Y-82215666D01*
D10*
X284862556Y-81365666D02*
X284862556Y-85815666D01*
X284862556Y-85815666D02*
X287892556Y-85815666D01*
D13*
X285062556Y-85615666D02*
X287512556Y-85615666D01*
D14*
X285212556Y-85315666D02*
X285212556Y-83515667D01*
D15*
X286342556Y-81815666D02*
X286342556Y-84055666D01*
D10*
X290112556Y-83915666D02*
X294912556Y-83915666D01*
D16*
X293112556Y-82115666D02*
X286412556Y-82115666D01*
D17*
X294412556Y-80915666D02*
X294412556Y-83415666D01*
D13*
X294712556Y-83665666D02*
X293412556Y-83615666D01*
D18*
X294762556Y-80515666D02*
X293512556Y-80515666D01*
D10*
X294892556Y-82915666D02*
X294892556Y-80665666D01*
X294912556Y-80315666D02*
X286712555Y-80315666D01*
X294912556Y-83915666D02*
X294912556Y-80315666D01*
X286712555Y-80315665D02*
G75*
G03*
X284612556Y-82215667I-100000J-1999999D01*
G01*
D17*
X289712556Y-83515666D02*
G75*
G03*
X287496238Y-85394195I-65001J-2169999D01*
G01*
D10*
X290112556Y-83915666D02*
G75*
G03*
X287896238Y-85794195I-65001J-2169999D01*
G01*
%TO.C,D15*%
X68737560Y-58781300D02*
X68737560Y-60281300D01*
X68737560Y-60281300D02*
X74137560Y-60281300D01*
X70937560Y-59031300D02*
X70937560Y-60031300D01*
X71037560Y-59531300D02*
X71937560Y-59031300D01*
X71937560Y-59031300D02*
X71937560Y-60031300D01*
X71937560Y-60031300D02*
X71037560Y-59531300D01*
X74137560Y-58781300D02*
X68737560Y-58781300D01*
X74137560Y-60281300D02*
X74137560Y-58781300D01*
%TO.C,D11*%
X259237720Y-51637544D02*
X259237720Y-53137544D01*
X259237720Y-53137544D02*
X264637720Y-53137544D01*
X261437720Y-51887544D02*
X261437720Y-52887544D01*
X261537720Y-52387544D02*
X262437720Y-51887544D01*
X262437720Y-51887544D02*
X262437720Y-52887544D01*
X262437720Y-52887544D02*
X261537720Y-52387544D01*
X264637720Y-51637544D02*
X259237720Y-51637544D01*
X264637720Y-53137544D02*
X264637720Y-51637544D01*
%TO.C,D37*%
X235425200Y-89737576D02*
X235425200Y-91237576D01*
X235425200Y-91237576D02*
X240825200Y-91237576D01*
X237625200Y-89987576D02*
X237625200Y-90987576D01*
X237725200Y-90487576D02*
X238625200Y-89987576D01*
X238625200Y-89987576D02*
X238625200Y-90987576D01*
X238625200Y-90987576D02*
X237725200Y-90487576D01*
X240825200Y-89737576D02*
X235425200Y-89737576D01*
X240825200Y-91237576D02*
X240825200Y-89737576D01*
%TO.C,SW46*%
X156025136Y-101265714D02*
X156025136Y-102015714D01*
X156025136Y-102015714D02*
X156225136Y-102015714D01*
D12*
X156125136Y-101915714D02*
X156125136Y-101265714D01*
D10*
X156275136Y-100415714D02*
X156275136Y-104865714D01*
X156275136Y-104865714D02*
X159305136Y-104865714D01*
D13*
X156475136Y-104665714D02*
X158925136Y-104665714D01*
D14*
X156625136Y-104365714D02*
X156625136Y-102565715D01*
D15*
X157755136Y-100865714D02*
X157755136Y-103105714D01*
D10*
X161525136Y-102965714D02*
X166325136Y-102965714D01*
D16*
X164525136Y-101165714D02*
X157825136Y-101165714D01*
D17*
X165825136Y-99965714D02*
X165825136Y-102465714D01*
D13*
X166125136Y-102715714D02*
X164825136Y-102665714D01*
D18*
X166175136Y-99565714D02*
X164925136Y-99565714D01*
D10*
X166305136Y-101965714D02*
X166305136Y-99715714D01*
X166325136Y-99365714D02*
X158125135Y-99365714D01*
X166325136Y-102965714D02*
X166325136Y-99365714D01*
X158125135Y-99365713D02*
G75*
G03*
X156025136Y-101265715I-100000J-1999999D01*
G01*
D17*
X161125136Y-102565714D02*
G75*
G03*
X158908818Y-104444243I-65001J-2169999D01*
G01*
D10*
X161525136Y-102965714D02*
G75*
G03*
X159308818Y-104844243I-65001J-2169999D01*
G01*
%TO.C,D45*%
X144937624Y-108787592D02*
X144937624Y-110287592D01*
X144937624Y-110287592D02*
X150337624Y-110287592D01*
X147137624Y-109037592D02*
X147137624Y-110037592D01*
X147237624Y-109537592D02*
X148137624Y-109037592D01*
X148137624Y-109037592D02*
X148137624Y-110037592D01*
X148137624Y-110037592D02*
X147237624Y-109537592D01*
X150337624Y-108787592D02*
X144937624Y-108787592D01*
X150337624Y-110287592D02*
X150337624Y-108787592D01*
%TO.C,D58*%
X144937686Y-127837672D02*
X144937686Y-129337672D01*
X144937686Y-129337672D02*
X150337686Y-129337672D01*
X147137686Y-128087672D02*
X147137686Y-129087672D01*
X147237686Y-128587672D02*
X148137686Y-128087672D01*
X148137686Y-128087672D02*
X148137686Y-129087672D01*
X148137686Y-129087672D02*
X147237686Y-128587672D01*
X150337686Y-127837672D02*
X144937686Y-127837672D01*
X150337686Y-129337672D02*
X150337686Y-127837672D01*
%TO.C,SW44*%
X117925104Y-101265714D02*
X117925104Y-102015714D01*
X117925104Y-102015714D02*
X118125104Y-102015714D01*
D12*
X118025104Y-101915714D02*
X118025104Y-101265714D01*
D10*
X118175104Y-100415714D02*
X118175104Y-104865714D01*
X118175104Y-104865714D02*
X121205104Y-104865714D01*
D13*
X118375104Y-104665714D02*
X120825104Y-104665714D01*
D14*
X118525104Y-104365714D02*
X118525104Y-102565715D01*
D15*
X119655104Y-100865714D02*
X119655104Y-103105714D01*
D10*
X123425104Y-102965714D02*
X128225104Y-102965714D01*
D16*
X126425104Y-101165714D02*
X119725104Y-101165714D01*
D17*
X127725104Y-99965714D02*
X127725104Y-102465714D01*
D13*
X128025104Y-102715714D02*
X126725104Y-102665714D01*
D18*
X128075104Y-99565714D02*
X126825104Y-99565714D01*
D10*
X128205104Y-101965714D02*
X128205104Y-99715714D01*
X128225104Y-99365714D02*
X120025103Y-99365714D01*
X128225104Y-102965714D02*
X128225104Y-99365714D01*
X120025103Y-99365713D02*
G75*
G03*
X117925104Y-101265715I-100000J-1999999D01*
G01*
D17*
X123025104Y-102565714D02*
G75*
G03*
X120808786Y-104444243I-65001J-2169999D01*
G01*
D10*
X123425104Y-102965714D02*
G75*
G03*
X121208786Y-104844243I-65001J-2169999D01*
G01*
%TO.C,D48*%
X202087672Y-108787592D02*
X202087672Y-110287592D01*
X202087672Y-110287592D02*
X207487672Y-110287592D01*
X204287672Y-109037592D02*
X204287672Y-110037592D01*
X204387672Y-109537592D02*
X205287672Y-109037592D01*
X205287672Y-109037592D02*
X205287672Y-110037592D01*
X205287672Y-110037592D02*
X204387672Y-109537592D01*
X207487672Y-108787592D02*
X202087672Y-108787592D01*
X207487672Y-110287592D02*
X207487672Y-108787592D01*
%TO.C,SW13*%
X289375056Y-44115666D02*
X289375056Y-44865666D01*
X289375056Y-44865666D02*
X289575056Y-44865666D01*
D12*
X289475056Y-44765666D02*
X289475056Y-44115666D01*
D10*
X289625056Y-43265666D02*
X289625056Y-47715666D01*
X289625056Y-47715666D02*
X292655056Y-47715666D01*
D13*
X289825056Y-47515666D02*
X292275056Y-47515666D01*
D14*
X289975056Y-47215666D02*
X289975056Y-45415667D01*
D15*
X291105056Y-43715666D02*
X291105056Y-45955666D01*
D10*
X294875056Y-45815666D02*
X299675056Y-45815666D01*
D16*
X297875056Y-44015666D02*
X291175056Y-44015666D01*
D17*
X299175056Y-42815666D02*
X299175056Y-45315666D01*
D13*
X299475056Y-45565666D02*
X298175056Y-45515666D01*
D18*
X299525056Y-42415666D02*
X298275056Y-42415666D01*
D10*
X299655056Y-44815666D02*
X299655056Y-42565666D01*
X299675056Y-42215666D02*
X291475055Y-42215666D01*
X299675056Y-45815666D02*
X299675056Y-42215666D01*
X291475055Y-42215665D02*
G75*
G03*
X289375056Y-44115667I-100000J-1999999D01*
G01*
D17*
X294475056Y-45415666D02*
G75*
G03*
X292258738Y-47294195I-65001J-2169999D01*
G01*
D10*
X294875056Y-45815666D02*
G75*
G03*
X292658738Y-47694195I-65001J-2169999D01*
G01*
%TO.C,SW30*%
X94112556Y-82215698D02*
X94112556Y-82965698D01*
X94112556Y-82965698D02*
X94312556Y-82965698D01*
D12*
X94212556Y-82865698D02*
X94212556Y-82215698D01*
D10*
X94362556Y-81365698D02*
X94362556Y-85815698D01*
X94362556Y-85815698D02*
X97392556Y-85815698D01*
D13*
X94562556Y-85615698D02*
X97012556Y-85615698D01*
D14*
X94712556Y-85315698D02*
X94712556Y-83515699D01*
D15*
X95842556Y-81815698D02*
X95842556Y-84055698D01*
D10*
X99612556Y-83915698D02*
X104412556Y-83915698D01*
D16*
X102612556Y-82115698D02*
X95912556Y-82115698D01*
D17*
X103912556Y-80915698D02*
X103912556Y-83415698D01*
D13*
X104212556Y-83665698D02*
X102912556Y-83615698D01*
D18*
X104262556Y-80515698D02*
X103012556Y-80515698D01*
D10*
X104392556Y-82915698D02*
X104392556Y-80665698D01*
X104412556Y-80315698D02*
X96212555Y-80315698D01*
X104412556Y-83915698D02*
X104412556Y-80315698D01*
X96212555Y-80315697D02*
G75*
G03*
X94112556Y-82215699I-100000J-1999999D01*
G01*
D17*
X99212556Y-83515698D02*
G75*
G03*
X96996238Y-85394227I-65001J-2169999D01*
G01*
D10*
X99612556Y-83915698D02*
G75*
G03*
X97396238Y-85794227I-65001J-2169999D01*
G01*
%TO.C,D22*%
X206850176Y-58781300D02*
X206850176Y-60281300D01*
X206850176Y-60281300D02*
X212250176Y-60281300D01*
X209050176Y-59031300D02*
X209050176Y-60031300D01*
X209150176Y-59531300D02*
X210050176Y-59031300D01*
X210050176Y-59031300D02*
X210050176Y-60031300D01*
X210050176Y-60031300D02*
X209150176Y-59531300D01*
X212250176Y-58781300D02*
X206850176Y-58781300D01*
X212250176Y-60281300D02*
X212250176Y-58781300D01*
%TO.C,SW17*%
X108400056Y-63165666D02*
X108400056Y-63915666D01*
X108400056Y-63915666D02*
X108600056Y-63915666D01*
D12*
X108500056Y-63815666D02*
X108500056Y-63165666D01*
D10*
X108650056Y-62315666D02*
X108650056Y-66765666D01*
X108650056Y-66765666D02*
X111680056Y-66765666D01*
D13*
X108850056Y-66565666D02*
X111300056Y-66565666D01*
D14*
X109000056Y-66265666D02*
X109000056Y-64465667D01*
D15*
X110130056Y-62765666D02*
X110130056Y-65005666D01*
D10*
X113900056Y-64865666D02*
X118700056Y-64865666D01*
D16*
X116900056Y-63065666D02*
X110200056Y-63065666D01*
D17*
X118200056Y-61865666D02*
X118200056Y-64365666D01*
D13*
X118500056Y-64615666D02*
X117200056Y-64565666D01*
D18*
X118550056Y-61465666D02*
X117300056Y-61465666D01*
D10*
X118680056Y-63865666D02*
X118680056Y-61615666D01*
X118700056Y-61265666D02*
X110500055Y-61265666D01*
X118700056Y-64865666D02*
X118700056Y-61265666D01*
X110500055Y-61265665D02*
G75*
G03*
X108400056Y-63165667I-100000J-1999999D01*
G01*
D17*
X113500056Y-64465666D02*
G75*
G03*
X111283738Y-66344195I-65001J-2169999D01*
G01*
D10*
X113900056Y-64865666D02*
G75*
G03*
X111683738Y-66744195I-65001J-2169999D01*
G01*
%TO.C,D44*%
X125887608Y-108787592D02*
X125887608Y-110287592D01*
X125887608Y-110287592D02*
X131287608Y-110287592D01*
X128087608Y-109037592D02*
X128087608Y-110037592D01*
X128187608Y-109537592D02*
X129087608Y-109037592D01*
X129087608Y-109037592D02*
X129087608Y-110037592D01*
X129087608Y-110037592D02*
X128187608Y-109537592D01*
X131287608Y-108787592D02*
X125887608Y-108787592D01*
X131287608Y-110287592D02*
X131287608Y-108787592D01*
%TO.C,D2*%
X94931332Y-53565666D02*
X94931332Y-55065666D01*
X94931332Y-55065666D02*
X100331332Y-55065666D01*
X97131332Y-53815666D02*
X97131332Y-54815666D01*
X97231332Y-54315666D02*
X98131332Y-53815666D01*
X98131332Y-53815666D02*
X98131332Y-54815666D01*
X98131332Y-54815666D02*
X97231332Y-54315666D01*
X100331332Y-53565666D02*
X94931332Y-53565666D01*
X100331332Y-55065666D02*
X100331332Y-53565666D01*
%TO.C,D23*%
X225900192Y-58781300D02*
X225900192Y-60281300D01*
X225900192Y-60281300D02*
X231300192Y-60281300D01*
X228100192Y-59031300D02*
X228100192Y-60031300D01*
X228200192Y-59531300D02*
X229100192Y-59031300D01*
X229100192Y-59031300D02*
X229100192Y-60031300D01*
X229100192Y-60031300D02*
X228200192Y-59531300D01*
X231300192Y-58781300D02*
X225900192Y-58781300D01*
X231300192Y-60281300D02*
X231300192Y-58781300D01*
%TO.C,SW54*%
X320331306Y-101265666D02*
X320331306Y-102015666D01*
X320331306Y-102015666D02*
X320531306Y-102015666D01*
D12*
X320431306Y-101915666D02*
X320431306Y-101265666D01*
D10*
X320581306Y-100415666D02*
X320581306Y-104865666D01*
X320581306Y-104865666D02*
X323611306Y-104865666D01*
D13*
X320781306Y-104665666D02*
X323231306Y-104665666D01*
D14*
X320931306Y-104365666D02*
X320931306Y-102565667D01*
D15*
X322061306Y-100865666D02*
X322061306Y-103105666D01*
D10*
X325831306Y-102965666D02*
X330631306Y-102965666D01*
D16*
X328831306Y-101165666D02*
X322131306Y-101165666D01*
D17*
X330131306Y-99965666D02*
X330131306Y-102465666D01*
D13*
X330431306Y-102715666D02*
X329131306Y-102665666D01*
D18*
X330481306Y-99565666D02*
X329231306Y-99565666D01*
D10*
X330611306Y-101965666D02*
X330611306Y-99715666D01*
X330631306Y-99365666D02*
X322431305Y-99365666D01*
X330631306Y-102965666D02*
X330631306Y-99365666D01*
X322431305Y-99365665D02*
G75*
G03*
X320331306Y-101265667I-100000J-1999999D01*
G01*
D17*
X325431306Y-102565666D02*
G75*
G03*
X323214988Y-104444195I-65001J-2169999D01*
G01*
D10*
X325831306Y-102965666D02*
G75*
G03*
X323614988Y-104844195I-65001J-2169999D01*
G01*
%TO.C,SW2*%
X91625056Y-53515666D02*
X91625056Y-52765666D01*
X91625056Y-52765666D02*
X91425056Y-52765666D01*
D12*
X91525056Y-52865666D02*
X91525056Y-53515666D01*
D10*
X91375056Y-54365666D02*
X91375056Y-49915666D01*
X91375056Y-49915666D02*
X88345056Y-49915666D01*
D13*
X91175056Y-50115666D02*
X88725056Y-50115666D01*
D14*
X91025056Y-50415666D02*
X91025056Y-52215665D01*
D15*
X89895056Y-53915666D02*
X89895056Y-51675666D01*
D10*
X86125056Y-51815666D02*
X81325056Y-51815666D01*
D16*
X83125056Y-53615666D02*
X89825056Y-53615666D01*
D17*
X81825056Y-54815666D02*
X81825056Y-52315666D01*
D13*
X81525056Y-52065666D02*
X82825056Y-52115666D01*
D18*
X81475056Y-55215666D02*
X82725056Y-55215666D01*
D10*
X81345056Y-52815666D02*
X81345056Y-55065666D01*
X81325056Y-55415666D02*
X89525057Y-55415666D01*
X81325056Y-51815666D02*
X81325056Y-55415666D01*
X89525057Y-55415667D02*
G75*
G03*
X91625056Y-53515665I100000J1999999D01*
G01*
D17*
X86525056Y-52215666D02*
G75*
G03*
X88741374Y-50337137I65001J2169999D01*
G01*
D10*
X86125056Y-51815666D02*
G75*
G03*
X88341374Y-49937137I65001J2169999D01*
G01*
%TO.C,SW29*%
X67918806Y-82215698D02*
X67918806Y-82965698D01*
X67918806Y-82965698D02*
X68118806Y-82965698D01*
D12*
X68018806Y-82865698D02*
X68018806Y-82215698D01*
D10*
X68168806Y-81365698D02*
X68168806Y-85815698D01*
X68168806Y-85815698D02*
X71198806Y-85815698D01*
D13*
X68368806Y-85615698D02*
X70818806Y-85615698D01*
D14*
X68518806Y-85315698D02*
X68518806Y-83515699D01*
D15*
X69648806Y-81815698D02*
X69648806Y-84055698D01*
D10*
X73418806Y-83915698D02*
X78218806Y-83915698D01*
D16*
X76418806Y-82115698D02*
X69718806Y-82115698D01*
D17*
X77718806Y-80915698D02*
X77718806Y-83415698D01*
D13*
X78018806Y-83665698D02*
X76718806Y-83615698D01*
D18*
X78068806Y-80515698D02*
X76818806Y-80515698D01*
D10*
X78198806Y-82915698D02*
X78198806Y-80665698D01*
X78218806Y-80315698D02*
X70018805Y-80315698D01*
X78218806Y-83915698D02*
X78218806Y-80315698D01*
X70018805Y-80315697D02*
G75*
G03*
X67918806Y-82215699I-100000J-1999999D01*
G01*
D17*
X73018806Y-83515698D02*
G75*
G03*
X70802488Y-85394227I-65001J-2169999D01*
G01*
D10*
X73418806Y-83915698D02*
G75*
G03*
X71202488Y-85794227I-65001J-2169999D01*
G01*
%TO.C,D42*%
X78262568Y-108787592D02*
X78262568Y-110287592D01*
X78262568Y-110287592D02*
X83662568Y-110287592D01*
X80462568Y-109037592D02*
X80462568Y-110037592D01*
X80562568Y-109537592D02*
X81462568Y-109037592D01*
X81462568Y-109037592D02*
X81462568Y-110037592D01*
X81462568Y-110037592D02*
X80562568Y-109537592D01*
X83662568Y-108787592D02*
X78262568Y-108787592D01*
X83662568Y-110287592D02*
X83662568Y-108787592D01*
%TO.C,D14*%
X314006516Y-51637544D02*
X314006516Y-53137544D01*
X314006516Y-53137544D02*
X319406516Y-53137544D01*
X316206516Y-51887544D02*
X316206516Y-52887544D01*
X316306516Y-52387544D02*
X317206516Y-51887544D01*
X317206516Y-51887544D02*
X317206516Y-52887544D01*
X317206516Y-52887544D02*
X316306516Y-52387544D01*
X319406516Y-51637544D02*
X314006516Y-51637544D01*
X319406516Y-53137544D02*
X319406516Y-51637544D01*
%TO.C,D35*%
X192562664Y-94500080D02*
X192562664Y-96000080D01*
X192562664Y-96000080D02*
X197962664Y-96000080D01*
X194762664Y-94750080D02*
X194762664Y-95750080D01*
X194862664Y-95250080D02*
X195762664Y-94750080D01*
X195762664Y-94750080D02*
X195762664Y-95750080D01*
X195762664Y-95750080D02*
X194862664Y-95250080D01*
X197962664Y-94500080D02*
X192562664Y-94500080D01*
X197962664Y-96000080D02*
X197962664Y-94500080D01*
%TO.C,SW65*%
X317950272Y-120315666D02*
X317950272Y-121065666D01*
X317950272Y-121065666D02*
X318150272Y-121065666D01*
D12*
X318050272Y-120965666D02*
X318050272Y-120315666D01*
D10*
X318200272Y-119465666D02*
X318200272Y-123915666D01*
X318200272Y-123915666D02*
X321230272Y-123915666D01*
D13*
X318400272Y-123715666D02*
X320850272Y-123715666D01*
D14*
X318550272Y-123415666D02*
X318550272Y-121615667D01*
D15*
X319680272Y-119915666D02*
X319680272Y-122155666D01*
D10*
X323450272Y-122015666D02*
X328250272Y-122015666D01*
D16*
X326450272Y-120215666D02*
X319750272Y-120215666D01*
D17*
X327750272Y-119015666D02*
X327750272Y-121515666D01*
D13*
X328050272Y-121765666D02*
X326750272Y-121715666D01*
D18*
X328100272Y-118615666D02*
X326850272Y-118615666D01*
D10*
X328230272Y-121015666D02*
X328230272Y-118765666D01*
X328250272Y-118415666D02*
X320050271Y-118415666D01*
X328250272Y-122015666D02*
X328250272Y-118415666D01*
X320050271Y-118415665D02*
G75*
G03*
X317950272Y-120315667I-100000J-1999999D01*
G01*
D17*
X323050272Y-121615666D02*
G75*
G03*
X320833954Y-123494195I-65001J-2169999D01*
G01*
D10*
X323450272Y-122015666D02*
G75*
G03*
X321233954Y-123894195I-65001J-2169999D01*
G01*
%TO.C,D27*%
X302100256Y-58781300D02*
X302100256Y-60281300D01*
X302100256Y-60281300D02*
X307500256Y-60281300D01*
X304300256Y-59031300D02*
X304300256Y-60031300D01*
X304400256Y-59531300D02*
X305300256Y-59031300D01*
X305300256Y-59031300D02*
X305300256Y-60031300D01*
X305300256Y-60031300D02*
X304400256Y-59531300D01*
X307500256Y-58781300D02*
X302100256Y-58781300D01*
X307500256Y-60281300D02*
X307500256Y-58781300D01*
%TO.C,SW52*%
X270325232Y-101265714D02*
X270325232Y-102015714D01*
X270325232Y-102015714D02*
X270525232Y-102015714D01*
D12*
X270425232Y-101915714D02*
X270425232Y-101265714D01*
D10*
X270575232Y-100415714D02*
X270575232Y-104865714D01*
X270575232Y-104865714D02*
X273605232Y-104865714D01*
D13*
X270775232Y-104665714D02*
X273225232Y-104665714D01*
D14*
X270925232Y-104365714D02*
X270925232Y-102565715D01*
D15*
X272055232Y-100865714D02*
X272055232Y-103105714D01*
D10*
X275825232Y-102965714D02*
X280625232Y-102965714D01*
D16*
X278825232Y-101165714D02*
X272125232Y-101165714D01*
D17*
X280125232Y-99965714D02*
X280125232Y-102465714D01*
D13*
X280425232Y-102715714D02*
X279125232Y-102665714D01*
D18*
X280475232Y-99565714D02*
X279225232Y-99565714D01*
D10*
X280605232Y-101965714D02*
X280605232Y-99715714D01*
X280625232Y-99365714D02*
X272425231Y-99365714D01*
X280625232Y-102965714D02*
X280625232Y-99365714D01*
X272425231Y-99365713D02*
G75*
G03*
X270325232Y-101265715I-100000J-1999999D01*
G01*
D17*
X275425232Y-102565714D02*
G75*
G03*
X273208914Y-104444243I-65001J-2169999D01*
G01*
D10*
X275825232Y-102965714D02*
G75*
G03*
X273608914Y-104844243I-65001J-2169999D01*
G01*
%TO.C,D18*%
X130650112Y-58781300D02*
X130650112Y-60281300D01*
X130650112Y-60281300D02*
X136050112Y-60281300D01*
X132850112Y-59031300D02*
X132850112Y-60031300D01*
X132950112Y-59531300D02*
X133850112Y-59031300D01*
X133850112Y-59031300D02*
X133850112Y-60031300D01*
X133850112Y-60031300D02*
X132950112Y-59531300D01*
X136050112Y-58781300D02*
X130650112Y-58781300D01*
X136050112Y-60281300D02*
X136050112Y-58781300D01*
%TO.C,SW10*%
X232225056Y-44115666D02*
X232225056Y-44865666D01*
X232225056Y-44865666D02*
X232425056Y-44865666D01*
D12*
X232325056Y-44765666D02*
X232325056Y-44115666D01*
D10*
X232475056Y-43265666D02*
X232475056Y-47715666D01*
X232475056Y-47715666D02*
X235505056Y-47715666D01*
D13*
X232675056Y-47515666D02*
X235125056Y-47515666D01*
D14*
X232825056Y-47215666D02*
X232825056Y-45415667D01*
D15*
X233955056Y-43715666D02*
X233955056Y-45955666D01*
D10*
X237725056Y-45815666D02*
X242525056Y-45815666D01*
D16*
X240725056Y-44015666D02*
X234025056Y-44015666D01*
D17*
X242025056Y-42815666D02*
X242025056Y-45315666D01*
D13*
X242325056Y-45565666D02*
X241025056Y-45515666D01*
D18*
X242375056Y-42415666D02*
X241125056Y-42415666D01*
D10*
X242505056Y-44815666D02*
X242505056Y-42565666D01*
X242525056Y-42215666D02*
X234325055Y-42215666D01*
X242525056Y-45815666D02*
X242525056Y-42215666D01*
X234325055Y-42215665D02*
G75*
G03*
X232225056Y-44115667I-100000J-1999999D01*
G01*
D17*
X237325056Y-45415666D02*
G75*
G03*
X235108738Y-47294195I-65001J-2169999D01*
G01*
D10*
X237725056Y-45815666D02*
G75*
G03*
X235508738Y-47694195I-65001J-2169999D01*
G01*
%TO.C,D24*%
X244950208Y-58781300D02*
X244950208Y-60281300D01*
X244950208Y-60281300D02*
X250350208Y-60281300D01*
X247150208Y-59031300D02*
X247150208Y-60031300D01*
X247250208Y-59531300D02*
X248150208Y-59031300D01*
X248150208Y-59031300D02*
X248150208Y-60031300D01*
X248150208Y-60031300D02*
X247250208Y-59531300D01*
X250350208Y-58781300D02*
X244950208Y-58781300D01*
X250350208Y-60281300D02*
X250350208Y-58781300D01*
%TO.C,SW9*%
X213175056Y-44115666D02*
X213175056Y-44865666D01*
X213175056Y-44865666D02*
X213375056Y-44865666D01*
D12*
X213275056Y-44765666D02*
X213275056Y-44115666D01*
D10*
X213425056Y-43265666D02*
X213425056Y-47715666D01*
X213425056Y-47715666D02*
X216455056Y-47715666D01*
D13*
X213625056Y-47515666D02*
X216075056Y-47515666D01*
D14*
X213775056Y-47215666D02*
X213775056Y-45415667D01*
D15*
X214905056Y-43715666D02*
X214905056Y-45955666D01*
D10*
X218675056Y-45815666D02*
X223475056Y-45815666D01*
D16*
X221675056Y-44015666D02*
X214975056Y-44015666D01*
D17*
X222975056Y-42815666D02*
X222975056Y-45315666D01*
D13*
X223275056Y-45565666D02*
X221975056Y-45515666D01*
D18*
X223325056Y-42415666D02*
X222075056Y-42415666D01*
D10*
X223455056Y-44815666D02*
X223455056Y-42565666D01*
X223475056Y-42215666D02*
X215275055Y-42215666D01*
X223475056Y-45815666D02*
X223475056Y-42215666D01*
X215275055Y-42215665D02*
G75*
G03*
X213175056Y-44115667I-100000J-1999999D01*
G01*
D17*
X218275056Y-45415666D02*
G75*
G03*
X216058738Y-47294195I-65001J-2169999D01*
G01*
D10*
X218675056Y-45815666D02*
G75*
G03*
X216458738Y-47694195I-65001J-2169999D01*
G01*
%TO.C,D25*%
X264000224Y-58781300D02*
X264000224Y-60281300D01*
X264000224Y-60281300D02*
X269400224Y-60281300D01*
X266200224Y-59031300D02*
X266200224Y-60031300D01*
X266300224Y-59531300D02*
X267200224Y-59031300D01*
X267200224Y-59031300D02*
X267200224Y-60031300D01*
X267200224Y-60031300D02*
X266300224Y-59531300D01*
X269400224Y-58781300D02*
X264000224Y-58781300D01*
X269400224Y-60281300D02*
X269400224Y-58781300D01*
%TO.C,SW55*%
X63156306Y-120315666D02*
X63156306Y-121065666D01*
X63156306Y-121065666D02*
X63356306Y-121065666D01*
D12*
X63256306Y-120965666D02*
X63256306Y-120315666D01*
D10*
X63406306Y-119465666D02*
X63406306Y-123915666D01*
X63406306Y-123915666D02*
X66436306Y-123915666D01*
D13*
X63606306Y-123715666D02*
X66056306Y-123715666D01*
D14*
X63756306Y-123415666D02*
X63756306Y-121615667D01*
D15*
X64886306Y-119915666D02*
X64886306Y-122155666D01*
D10*
X68656306Y-122015666D02*
X73456306Y-122015666D01*
D16*
X71656306Y-120215666D02*
X64956306Y-120215666D01*
D17*
X72956306Y-119015666D02*
X72956306Y-121515666D01*
D13*
X73256306Y-121765666D02*
X71956306Y-121715666D01*
D18*
X73306306Y-118615666D02*
X72056306Y-118615666D01*
D10*
X73436306Y-121015666D02*
X73436306Y-118765666D01*
X73456306Y-118415666D02*
X65256305Y-118415666D01*
X73456306Y-122015666D02*
X73456306Y-118415666D01*
X65256305Y-118415665D02*
G75*
G03*
X63156306Y-120315667I-100000J-1999999D01*
G01*
D17*
X68256306Y-121615666D02*
G75*
G03*
X66039988Y-123494195I-65001J-2169999D01*
G01*
D10*
X68656306Y-122015666D02*
G75*
G03*
X66439988Y-123894195I-65001J-2169999D01*
G01*
%TO.C,SW42*%
X70300064Y-101265714D02*
X70300064Y-102015714D01*
X70300064Y-102015714D02*
X70500064Y-102015714D01*
D12*
X70400064Y-101915714D02*
X70400064Y-101265714D01*
D10*
X70550064Y-100415714D02*
X70550064Y-104865714D01*
X70550064Y-104865714D02*
X73580064Y-104865714D01*
D13*
X70750064Y-104665714D02*
X73200064Y-104665714D01*
D14*
X70900064Y-104365714D02*
X70900064Y-102565715D01*
D15*
X72030064Y-100865714D02*
X72030064Y-103105714D01*
D10*
X75800064Y-102965714D02*
X80600064Y-102965714D01*
D16*
X78800064Y-101165714D02*
X72100064Y-101165714D01*
D17*
X80100064Y-99965714D02*
X80100064Y-102465714D01*
D13*
X80400064Y-102715714D02*
X79100064Y-102665714D01*
D18*
X80450064Y-99565714D02*
X79200064Y-99565714D01*
D10*
X80580064Y-101965714D02*
X80580064Y-99715714D01*
X80600064Y-99365714D02*
X72400063Y-99365714D01*
X80600064Y-102965714D02*
X80600064Y-99365714D01*
X72400063Y-99365713D02*
G75*
G03*
X70300064Y-101265715I-100000J-1999999D01*
G01*
D17*
X75400064Y-102565714D02*
G75*
G03*
X73183746Y-104444243I-65001J-2169999D01*
G01*
D10*
X75800064Y-102965714D02*
G75*
G03*
X73583746Y-104844243I-65001J-2169999D01*
G01*
%TO.C,SW35*%
X201162556Y-91615666D02*
X201162556Y-90865666D01*
X201162556Y-90865666D02*
X200962556Y-90865666D01*
D12*
X201062556Y-90965666D02*
X201062556Y-91615666D01*
D10*
X200912556Y-92465666D02*
X200912556Y-88015666D01*
X200912556Y-88015666D02*
X197882556Y-88015666D01*
D13*
X200712556Y-88215666D02*
X198262556Y-88215666D01*
D14*
X200562556Y-88515666D02*
X200562556Y-90315665D01*
D15*
X199432556Y-92015666D02*
X199432556Y-89775666D01*
D10*
X195662556Y-89915666D02*
X190862556Y-89915666D01*
D16*
X192662556Y-91715666D02*
X199362556Y-91715666D01*
D17*
X191362556Y-92915666D02*
X191362556Y-90415666D01*
D13*
X191062556Y-90165666D02*
X192362556Y-90215666D01*
D18*
X191012556Y-93315666D02*
X192262556Y-93315666D01*
D10*
X190882556Y-90915666D02*
X190882556Y-93165666D01*
X190862556Y-93515666D02*
X199062557Y-93515666D01*
X190862556Y-89915666D02*
X190862556Y-93515666D01*
X199062557Y-93515667D02*
G75*
G03*
X201162556Y-91615665I100000J1999999D01*
G01*
D17*
X196062556Y-90315666D02*
G75*
G03*
X198278874Y-88437137I65001J2169999D01*
G01*
D10*
X195662556Y-89915666D02*
G75*
G03*
X197878874Y-88037137I65001J2169999D01*
G01*
%TO.C,SW43*%
X98875088Y-101265714D02*
X98875088Y-102015714D01*
X98875088Y-102015714D02*
X99075088Y-102015714D01*
D12*
X98975088Y-101915714D02*
X98975088Y-101265714D01*
D10*
X99125088Y-100415714D02*
X99125088Y-104865714D01*
X99125088Y-104865714D02*
X102155088Y-104865714D01*
D13*
X99325088Y-104665714D02*
X101775088Y-104665714D01*
D14*
X99475088Y-104365714D02*
X99475088Y-102565715D01*
D15*
X100605088Y-100865714D02*
X100605088Y-103105714D01*
D10*
X104375088Y-102965714D02*
X109175088Y-102965714D01*
D16*
X107375088Y-101165714D02*
X100675088Y-101165714D01*
D17*
X108675088Y-99965714D02*
X108675088Y-102465714D01*
D13*
X108975088Y-102715714D02*
X107675088Y-102665714D01*
D18*
X109025088Y-99565714D02*
X107775088Y-99565714D01*
D10*
X109155088Y-101965714D02*
X109155088Y-99715714D01*
X109175088Y-99365714D02*
X100975087Y-99365714D01*
X109175088Y-102965714D02*
X109175088Y-99365714D01*
X100975087Y-99365713D02*
G75*
G03*
X98875088Y-101265715I-100000J-1999999D01*
G01*
D17*
X103975088Y-102565714D02*
G75*
G03*
X101758770Y-104444243I-65001J-2169999D01*
G01*
D10*
X104375088Y-102965714D02*
G75*
G03*
X102158770Y-104844243I-65001J-2169999D01*
G01*
%TO.C,SW5*%
X136975056Y-44115666D02*
X136975056Y-44865666D01*
X136975056Y-44865666D02*
X137175056Y-44865666D01*
D12*
X137075056Y-44765666D02*
X137075056Y-44115666D01*
D10*
X137225056Y-43265666D02*
X137225056Y-47715666D01*
X137225056Y-47715666D02*
X140255056Y-47715666D01*
D13*
X137425056Y-47515666D02*
X139875056Y-47515666D01*
D14*
X137575056Y-47215666D02*
X137575056Y-45415667D01*
D15*
X138705056Y-43715666D02*
X138705056Y-45955666D01*
D10*
X142475056Y-45815666D02*
X147275056Y-45815666D01*
D16*
X145475056Y-44015666D02*
X138775056Y-44015666D01*
D17*
X146775056Y-42815666D02*
X146775056Y-45315666D01*
D13*
X147075056Y-45565666D02*
X145775056Y-45515666D01*
D18*
X147125056Y-42415666D02*
X145875056Y-42415666D01*
D10*
X147255056Y-44815666D02*
X147255056Y-42565666D01*
X147275056Y-42215666D02*
X139075055Y-42215666D01*
X147275056Y-45815666D02*
X147275056Y-42215666D01*
X139075055Y-42215665D02*
G75*
G03*
X136975056Y-44115667I-100000J-1999999D01*
G01*
D17*
X142075056Y-45415666D02*
G75*
G03*
X139858738Y-47294195I-65001J-2169999D01*
G01*
D10*
X142475056Y-45815666D02*
G75*
G03*
X140258738Y-47694195I-65001J-2169999D01*
G01*
%TO.C,D66*%
X332461219Y-129623547D02*
X332461219Y-131123547D01*
X332461219Y-131123547D02*
X337861219Y-131123547D01*
X334661219Y-129873547D02*
X334661219Y-130873547D01*
X334761219Y-130373547D02*
X335661219Y-129873547D01*
X335661219Y-129873547D02*
X335661219Y-130873547D01*
X335661219Y-130873547D02*
X334761219Y-130373547D01*
X337861219Y-129623547D02*
X332461219Y-129623547D01*
X337861219Y-131123547D02*
X337861219Y-129623547D01*
%TO.C,SW26*%
X279850056Y-63165666D02*
X279850056Y-63915666D01*
X279850056Y-63915666D02*
X280050056Y-63915666D01*
D12*
X279950056Y-63815666D02*
X279950056Y-63165666D01*
D10*
X280100056Y-62315666D02*
X280100056Y-66765666D01*
X280100056Y-66765666D02*
X283130056Y-66765666D01*
D13*
X280300056Y-66565666D02*
X282750056Y-66565666D01*
D14*
X280450056Y-66265666D02*
X280450056Y-64465667D01*
D15*
X281580056Y-62765666D02*
X281580056Y-65005666D01*
D10*
X285350056Y-64865666D02*
X290150056Y-64865666D01*
D16*
X288350056Y-63065666D02*
X281650056Y-63065666D01*
D17*
X289650056Y-61865666D02*
X289650056Y-64365666D01*
D13*
X289950056Y-64615666D02*
X288650056Y-64565666D01*
D18*
X290000056Y-61465666D02*
X288750056Y-61465666D01*
D10*
X290130056Y-63865666D02*
X290130056Y-61615666D01*
X290150056Y-61265666D02*
X281950055Y-61265666D01*
X290150056Y-64865666D02*
X290150056Y-61265666D01*
X281950055Y-61265665D02*
G75*
G03*
X279850056Y-63165667I-100000J-1999999D01*
G01*
D17*
X284950056Y-64465666D02*
G75*
G03*
X282733738Y-66344195I-65001J-2169999D01*
G01*
D10*
X285350056Y-64865666D02*
G75*
G03*
X283133738Y-66744195I-65001J-2169999D01*
G01*
%TO.C,SW64*%
X298900256Y-120315730D02*
X298900256Y-121065730D01*
X298900256Y-121065730D02*
X299100256Y-121065730D01*
D12*
X299000256Y-120965730D02*
X299000256Y-120315730D01*
D10*
X299150256Y-119465730D02*
X299150256Y-123915730D01*
X299150256Y-123915730D02*
X302180256Y-123915730D01*
D13*
X299350256Y-123715730D02*
X301800256Y-123715730D01*
D14*
X299500256Y-123415730D02*
X299500256Y-121615731D01*
D15*
X300630256Y-119915730D02*
X300630256Y-122155730D01*
D10*
X304400256Y-122015730D02*
X309200256Y-122015730D01*
D16*
X307400256Y-120215730D02*
X300700256Y-120215730D01*
D17*
X308700256Y-119015730D02*
X308700256Y-121515730D01*
D13*
X309000256Y-121765730D02*
X307700256Y-121715730D01*
D18*
X309050256Y-118615730D02*
X307800256Y-118615730D01*
D10*
X309180256Y-121015730D02*
X309180256Y-118765730D01*
X309200256Y-118415730D02*
X301000255Y-118415730D01*
X309200256Y-122015730D02*
X309200256Y-118415730D01*
X301000255Y-118415729D02*
G75*
G03*
X298900256Y-120315731I-100000J-1999999D01*
G01*
D17*
X304000256Y-121615730D02*
G75*
G03*
X301783938Y-123494259I-65001J-2169999D01*
G01*
D10*
X304400256Y-122015730D02*
G75*
G03*
X302183938Y-123894259I-65001J-2169999D01*
G01*
%TO.C,D5*%
X144937624Y-51637544D02*
X144937624Y-53137544D01*
X144937624Y-53137544D02*
X150337624Y-53137544D01*
X147137624Y-51887544D02*
X147137624Y-52887544D01*
X147237624Y-52387544D02*
X148137624Y-51887544D01*
X148137624Y-51887544D02*
X148137624Y-52887544D01*
X148137624Y-52887544D02*
X147237624Y-52387544D01*
X150337624Y-51637544D02*
X144937624Y-51637544D01*
X150337624Y-53137544D02*
X150337624Y-51637544D01*
%TO.C,D51*%
X259237720Y-108787592D02*
X259237720Y-110287592D01*
X259237720Y-110287592D02*
X264637720Y-110287592D01*
X261437720Y-109037592D02*
X261437720Y-110037592D01*
X261537720Y-109537592D02*
X262437720Y-109037592D01*
X262437720Y-109037592D02*
X262437720Y-110037592D01*
X262437720Y-110037592D02*
X261537720Y-109537592D01*
X264637720Y-108787592D02*
X259237720Y-108787592D01*
X264637720Y-110287592D02*
X264637720Y-108787592D01*
%TO.C,D12*%
X278287736Y-51637544D02*
X278287736Y-53137544D01*
X278287736Y-53137544D02*
X283687736Y-53137544D01*
X280487736Y-51887544D02*
X280487736Y-52887544D01*
X280587736Y-52387544D02*
X281487736Y-51887544D01*
X281487736Y-51887544D02*
X281487736Y-52887544D01*
X281487736Y-52887544D02*
X280587736Y-52387544D01*
X283687736Y-51637544D02*
X278287736Y-51637544D01*
X283687736Y-53137544D02*
X283687736Y-51637544D01*
%TO.C,SW58*%
X136975120Y-120315730D02*
X136975120Y-121065730D01*
X136975120Y-121065730D02*
X137175120Y-121065730D01*
D12*
X137075120Y-120965730D02*
X137075120Y-120315730D01*
D10*
X137225120Y-119465730D02*
X137225120Y-123915730D01*
X137225120Y-123915730D02*
X140255120Y-123915730D01*
D13*
X137425120Y-123715730D02*
X139875120Y-123715730D01*
D14*
X137575120Y-123415730D02*
X137575120Y-121615731D01*
D15*
X138705120Y-119915730D02*
X138705120Y-122155730D01*
D10*
X142475120Y-122015730D02*
X147275120Y-122015730D01*
D16*
X145475120Y-120215730D02*
X138775120Y-120215730D01*
D17*
X146775120Y-119015730D02*
X146775120Y-121515730D01*
D13*
X147075120Y-121765730D02*
X145775120Y-121715730D01*
D18*
X147125120Y-118615730D02*
X145875120Y-118615730D01*
D10*
X147255120Y-121015730D02*
X147255120Y-118765730D01*
X147275120Y-118415730D02*
X139075119Y-118415730D01*
X147275120Y-122015730D02*
X147275120Y-118415730D01*
X139075119Y-118415729D02*
G75*
G03*
X136975120Y-120315731I-100000J-1999999D01*
G01*
D17*
X142075120Y-121615730D02*
G75*
G03*
X139858802Y-123494259I-65001J-2169999D01*
G01*
D10*
X142475120Y-122015730D02*
G75*
G03*
X140258802Y-123894259I-65001J-2169999D01*
G01*
%TO.C,SW27*%
X298900056Y-63165666D02*
X298900056Y-63915666D01*
X298900056Y-63915666D02*
X299100056Y-63915666D01*
D12*
X299000056Y-63815666D02*
X299000056Y-63165666D01*
D10*
X299150056Y-62315666D02*
X299150056Y-66765666D01*
X299150056Y-66765666D02*
X302180056Y-66765666D01*
D13*
X299350056Y-66565666D02*
X301800056Y-66565666D01*
D14*
X299500056Y-66265666D02*
X299500056Y-64465667D01*
D15*
X300630056Y-62765666D02*
X300630056Y-65005666D01*
D10*
X304400056Y-64865666D02*
X309200056Y-64865666D01*
D16*
X307400056Y-63065666D02*
X300700056Y-63065666D01*
D17*
X308700056Y-61865666D02*
X308700056Y-64365666D01*
D13*
X309000056Y-64615666D02*
X307700056Y-64565666D01*
D18*
X309050056Y-61465666D02*
X307800056Y-61465666D01*
D10*
X309180056Y-63865666D02*
X309180056Y-61615666D01*
X309200056Y-61265666D02*
X301000055Y-61265666D01*
X309200056Y-64865666D02*
X309200056Y-61265666D01*
X301000055Y-61265665D02*
G75*
G03*
X298900056Y-63165667I-100000J-1999999D01*
G01*
D17*
X304000056Y-64465666D02*
G75*
G03*
X301783738Y-66344195I-65001J-2169999D01*
G01*
D10*
X304400056Y-64865666D02*
G75*
G03*
X302183738Y-66744195I-65001J-2169999D01*
G01*
%TO.C,SW12*%
X270325056Y-44115666D02*
X270325056Y-44865666D01*
X270325056Y-44865666D02*
X270525056Y-44865666D01*
D12*
X270425056Y-44765666D02*
X270425056Y-44115666D01*
D10*
X270575056Y-43265666D02*
X270575056Y-47715666D01*
X270575056Y-47715666D02*
X273605056Y-47715666D01*
D13*
X270775056Y-47515666D02*
X273225056Y-47515666D01*
D14*
X270925056Y-47215666D02*
X270925056Y-45415667D01*
D15*
X272055056Y-43715666D02*
X272055056Y-45955666D01*
D10*
X275825056Y-45815666D02*
X280625056Y-45815666D01*
D16*
X278825056Y-44015666D02*
X272125056Y-44015666D01*
D17*
X280125056Y-42815666D02*
X280125056Y-45315666D01*
D13*
X280425056Y-45565666D02*
X279125056Y-45515666D01*
D18*
X280475056Y-42415666D02*
X279225056Y-42415666D01*
D10*
X280605056Y-44815666D02*
X280605056Y-42565666D01*
X280625056Y-42215666D02*
X272425055Y-42215666D01*
X280625056Y-45815666D02*
X280625056Y-42215666D01*
X272425055Y-42215665D02*
G75*
G03*
X270325056Y-44115667I-100000J-1999999D01*
G01*
D17*
X275425056Y-45415666D02*
G75*
G03*
X273208738Y-47294195I-65001J-2169999D01*
G01*
D10*
X275825056Y-45815666D02*
G75*
G03*
X273608738Y-47694195I-65001J-2169999D01*
G01*
%TO.C,D6*%
X163987640Y-51637544D02*
X163987640Y-53137544D01*
X163987640Y-53137544D02*
X169387640Y-53137544D01*
X166187640Y-51887544D02*
X166187640Y-52887544D01*
X166287640Y-52387544D02*
X167187640Y-51887544D01*
X167187640Y-51887544D02*
X167187640Y-52887544D01*
X167187640Y-52887544D02*
X166287640Y-52387544D01*
X169387640Y-51637544D02*
X163987640Y-51637544D01*
X169387640Y-53137544D02*
X169387640Y-51637544D01*
%TO.C,SW22*%
X203650056Y-63165666D02*
X203650056Y-63915666D01*
X203650056Y-63915666D02*
X203850056Y-63915666D01*
D12*
X203750056Y-63815666D02*
X203750056Y-63165666D01*
D10*
X203900056Y-62315666D02*
X203900056Y-66765666D01*
X203900056Y-66765666D02*
X206930056Y-66765666D01*
D13*
X204100056Y-66565666D02*
X206550056Y-66565666D01*
D14*
X204250056Y-66265666D02*
X204250056Y-64465667D01*
D15*
X205380056Y-62765666D02*
X205380056Y-65005666D01*
D10*
X209150056Y-64865666D02*
X213950056Y-64865666D01*
D16*
X212150056Y-63065666D02*
X205450056Y-63065666D01*
D17*
X213450056Y-61865666D02*
X213450056Y-64365666D01*
D13*
X213750056Y-64615666D02*
X212450056Y-64565666D01*
D18*
X213800056Y-61465666D02*
X212550056Y-61465666D01*
D10*
X213930056Y-63865666D02*
X213930056Y-61615666D01*
X213950056Y-61265666D02*
X205750055Y-61265666D01*
X213950056Y-64865666D02*
X213950056Y-61265666D01*
X205750055Y-61265665D02*
G75*
G03*
X203650056Y-63165667I-100000J-1999999D01*
G01*
D17*
X208750056Y-64465666D02*
G75*
G03*
X206533738Y-66344195I-65001J-2169999D01*
G01*
D10*
X209150056Y-64865666D02*
G75*
G03*
X206933738Y-66744195I-65001J-2169999D01*
G01*
%TO.C,SW37*%
X227462556Y-82215666D02*
X227462556Y-82965666D01*
X227462556Y-82965666D02*
X227662556Y-82965666D01*
D12*
X227562556Y-82865666D02*
X227562556Y-82215666D01*
D10*
X227712556Y-81365666D02*
X227712556Y-85815666D01*
X227712556Y-85815666D02*
X230742556Y-85815666D01*
D13*
X227912556Y-85615666D02*
X230362556Y-85615666D01*
D14*
X228062556Y-85315666D02*
X228062556Y-83515667D01*
D15*
X229192556Y-81815666D02*
X229192556Y-84055666D01*
D10*
X232962556Y-83915666D02*
X237762556Y-83915666D01*
D16*
X235962556Y-82115666D02*
X229262556Y-82115666D01*
D17*
X237262556Y-80915666D02*
X237262556Y-83415666D01*
D13*
X237562556Y-83665666D02*
X236262556Y-83615666D01*
D18*
X237612556Y-80515666D02*
X236362556Y-80515666D01*
D10*
X237742556Y-82915666D02*
X237742556Y-80665666D01*
X237762556Y-80315666D02*
X229562555Y-80315666D01*
X237762556Y-83915666D02*
X237762556Y-80315666D01*
X229562555Y-80315665D02*
G75*
G03*
X227462556Y-82215667I-100000J-1999999D01*
G01*
D17*
X232562556Y-83515666D02*
G75*
G03*
X230346238Y-85394195I-65001J-2169999D01*
G01*
D10*
X232962556Y-83915666D02*
G75*
G03*
X230746238Y-85794195I-65001J-2169999D01*
G01*
%TO.C,SW48*%
X194125168Y-101265666D02*
X194125168Y-102015666D01*
X194125168Y-102015666D02*
X194325168Y-102015666D01*
D12*
X194225168Y-101915666D02*
X194225168Y-101265666D01*
D10*
X194375168Y-100415666D02*
X194375168Y-104865666D01*
X194375168Y-104865666D02*
X197405168Y-104865666D01*
D13*
X194575168Y-104665666D02*
X197025168Y-104665666D01*
D14*
X194725168Y-104365666D02*
X194725168Y-102565667D01*
D15*
X195855168Y-100865666D02*
X195855168Y-103105666D01*
D10*
X199625168Y-102965666D02*
X204425168Y-102965666D01*
D16*
X202625168Y-101165666D02*
X195925168Y-101165666D01*
D17*
X203925168Y-99965666D02*
X203925168Y-102465666D01*
D13*
X204225168Y-102715666D02*
X202925168Y-102665666D01*
D18*
X204275168Y-99565666D02*
X203025168Y-99565666D01*
D10*
X204405168Y-101965666D02*
X204405168Y-99715666D01*
X204425168Y-99365666D02*
X196225167Y-99365666D01*
X204425168Y-102965666D02*
X204425168Y-99365666D01*
X196225167Y-99365665D02*
G75*
G03*
X194125168Y-101265667I-100000J-1999999D01*
G01*
D17*
X199225168Y-102565666D02*
G75*
G03*
X197008850Y-104444195I-65001J-2169999D01*
G01*
D10*
X199625168Y-102965666D02*
G75*
G03*
X197408850Y-104844195I-65001J-2169999D01*
G01*
%TO.C,SW3*%
X98875056Y-44115666D02*
X98875056Y-44865666D01*
X98875056Y-44865666D02*
X99075056Y-44865666D01*
D12*
X98975056Y-44765666D02*
X98975056Y-44115666D01*
D10*
X99125056Y-43265666D02*
X99125056Y-47715666D01*
X99125056Y-47715666D02*
X102155056Y-47715666D01*
D13*
X99325056Y-47515666D02*
X101775056Y-47515666D01*
D14*
X99475056Y-47215666D02*
X99475056Y-45415667D01*
D15*
X100605056Y-43715666D02*
X100605056Y-45955666D01*
D10*
X104375056Y-45815666D02*
X109175056Y-45815666D01*
D16*
X107375056Y-44015666D02*
X100675056Y-44015666D01*
D17*
X108675056Y-42815666D02*
X108675056Y-45315666D01*
D13*
X108975056Y-45565666D02*
X107675056Y-45515666D01*
D18*
X109025056Y-42415666D02*
X107775056Y-42415666D01*
D10*
X109155056Y-44815666D02*
X109155056Y-42565666D01*
X109175056Y-42215666D02*
X100975055Y-42215666D01*
X109175056Y-45815666D02*
X109175056Y-42215666D01*
X100975055Y-42215665D02*
G75*
G03*
X98875056Y-44115667I-100000J-1999999D01*
G01*
D17*
X103975056Y-45415666D02*
G75*
G03*
X101758738Y-47294195I-65001J-2169999D01*
G01*
D10*
X104375056Y-45815666D02*
G75*
G03*
X102158738Y-47694195I-65001J-2169999D01*
G01*
%TO.C,D60*%
X211612680Y-127837608D02*
X211612680Y-129337608D01*
X211612680Y-129337608D02*
X217012680Y-129337608D01*
X213812680Y-128087608D02*
X213812680Y-129087608D01*
X213912680Y-128587608D02*
X214812680Y-128087608D01*
X214812680Y-128087608D02*
X214812680Y-129087608D01*
X214812680Y-129087608D02*
X213912680Y-128587608D01*
X217012680Y-127837608D02*
X211612680Y-127837608D01*
X217012680Y-129337608D02*
X217012680Y-127837608D01*
%TO.C,D43*%
X106837592Y-108787592D02*
X106837592Y-110287592D01*
X106837592Y-110287592D02*
X112237592Y-110287592D01*
X109037592Y-109037592D02*
X109037592Y-110037592D01*
X109137592Y-109537592D02*
X110037592Y-109037592D01*
X110037592Y-109037592D02*
X110037592Y-110037592D01*
X110037592Y-110037592D02*
X109137592Y-109537592D01*
X112237592Y-108787592D02*
X106837592Y-108787592D01*
X112237592Y-110287592D02*
X112237592Y-108787592D01*
%TO.C,D29*%
X91359454Y-89737576D02*
X91359454Y-91237576D01*
X91359454Y-91237576D02*
X96759454Y-91237576D01*
X93559454Y-89987576D02*
X93559454Y-90987576D01*
X93659454Y-90487576D02*
X94559454Y-89987576D01*
X94559454Y-89987576D02*
X94559454Y-90987576D01*
X94559454Y-90987576D02*
X93659454Y-90487576D01*
X96759454Y-89737576D02*
X91359454Y-89737576D01*
X96759454Y-91237576D02*
X96759454Y-89737576D01*
%TO.C,D8*%
X202087672Y-51637544D02*
X202087672Y-53137544D01*
X202087672Y-53137544D02*
X207487672Y-53137544D01*
X204287672Y-51887544D02*
X204287672Y-52887544D01*
X204387672Y-52387544D02*
X205287672Y-51887544D01*
X205287672Y-51887544D02*
X205287672Y-52887544D01*
X205287672Y-52887544D02*
X204387672Y-52387544D01*
X207487672Y-51637544D02*
X202087672Y-51637544D01*
X207487672Y-53137544D02*
X207487672Y-51637544D01*
%TO.C,SW7*%
X175075056Y-44115666D02*
X175075056Y-44865666D01*
X175075056Y-44865666D02*
X175275056Y-44865666D01*
D12*
X175175056Y-44765666D02*
X175175056Y-44115666D01*
D10*
X175325056Y-43265666D02*
X175325056Y-47715666D01*
X175325056Y-47715666D02*
X178355056Y-47715666D01*
D13*
X175525056Y-47515666D02*
X177975056Y-47515666D01*
D14*
X175675056Y-47215666D02*
X175675056Y-45415667D01*
D15*
X176805056Y-43715666D02*
X176805056Y-45955666D01*
D10*
X180575056Y-45815666D02*
X185375056Y-45815666D01*
D16*
X183575056Y-44015666D02*
X176875056Y-44015666D01*
D17*
X184875056Y-42815666D02*
X184875056Y-45315666D01*
D13*
X185175056Y-45565666D02*
X183875056Y-45515666D01*
D18*
X185225056Y-42415666D02*
X183975056Y-42415666D01*
D10*
X185355056Y-44815666D02*
X185355056Y-42565666D01*
X185375056Y-42215666D02*
X177175055Y-42215666D01*
X185375056Y-45815666D02*
X185375056Y-42215666D01*
X177175055Y-42215665D02*
G75*
G03*
X175075056Y-44115667I-100000J-1999999D01*
G01*
D17*
X180175056Y-45415666D02*
G75*
G03*
X177958738Y-47294195I-65001J-2169999D01*
G01*
D10*
X180575056Y-45815666D02*
G75*
G03*
X178358738Y-47694195I-65001J-2169999D01*
G01*
%TO.C,SW4*%
X117925056Y-44115666D02*
X117925056Y-44865666D01*
X117925056Y-44865666D02*
X118125056Y-44865666D01*
D12*
X118025056Y-44765666D02*
X118025056Y-44115666D01*
D10*
X118175056Y-43265666D02*
X118175056Y-47715666D01*
X118175056Y-47715666D02*
X121205056Y-47715666D01*
D13*
X118375056Y-47515666D02*
X120825056Y-47515666D01*
D14*
X118525056Y-47215666D02*
X118525056Y-45415667D01*
D15*
X119655056Y-43715666D02*
X119655056Y-45955666D01*
D10*
X123425056Y-45815666D02*
X128225056Y-45815666D01*
D16*
X126425056Y-44015666D02*
X119725056Y-44015666D01*
D17*
X127725056Y-42815666D02*
X127725056Y-45315666D01*
D13*
X128025056Y-45565666D02*
X126725056Y-45515666D01*
D18*
X128075056Y-42415666D02*
X126825056Y-42415666D01*
D10*
X128205056Y-44815666D02*
X128205056Y-42565666D01*
X128225056Y-42215666D02*
X120025055Y-42215666D01*
X128225056Y-45815666D02*
X128225056Y-42215666D01*
X120025055Y-42215665D02*
G75*
G03*
X117925056Y-44115667I-100000J-1999999D01*
G01*
D17*
X123025056Y-45415666D02*
G75*
G03*
X120808738Y-47294195I-65001J-2169999D01*
G01*
D10*
X123425056Y-45815666D02*
G75*
G03*
X121208738Y-47694195I-65001J-2169999D01*
G01*
%TO.C,D38*%
X254475216Y-89737576D02*
X254475216Y-91237576D01*
X254475216Y-91237576D02*
X259875216Y-91237576D01*
X256675216Y-89987576D02*
X256675216Y-90987576D01*
X256775216Y-90487576D02*
X257675216Y-89987576D01*
X257675216Y-89987576D02*
X257675216Y-90987576D01*
X257675216Y-90987576D02*
X256775216Y-90487576D01*
X259875216Y-89737576D02*
X254475216Y-89737576D01*
X259875216Y-91237576D02*
X259875216Y-89737576D01*
%TO.C,SW8*%
X194125056Y-44115666D02*
X194125056Y-44865666D01*
X194125056Y-44865666D02*
X194325056Y-44865666D01*
D12*
X194225056Y-44765666D02*
X194225056Y-44115666D01*
D10*
X194375056Y-43265666D02*
X194375056Y-47715666D01*
X194375056Y-47715666D02*
X197405056Y-47715666D01*
D13*
X194575056Y-47515666D02*
X197025056Y-47515666D01*
D14*
X194725056Y-47215666D02*
X194725056Y-45415667D01*
D15*
X195855056Y-43715666D02*
X195855056Y-45955666D01*
D10*
X199625056Y-45815666D02*
X204425056Y-45815666D01*
D16*
X202625056Y-44015666D02*
X195925056Y-44015666D01*
D17*
X203925056Y-42815666D02*
X203925056Y-45315666D01*
D13*
X204225056Y-45565666D02*
X202925056Y-45515666D01*
D18*
X204275056Y-42415666D02*
X203025056Y-42415666D01*
D10*
X204405056Y-44815666D02*
X204405056Y-42565666D01*
X204425056Y-42215666D02*
X196225055Y-42215666D01*
X204425056Y-45815666D02*
X204425056Y-42215666D01*
X196225055Y-42215665D02*
G75*
G03*
X194125056Y-44115667I-100000J-1999999D01*
G01*
D17*
X199225056Y-45415666D02*
G75*
G03*
X197008738Y-47294195I-65001J-2169999D01*
G01*
D10*
X199625056Y-45815666D02*
G75*
G03*
X197408738Y-47694195I-65001J-2169999D01*
G01*
%TO.C,SW56*%
X86968806Y-120315666D02*
X86968806Y-121065666D01*
X86968806Y-121065666D02*
X87168806Y-121065666D01*
D12*
X87068806Y-120965666D02*
X87068806Y-120315666D01*
D10*
X87218806Y-119465666D02*
X87218806Y-123915666D01*
X87218806Y-123915666D02*
X90248806Y-123915666D01*
D13*
X87418806Y-123715666D02*
X89868806Y-123715666D01*
D14*
X87568806Y-123415666D02*
X87568806Y-121615667D01*
D15*
X88698806Y-119915666D02*
X88698806Y-122155666D01*
D10*
X92468806Y-122015666D02*
X97268806Y-122015666D01*
D16*
X95468806Y-120215666D02*
X88768806Y-120215666D01*
D17*
X96768806Y-119015666D02*
X96768806Y-121515666D01*
D13*
X97068806Y-121765666D02*
X95768806Y-121715666D01*
D18*
X97118806Y-118615666D02*
X95868806Y-118615666D01*
D10*
X97248806Y-121015666D02*
X97248806Y-118765666D01*
X97268806Y-118415666D02*
X89068805Y-118415666D01*
X97268806Y-122015666D02*
X97268806Y-118415666D01*
X89068805Y-118415665D02*
G75*
G03*
X86968806Y-120315667I-100000J-1999999D01*
G01*
D17*
X92068806Y-121615666D02*
G75*
G03*
X89852488Y-123494195I-65001J-2169999D01*
G01*
D10*
X92468806Y-122015666D02*
G75*
G03*
X90252488Y-123894195I-65001J-2169999D01*
G01*
%TO.C,D59*%
X178275152Y-127837608D02*
X178275152Y-129337608D01*
X178275152Y-129337608D02*
X183675152Y-129337608D01*
X180475152Y-128087608D02*
X180475152Y-129087608D01*
X180575152Y-128587608D02*
X181475152Y-128087608D01*
X181475152Y-128087608D02*
X181475152Y-129087608D01*
X181475152Y-129087608D02*
X180575152Y-128587608D01*
X183675152Y-127837608D02*
X178275152Y-127837608D01*
X183675152Y-129337608D02*
X183675152Y-127837608D01*
%TO.C,SW34*%
X170312556Y-82215666D02*
X170312556Y-82965666D01*
X170312556Y-82965666D02*
X170512556Y-82965666D01*
D12*
X170412556Y-82865666D02*
X170412556Y-82215666D01*
D10*
X170562556Y-81365666D02*
X170562556Y-85815666D01*
X170562556Y-85815666D02*
X173592556Y-85815666D01*
D13*
X170762556Y-85615666D02*
X173212556Y-85615666D01*
D14*
X170912556Y-85315666D02*
X170912556Y-83515667D01*
D15*
X172042556Y-81815666D02*
X172042556Y-84055666D01*
D10*
X175812556Y-83915666D02*
X180612556Y-83915666D01*
D16*
X178812556Y-82115666D02*
X172112556Y-82115666D01*
D17*
X180112556Y-80915666D02*
X180112556Y-83415666D01*
D13*
X180412556Y-83665666D02*
X179112556Y-83615666D01*
D18*
X180462556Y-80515666D02*
X179212556Y-80515666D01*
D10*
X180592556Y-82915666D02*
X180592556Y-80665666D01*
X180612556Y-80315666D02*
X172412555Y-80315666D01*
X180612556Y-83915666D02*
X180612556Y-80315666D01*
X172412555Y-80315665D02*
G75*
G03*
X170312556Y-82215667I-100000J-1999999D01*
G01*
D17*
X175412556Y-83515666D02*
G75*
G03*
X173196238Y-85394195I-65001J-2169999D01*
G01*
D10*
X175812556Y-83915666D02*
G75*
G03*
X173596238Y-85794195I-65001J-2169999D01*
G01*
%TO.C,D33*%
X159225136Y-89737576D02*
X159225136Y-91237576D01*
X159225136Y-91237576D02*
X164625136Y-91237576D01*
X161425136Y-89987576D02*
X161425136Y-90987576D01*
X161525136Y-90487576D02*
X162425136Y-89987576D01*
X162425136Y-89987576D02*
X162425136Y-90987576D01*
X162425136Y-90987576D02*
X161525136Y-90487576D01*
X164625136Y-89737576D02*
X159225136Y-89737576D01*
X164625136Y-91237576D02*
X164625136Y-89737576D01*
%TO.C,SW15*%
X65537556Y-63165666D02*
X65537556Y-63915666D01*
X65537556Y-63915666D02*
X65737556Y-63915666D01*
D12*
X65637556Y-63815666D02*
X65637556Y-63165666D01*
D10*
X65787556Y-62315666D02*
X65787556Y-66765666D01*
X65787556Y-66765666D02*
X68817556Y-66765666D01*
D13*
X65987556Y-66565666D02*
X68437556Y-66565666D01*
D14*
X66137556Y-66265666D02*
X66137556Y-64465667D01*
D15*
X67267556Y-62765666D02*
X67267556Y-65005666D01*
D10*
X71037556Y-64865666D02*
X75837556Y-64865666D01*
D16*
X74037556Y-63065666D02*
X67337556Y-63065666D01*
D17*
X75337556Y-61865666D02*
X75337556Y-64365666D01*
D13*
X75637556Y-64615666D02*
X74337556Y-64565666D01*
D18*
X75687556Y-61465666D02*
X74437556Y-61465666D01*
D10*
X75817556Y-63865666D02*
X75817556Y-61615666D01*
X75837556Y-61265666D02*
X67637555Y-61265666D01*
X75837556Y-64865666D02*
X75837556Y-61265666D01*
X67637555Y-61265665D02*
G75*
G03*
X65537556Y-63165667I-100000J-1999999D01*
G01*
D17*
X70637556Y-64465666D02*
G75*
G03*
X68421238Y-66344195I-65001J-2169999D01*
G01*
D10*
X71037556Y-64865666D02*
G75*
G03*
X68821238Y-66744195I-65001J-2169999D01*
G01*
%TO.C,SW33*%
X151262556Y-82215666D02*
X151262556Y-82965666D01*
X151262556Y-82965666D02*
X151462556Y-82965666D01*
D12*
X151362556Y-82865666D02*
X151362556Y-82215666D01*
D10*
X151512556Y-81365666D02*
X151512556Y-85815666D01*
X151512556Y-85815666D02*
X154542556Y-85815666D01*
D13*
X151712556Y-85615666D02*
X154162556Y-85615666D01*
D14*
X151862556Y-85315666D02*
X151862556Y-83515667D01*
D15*
X152992556Y-81815666D02*
X152992556Y-84055666D01*
D10*
X156762556Y-83915666D02*
X161562556Y-83915666D01*
D16*
X159762556Y-82115666D02*
X153062556Y-82115666D01*
D17*
X161062556Y-80915666D02*
X161062556Y-83415666D01*
D13*
X161362556Y-83665666D02*
X160062556Y-83615666D01*
D18*
X161412556Y-80515666D02*
X160162556Y-80515666D01*
D10*
X161542556Y-82915666D02*
X161542556Y-80665666D01*
X161562556Y-80315666D02*
X153362555Y-80315666D01*
X161562556Y-83915666D02*
X161562556Y-80315666D01*
X153362555Y-80315665D02*
G75*
G03*
X151262556Y-82215667I-100000J-1999999D01*
G01*
D17*
X156362556Y-83515666D02*
G75*
G03*
X154146238Y-85394195I-65001J-2169999D01*
G01*
D10*
X156762556Y-83915666D02*
G75*
G03*
X154546238Y-85794195I-65001J-2169999D01*
G01*
%TO.C,D53*%
X302100256Y-108787592D02*
X302100256Y-110287592D01*
X302100256Y-110287592D02*
X307500256Y-110287592D01*
X304300256Y-109037592D02*
X304300256Y-110037592D01*
X304400256Y-109537592D02*
X305300256Y-109037592D01*
X305300256Y-109037592D02*
X305300256Y-110037592D01*
X305300256Y-110037592D02*
X304400256Y-109537592D01*
X307500256Y-108787592D02*
X302100256Y-108787592D01*
X307500256Y-110287592D02*
X307500256Y-108787592D01*
%TO.C,D28*%
X319075056Y-75450064D02*
X319075056Y-76950064D01*
X319075056Y-76950064D02*
X324475056Y-76950064D01*
X321275056Y-75700064D02*
X321275056Y-76700064D01*
X321375056Y-76200064D02*
X322275056Y-75700064D01*
X322275056Y-75700064D02*
X322275056Y-76700064D01*
X322275056Y-76700064D02*
X321375056Y-76200064D01*
X324475056Y-75450064D02*
X319075056Y-75450064D01*
X324475056Y-76950064D02*
X324475056Y-75450064D01*
%TO.C,D13*%
X297337752Y-51637544D02*
X297337752Y-53137544D01*
X297337752Y-53137544D02*
X302737752Y-53137544D01*
X299537752Y-51887544D02*
X299537752Y-52887544D01*
X299637752Y-52387544D02*
X300537752Y-51887544D01*
X300537752Y-51887544D02*
X300537752Y-52887544D01*
X300537752Y-52887544D02*
X299637752Y-52387544D01*
X302737752Y-51637544D02*
X297337752Y-51637544D01*
X302737752Y-53137544D02*
X302737752Y-51637544D01*
%TO.C,D50*%
X240187704Y-108787592D02*
X240187704Y-110287592D01*
X240187704Y-110287592D02*
X245587704Y-110287592D01*
X242387704Y-109037592D02*
X242387704Y-110037592D01*
X242487704Y-109537592D02*
X243387704Y-109037592D01*
X243387704Y-109037592D02*
X243387704Y-110037592D01*
X243387704Y-110037592D02*
X242487704Y-109537592D01*
X245587704Y-108787592D02*
X240187704Y-108787592D01*
X245587704Y-110287592D02*
X245587704Y-108787592D01*
%TO.C,D40*%
X292575248Y-89737576D02*
X292575248Y-91237576D01*
X292575248Y-91237576D02*
X297975248Y-91237576D01*
X294775248Y-89987576D02*
X294775248Y-90987576D01*
X294875248Y-90487576D02*
X295775248Y-89987576D01*
X295775248Y-89987576D02*
X295775248Y-90987576D01*
X295775248Y-90987576D02*
X294875248Y-90487576D01*
X297975248Y-89737576D02*
X292575248Y-89737576D01*
X297975248Y-91237576D02*
X297975248Y-89737576D01*
%TO.C,D34*%
X178275152Y-89737576D02*
X178275152Y-91237576D01*
X178275152Y-91237576D02*
X183675152Y-91237576D01*
X180475152Y-89987576D02*
X180475152Y-90987576D01*
X180575152Y-90487576D02*
X181475152Y-89987576D01*
X181475152Y-89987576D02*
X181475152Y-90987576D01*
X181475152Y-90987576D02*
X180575152Y-90487576D01*
X183675152Y-89737576D02*
X178275152Y-89737576D01*
X183675152Y-91237576D02*
X183675152Y-89737576D01*
%TO.C,D21*%
X187800160Y-58781300D02*
X187800160Y-60281300D01*
X187800160Y-60281300D02*
X193200160Y-60281300D01*
X190000160Y-59031300D02*
X190000160Y-60031300D01*
X190100160Y-59531300D02*
X191000160Y-59031300D01*
X191000160Y-59031300D02*
X191000160Y-60031300D01*
X191000160Y-60031300D02*
X190100160Y-59531300D01*
X193200160Y-58781300D02*
X187800160Y-58781300D01*
X193200160Y-60281300D02*
X193200160Y-58781300D01*
%TO.C,SW38*%
X246512556Y-82215666D02*
X246512556Y-82965666D01*
X246512556Y-82965666D02*
X246712556Y-82965666D01*
D12*
X246612556Y-82865666D02*
X246612556Y-82215666D01*
D10*
X246762556Y-81365666D02*
X246762556Y-85815666D01*
X246762556Y-85815666D02*
X249792556Y-85815666D01*
D13*
X246962556Y-85615666D02*
X249412556Y-85615666D01*
D14*
X247112556Y-85315666D02*
X247112556Y-83515667D01*
D15*
X248242556Y-81815666D02*
X248242556Y-84055666D01*
D10*
X252012556Y-83915666D02*
X256812556Y-83915666D01*
D16*
X255012556Y-82115666D02*
X248312556Y-82115666D01*
D17*
X256312556Y-80915666D02*
X256312556Y-83415666D01*
D13*
X256612556Y-83665666D02*
X255312556Y-83615666D01*
D18*
X256662556Y-80515666D02*
X255412556Y-80515666D01*
D10*
X256792556Y-82915666D02*
X256792556Y-80665666D01*
X256812556Y-80315666D02*
X248612555Y-80315666D01*
X256812556Y-83915666D02*
X256812556Y-80315666D01*
X248612555Y-80315665D02*
G75*
G03*
X246512556Y-82215667I-100000J-1999999D01*
G01*
D17*
X251612556Y-83515666D02*
G75*
G03*
X249396238Y-85394195I-65001J-2169999D01*
G01*
D10*
X252012556Y-83915666D02*
G75*
G03*
X249796238Y-85794195I-65001J-2169999D01*
G01*
%TO.C,SW28*%
X334512556Y-72565666D02*
X334512556Y-71815666D01*
X334512556Y-71815666D02*
X334312556Y-71815666D01*
D12*
X334412556Y-71915666D02*
X334412556Y-72565666D01*
D10*
X334262556Y-73415666D02*
X334262556Y-68965666D01*
X334262556Y-68965666D02*
X331232556Y-68965666D01*
D13*
X334062556Y-69165666D02*
X331612556Y-69165666D01*
D14*
X333912556Y-69465666D02*
X333912556Y-71265665D01*
D15*
X332782556Y-72965666D02*
X332782556Y-70725666D01*
D10*
X329012556Y-70865666D02*
X324212556Y-70865666D01*
D16*
X326012556Y-72665666D02*
X332712556Y-72665666D01*
D17*
X324712556Y-73865666D02*
X324712556Y-71365666D01*
D13*
X324412556Y-71115666D02*
X325712556Y-71165666D01*
D18*
X324362556Y-74265666D02*
X325612556Y-74265666D01*
D10*
X324232556Y-71865666D02*
X324232556Y-74115666D01*
X324212556Y-74465666D02*
X332412557Y-74465666D01*
X324212556Y-70865666D02*
X324212556Y-74465666D01*
X332412557Y-74465667D02*
G75*
G03*
X334512556Y-72565665I100000J1999999D01*
G01*
D17*
X329412556Y-71265666D02*
G75*
G03*
X331628874Y-69387137I65001J2169999D01*
G01*
D10*
X329012556Y-70865666D02*
G75*
G03*
X331228874Y-68987137I65001J2169999D01*
G01*
D19*
%TO.C,C1*%
X99635056Y-74207830D02*
X99635056Y-74423502D01*
X98915056Y-74207830D02*
X98915056Y-74423502D01*
%TO.C,R1*%
X69835056Y-45707830D02*
X69835056Y-45923502D01*
X69115056Y-45707830D02*
X69115056Y-45923502D01*
%TO.C,C5*%
X185135056Y-74207830D02*
X185135056Y-74423502D01*
X184415056Y-74207830D02*
X184415056Y-74423502D01*
%TO.C,C9*%
X206735056Y-71307830D02*
X206735056Y-71523502D01*
X206015056Y-71307830D02*
X206015056Y-71523502D01*
%TO.C,SW_boot1*%
X84935056Y-91135666D02*
X87015056Y-91135666D01*
X83255056Y-89865666D02*
X83745056Y-90355666D01*
X83255056Y-89865666D02*
X83255056Y-86965666D01*
X88695056Y-89865666D02*
X88205056Y-90355666D01*
X88695056Y-89865666D02*
X88695056Y-86965666D01*
X83255056Y-86965666D02*
X83745056Y-86475666D01*
X88695056Y-86965666D02*
X88205056Y-86475666D01*
X84935056Y-85695666D02*
X87015056Y-85695666D01*
%TO.C,C8*%
X187335056Y-72307830D02*
X187335056Y-72523502D01*
X186615056Y-72307830D02*
X186615056Y-72523502D01*
%TO.C,R4*%
X187482892Y-71175666D02*
X187267220Y-71175666D01*
X187482892Y-70455666D02*
X187267220Y-70455666D01*
%TO.C,Y1*%
X194275056Y-84565666D02*
X190275056Y-84565666D01*
X194275056Y-81265666D02*
X194275056Y-84565666D01*
%TO.C,LED2*%
X225594060Y-113045409D02*
X233394060Y-113045409D01*
X225594060Y-114645409D02*
X225594060Y-113045409D01*
X233394060Y-116745409D02*
X225594060Y-116745409D01*
%TO.C,J1*%
X71027556Y-38315666D02*
X80427556Y-38315666D01*
X71027556Y-40215666D02*
X71027556Y-38315666D01*
X71027556Y-44115666D02*
X71027556Y-42115666D01*
X80427556Y-40215666D02*
X80427556Y-38315666D01*
X80427556Y-44115666D02*
X80427556Y-42115666D01*
%TO.C,C6*%
X186235056Y-74207830D02*
X186235056Y-74423502D01*
X185515056Y-74207830D02*
X185515056Y-74423502D01*
%TO.C,C11*%
X189885056Y-82575086D02*
X189885056Y-82856246D01*
X188865056Y-82575086D02*
X188865056Y-82856246D01*
%TO.C,C7*%
X187335056Y-74207830D02*
X187335056Y-74423502D01*
X186615056Y-74207830D02*
X186615056Y-74423502D01*
%TO.C,R3*%
X187482892Y-70175666D02*
X187267220Y-70175666D01*
X187482892Y-69455666D02*
X187267220Y-69455666D01*
%TO.C,C4*%
X186235056Y-72307830D02*
X186235056Y-72523502D01*
X185515056Y-72307830D02*
X185515056Y-72523502D01*
%TO.C,R6*%
X188435056Y-82107830D02*
X188435056Y-82323502D01*
X187715056Y-82107830D02*
X187715056Y-82323502D01*
%TO.C,U1*%
X107085056Y-77015666D02*
X107085056Y-71005666D01*
X100265056Y-74765666D02*
X100265056Y-71005666D01*
X100265056Y-71005666D02*
X101525056Y-71005666D01*
X107085056Y-71005666D02*
X105825056Y-71005666D01*
%TO.C,U2*%
X195285056Y-79825666D02*
X195285056Y-79175666D01*
X194635056Y-79825666D02*
X195285056Y-79825666D01*
X194635056Y-72605666D02*
X195285056Y-72605666D01*
X188715056Y-79825666D02*
X188065056Y-79825666D01*
X188715056Y-72605666D02*
X188065056Y-72605666D01*
X188065056Y-79825666D02*
X188065056Y-79175666D01*
X188065056Y-72605666D02*
X188065056Y-73255666D01*
%TO.C,R5*%
X206735056Y-75907830D02*
X206735056Y-76123502D01*
X206015056Y-75907830D02*
X206015056Y-76123502D01*
%TO.C,C2*%
X108535056Y-74207830D02*
X108535056Y-74423502D01*
X107815056Y-74207830D02*
X107815056Y-74423502D01*
%TO.C,U3*%
X200365056Y-76715666D02*
X200365056Y-70715666D01*
X205585056Y-73715666D02*
X205585056Y-70715666D01*
%TO.C,C3*%
X185135056Y-72307830D02*
X185135056Y-72523502D01*
X184415056Y-72307830D02*
X184415056Y-72523502D01*
%TO.C,LED1*%
X140165746Y-113045409D02*
X147965746Y-113045409D01*
X140165746Y-114645409D02*
X140165746Y-113045409D01*
X147965746Y-116745409D02*
X140165746Y-116745409D01*
%TO.C,C10*%
X195785056Y-82275086D02*
X195785056Y-82556246D01*
X194765056Y-82275086D02*
X194765056Y-82556246D01*
%TO.C,R2*%
X82235056Y-45707830D02*
X82235056Y-45923502D01*
X81515056Y-45707830D02*
X81515056Y-45923502D01*
%TD*%
M02*
