%TF.GenerationSoftware,KiCad,Pcbnew,7.0.1*%
%TF.CreationDate,2025-02-28T05:26:20+09:00*%
%TF.ProjectId,bonyo6x_panel,626f6e79-6f36-4785-9f70-616e656c2e6b,rev?*%
%TF.SameCoordinates,Original*%
%TF.FileFunction,Soldermask,Top*%
%TF.FilePolarity,Negative*%
%FSLAX46Y46*%
G04 Gerber Fmt 4.6, Leading zero omitted, Abs format (unit mm)*
G04 Created by KiCad (PCBNEW 7.0.1) date 2025-02-28 05:26:20*
%MOMM*%
%LPD*%
G01*
G04 APERTURE LIST*
%ADD10C,1.900000*%
%ADD11C,3.000000*%
%ADD12C,4.100000*%
%ADD13C,4.000000*%
%ADD14C,3.050000*%
%ADD15O,4.000000X2.400000*%
%ADD16O,6.000000X2.400000*%
%ADD17C,2.000000*%
%ADD18O,2.000000X2.000000*%
%ADD19C,0.650000*%
%ADD20O,1.000000X1.600000*%
%ADD21O,1.000000X2.100000*%
G04 APERTURE END LIST*
D10*
%TO.C,SW16*%
X90170056Y-67865666D03*
D11*
X91440056Y-65325666D03*
D12*
X95250056Y-67865666D03*
D11*
X97790056Y-62785666D03*
D10*
X100330056Y-67865666D03*
%TD*%
%TO.C,SW57*%
X111601306Y-125015666D03*
D11*
X112871306Y-122475666D03*
D12*
X116681306Y-125015666D03*
D11*
X119221306Y-119935666D03*
D10*
X121761306Y-125015666D03*
%TD*%
%TO.C,SW23*%
X223520056Y-67865666D03*
D11*
X224790056Y-65325666D03*
D12*
X228600056Y-67865666D03*
D11*
X231140056Y-62785666D03*
D10*
X233680056Y-67865666D03*
%TD*%
%TO.C,SW6*%
X156845056Y-48815666D03*
D11*
X158115056Y-46275666D03*
D12*
X161925056Y-48815666D03*
D11*
X164465056Y-43735666D03*
D10*
X167005056Y-48815666D03*
%TD*%
D13*
%TO.C,SW59*%
X164312648Y-116775730D03*
D14*
X164312648Y-132015730D03*
D10*
X171132648Y-125015730D03*
D11*
X172402648Y-122475730D03*
D12*
X176212648Y-125015730D03*
D11*
X178752648Y-119935730D03*
D10*
X181292648Y-125015730D03*
D13*
X188112648Y-116775730D03*
D14*
X188112648Y-132015730D03*
%TD*%
D10*
%TO.C,SW31*%
X113982556Y-86915666D03*
D11*
X115252556Y-84375666D03*
D12*
X119062556Y-86915666D03*
D11*
X121602556Y-81835666D03*
D10*
X124142556Y-86915666D03*
%TD*%
%TO.C,SW62*%
X254476468Y-125015730D03*
D11*
X255746468Y-122475730D03*
D12*
X259556468Y-125015730D03*
D11*
X262096468Y-119935730D03*
D10*
X264636468Y-125015730D03*
%TD*%
%TO.C,SW1*%
X71755056Y-48815666D03*
D11*
X70485056Y-51355666D03*
D12*
X66675056Y-48815666D03*
D11*
X64135056Y-53895666D03*
D10*
X61595056Y-48815666D03*
%TD*%
%TO.C,SW18*%
X128270056Y-67865666D03*
D11*
X129540056Y-65325666D03*
D12*
X133350056Y-67865666D03*
D11*
X135890056Y-62785666D03*
D10*
X138430056Y-67865666D03*
%TD*%
%TO.C,SW32*%
X133032556Y-86915666D03*
D11*
X134302556Y-84375666D03*
D12*
X138112556Y-86915666D03*
D11*
X140652556Y-81835666D03*
D10*
X143192556Y-86915666D03*
%TD*%
%TO.C,SW63*%
X280670240Y-125015730D03*
D11*
X281940240Y-122475730D03*
D12*
X285750240Y-125015730D03*
D11*
X288290240Y-119935730D03*
D10*
X290830240Y-125015730D03*
%TD*%
%TO.C,SW49*%
X213995184Y-105965714D03*
D11*
X215265184Y-103425714D03*
D12*
X219075184Y-105965714D03*
D11*
X221615184Y-100885714D03*
D10*
X224155184Y-105965714D03*
%TD*%
%TO.C,SW61*%
X230663948Y-125015730D03*
D11*
X231933948Y-122475730D03*
D12*
X235743948Y-125015730D03*
D11*
X238283948Y-119935730D03*
D10*
X240823948Y-125015730D03*
%TD*%
%TO.C,SW45*%
X137795120Y-105965666D03*
D11*
X139065120Y-103425666D03*
D12*
X142875120Y-105965666D03*
D11*
X145415120Y-100885666D03*
D10*
X147955120Y-105965666D03*
%TD*%
%TO.C,SW24*%
X242570056Y-67865666D03*
D11*
X243840056Y-65325666D03*
D12*
X247650056Y-67865666D03*
D11*
X250190056Y-62785666D03*
D10*
X252730056Y-67865666D03*
%TD*%
%TO.C,SW51*%
X252095216Y-105965666D03*
D11*
X253365216Y-103425666D03*
D12*
X257175216Y-105965666D03*
D11*
X259715216Y-100885666D03*
D10*
X262255216Y-105965666D03*
%TD*%
%TO.C,SW39*%
X266382556Y-86915666D03*
D11*
X267652556Y-84375666D03*
D12*
X271462556Y-86915666D03*
D11*
X274002556Y-81835666D03*
D10*
X276542556Y-86915666D03*
%TD*%
%TO.C,SW19*%
X147320056Y-67865666D03*
D11*
X148590056Y-65325666D03*
D12*
X152400056Y-67865666D03*
D11*
X154940056Y-62785666D03*
D10*
X157480056Y-67865666D03*
%TD*%
%TO.C,SW36*%
X209232556Y-86915666D03*
D11*
X210502556Y-84375666D03*
D12*
X214312556Y-86915666D03*
D11*
X216852556Y-81835666D03*
D10*
X219392556Y-86915666D03*
%TD*%
%TO.C,SW53*%
X294957752Y-105965714D03*
D11*
X296227752Y-103425714D03*
D12*
X300037752Y-105965714D03*
D11*
X302577752Y-100885714D03*
D10*
X305117752Y-105965714D03*
%TD*%
D15*
%TO.C,REF\u002A\u002A*%
X248026956Y-124817616D03*
%TD*%
%TO.C,REF\u002A\u002A*%
X185727556Y-86616916D03*
%TD*%
D10*
%TO.C,SW21*%
X185420056Y-67865666D03*
D11*
X186690056Y-65325666D03*
D12*
X190500056Y-67865666D03*
D11*
X193040056Y-62785666D03*
D10*
X195580056Y-67865666D03*
%TD*%
%TO.C,SW11*%
X252095056Y-48815666D03*
D11*
X253365056Y-46275666D03*
D12*
X257175056Y-48815666D03*
D11*
X259715056Y-43735666D03*
D10*
X262255056Y-48815666D03*
%TD*%
%TO.C,SW50*%
X233045200Y-105965714D03*
D11*
X234315200Y-103425714D03*
D12*
X238125200Y-105965714D03*
D11*
X240665200Y-100885714D03*
D10*
X243205200Y-105965714D03*
%TD*%
D16*
%TO.C,REF\u002A\u002A*%
X341068756Y-96118116D03*
%TD*%
D10*
%TO.C,SW20*%
X166370056Y-67865666D03*
D11*
X167640056Y-65325666D03*
D12*
X171450056Y-67865666D03*
D11*
X173990056Y-62785666D03*
D10*
X176530056Y-67865666D03*
%TD*%
D14*
%TO.C,SW14*%
X311950056Y-41815666D03*
D13*
X311950056Y-57055666D03*
D10*
X318770056Y-48815666D03*
D11*
X320040056Y-46275666D03*
D12*
X323850056Y-48815666D03*
D11*
X326390056Y-43735666D03*
D10*
X328930056Y-48815666D03*
D14*
X335750056Y-41815666D03*
D13*
X335750056Y-57055666D03*
%TD*%
D10*
%TO.C,SW47*%
X175895152Y-105965666D03*
D11*
X177165152Y-103425666D03*
D12*
X180975152Y-105965666D03*
D11*
X183515152Y-100885666D03*
D10*
X186055152Y-105965666D03*
%TD*%
%TO.C,SW60*%
X204470176Y-125015730D03*
D11*
X205740176Y-122475730D03*
D12*
X209550176Y-125015730D03*
D11*
X212090176Y-119935730D03*
D10*
X214630176Y-125015730D03*
%TD*%
D13*
%TO.C,SW41*%
X309568806Y-78675666D03*
D14*
X309568806Y-93915666D03*
D10*
X316388806Y-86915666D03*
D11*
X317658806Y-84375666D03*
D12*
X321468806Y-86915666D03*
D11*
X324008806Y-81835666D03*
D10*
X326548806Y-86915666D03*
D13*
X333368806Y-78675666D03*
D14*
X333368806Y-93915666D03*
%TD*%
D10*
%TO.C,SW25*%
X261620056Y-67865666D03*
D11*
X262890056Y-65325666D03*
D12*
X266700056Y-67865666D03*
D11*
X269240056Y-62785666D03*
D10*
X271780056Y-67865666D03*
%TD*%
%TO.C,SW40*%
X285432556Y-86915666D03*
D11*
X286702556Y-84375666D03*
D12*
X290512556Y-86915666D03*
D11*
X293052556Y-81835666D03*
D10*
X295592556Y-86915666D03*
%TD*%
%TO.C,SW46*%
X156845136Y-105965714D03*
D11*
X158115136Y-103425714D03*
D12*
X161925136Y-105965714D03*
D11*
X164465136Y-100885714D03*
D10*
X167005136Y-105965714D03*
%TD*%
%TO.C,SW44*%
X118745104Y-105965714D03*
D11*
X120015104Y-103425714D03*
D12*
X123825104Y-105965714D03*
D11*
X126365104Y-100885714D03*
D10*
X128905104Y-105965714D03*
%TD*%
%TO.C,SW13*%
X290195056Y-48815666D03*
D11*
X291465056Y-46275666D03*
D12*
X295275056Y-48815666D03*
D11*
X297815056Y-43735666D03*
D10*
X300355056Y-48815666D03*
%TD*%
%TO.C,SW30*%
X94932556Y-86915698D03*
D11*
X96202556Y-84375698D03*
D12*
X100012556Y-86915698D03*
D11*
X102552556Y-81835698D03*
D10*
X105092556Y-86915698D03*
%TD*%
%TO.C,SW17*%
X109220056Y-67865666D03*
D11*
X110490056Y-65325666D03*
D12*
X114300056Y-67865666D03*
D11*
X116840056Y-62785666D03*
D10*
X119380056Y-67865666D03*
%TD*%
%TO.C,SW54*%
X321151306Y-105965666D03*
D11*
X322421306Y-103425666D03*
D12*
X326231306Y-105965666D03*
D11*
X328771306Y-100885666D03*
D10*
X331311306Y-105965666D03*
%TD*%
%TO.C,SW2*%
X90805056Y-48815666D03*
D11*
X89535056Y-51355666D03*
D12*
X85725056Y-48815666D03*
D11*
X83185056Y-53895666D03*
D10*
X80645056Y-48815666D03*
%TD*%
%TO.C,SW29*%
X68738806Y-86915698D03*
D11*
X70008806Y-84375698D03*
D12*
X73818806Y-86915698D03*
D11*
X76358806Y-81835698D03*
D10*
X78898806Y-86915698D03*
%TD*%
%TO.C,SW65*%
X318770272Y-125015666D03*
D11*
X320040272Y-122475666D03*
D12*
X323850272Y-125015666D03*
D11*
X326390272Y-119935666D03*
D10*
X328930272Y-125015666D03*
%TD*%
%TO.C,SW52*%
X271145232Y-105965714D03*
D11*
X272415232Y-103425714D03*
D12*
X276225232Y-105965714D03*
D11*
X278765232Y-100885714D03*
D10*
X281305232Y-105965714D03*
%TD*%
%TO.C,SW10*%
X233045056Y-48815666D03*
D11*
X234315056Y-46275666D03*
D12*
X238125056Y-48815666D03*
D11*
X240665056Y-43735666D03*
D10*
X243205056Y-48815666D03*
%TD*%
%TO.C,SW9*%
X213995056Y-48815666D03*
D11*
X215265056Y-46275666D03*
D12*
X219075056Y-48815666D03*
D11*
X221615056Y-43735666D03*
D10*
X224155056Y-48815666D03*
%TD*%
%TO.C,SW55*%
X63976306Y-125015666D03*
D11*
X65246306Y-122475666D03*
D12*
X69056306Y-125015666D03*
D11*
X71596306Y-119935666D03*
D10*
X74136306Y-125015666D03*
%TD*%
D14*
%TO.C,SW42*%
X64300064Y-98965714D03*
D13*
X64300064Y-114205714D03*
D10*
X71120064Y-105965714D03*
D11*
X72390064Y-103425714D03*
D12*
X76200064Y-105965714D03*
D11*
X78740064Y-100885714D03*
D10*
X81280064Y-105965714D03*
D14*
X88100064Y-98965714D03*
D13*
X88100064Y-114205714D03*
%TD*%
D10*
%TO.C,SW35*%
X200342556Y-86915666D03*
D11*
X199072556Y-89455666D03*
D12*
X195262556Y-86915666D03*
D11*
X192722556Y-91995666D03*
D10*
X190182556Y-86915666D03*
%TD*%
%TO.C,SW43*%
X99695088Y-105965714D03*
D11*
X100965088Y-103425714D03*
D12*
X104775088Y-105965714D03*
D11*
X107315088Y-100885714D03*
D10*
X109855088Y-105965714D03*
%TD*%
%TO.C,SW5*%
X137795056Y-48815666D03*
D11*
X139065056Y-46275666D03*
D12*
X142875056Y-48815666D03*
D11*
X145415056Y-43735666D03*
D10*
X147955056Y-48815666D03*
%TD*%
D17*
%TO.C,SW_tact1*%
X333697158Y-122565666D03*
D18*
X336947158Y-122065666D03*
D17*
X340197158Y-122565666D03*
X333697158Y-127065666D03*
D18*
X336947158Y-127565666D03*
D17*
X340197158Y-127065666D03*
%TD*%
D10*
%TO.C,SW26*%
X280670056Y-67865666D03*
D11*
X281940056Y-65325666D03*
D12*
X285750056Y-67865666D03*
D11*
X288290056Y-62785666D03*
D10*
X290830056Y-67865666D03*
%TD*%
%TO.C,SW64*%
X299720256Y-125015730D03*
D11*
X300990256Y-122475730D03*
D12*
X304800256Y-125015730D03*
D11*
X307340256Y-119935730D03*
D10*
X309880256Y-125015730D03*
%TD*%
D16*
%TO.C,REF\u002A\u002A*%
X58986456Y-96118116D03*
%TD*%
D10*
%TO.C,SW58*%
X137795120Y-125015730D03*
D11*
X139065120Y-122475730D03*
D12*
X142875120Y-125015730D03*
D11*
X145415120Y-119935730D03*
D10*
X147955120Y-125015730D03*
%TD*%
%TO.C,SW27*%
X299720056Y-67865666D03*
D11*
X300990056Y-65325666D03*
D12*
X304800056Y-67865666D03*
D11*
X307340056Y-62785666D03*
D10*
X309880056Y-67865666D03*
%TD*%
%TO.C,SW12*%
X271145056Y-48815666D03*
D11*
X272415056Y-46275666D03*
D12*
X276225056Y-48815666D03*
D11*
X278765056Y-43735666D03*
D10*
X281305056Y-48815666D03*
%TD*%
D15*
%TO.C,REF\u002A\u002A*%
X82726856Y-67517716D03*
%TD*%
D10*
%TO.C,SW22*%
X204470056Y-67865666D03*
D11*
X205740056Y-65325666D03*
D12*
X209550056Y-67865666D03*
D11*
X212090056Y-62785666D03*
D10*
X214630056Y-67865666D03*
%TD*%
%TO.C,SW37*%
X228282556Y-86915666D03*
D11*
X229552556Y-84375666D03*
D12*
X233362556Y-86915666D03*
D11*
X235902556Y-81835666D03*
D10*
X238442556Y-86915666D03*
%TD*%
%TO.C,SW48*%
X194945168Y-105965666D03*
D11*
X196215168Y-103425666D03*
D12*
X200025168Y-105965666D03*
D11*
X202565168Y-100885666D03*
D10*
X205105168Y-105965666D03*
%TD*%
%TO.C,SW3*%
X99695056Y-48815666D03*
D11*
X100965056Y-46275666D03*
D12*
X104775056Y-48815666D03*
D11*
X107315056Y-43735666D03*
D10*
X109855056Y-48815666D03*
%TD*%
%TO.C,SW7*%
X175895056Y-48815666D03*
D11*
X177165056Y-46275666D03*
D12*
X180975056Y-48815666D03*
D11*
X183515056Y-43735666D03*
D10*
X186055056Y-48815666D03*
%TD*%
%TO.C,SW4*%
X118745056Y-48815666D03*
D11*
X120015056Y-46275666D03*
D12*
X123825056Y-48815666D03*
D11*
X126365056Y-43735666D03*
D10*
X128905056Y-48815666D03*
%TD*%
D15*
%TO.C,REF\u002A\u002A*%
X317577456Y-67517716D03*
%TD*%
D10*
%TO.C,SW8*%
X194945056Y-48815666D03*
D11*
X196215056Y-46275666D03*
D12*
X200025056Y-48815666D03*
D11*
X202565056Y-43735666D03*
D10*
X205105056Y-48815666D03*
%TD*%
%TO.C,SW56*%
X87788806Y-125015666D03*
D11*
X89058806Y-122475666D03*
D12*
X92868806Y-125015666D03*
D11*
X95408806Y-119935666D03*
D10*
X97948806Y-125015666D03*
%TD*%
%TO.C,SW34*%
X171132556Y-86915666D03*
D11*
X172402556Y-84375666D03*
D12*
X176212556Y-86915666D03*
D11*
X178752556Y-81835666D03*
D10*
X181292556Y-86915666D03*
%TD*%
%TO.C,SW15*%
X66357556Y-67865666D03*
D11*
X67627556Y-65325666D03*
D12*
X71437556Y-67865666D03*
D11*
X73977556Y-62785666D03*
D10*
X76517556Y-67865666D03*
%TD*%
%TO.C,SW33*%
X152082556Y-86915666D03*
D11*
X153352556Y-84375666D03*
D12*
X157162556Y-86915666D03*
D11*
X159702556Y-81835666D03*
D10*
X162242556Y-86915666D03*
%TD*%
%TO.C,SW38*%
X247332556Y-86915666D03*
D11*
X248602556Y-84375666D03*
D12*
X252412556Y-86915666D03*
D11*
X254952556Y-81835666D03*
D10*
X257492556Y-86915666D03*
%TD*%
%TO.C,SW28*%
X333692556Y-67865666D03*
D11*
X332422556Y-70405666D03*
D12*
X328612556Y-67865666D03*
D11*
X326072556Y-72945666D03*
D10*
X323532556Y-67865666D03*
%TD*%
D19*
%TO.C,J1*%
X72837556Y-44815666D03*
X78617556Y-44815666D03*
D20*
X71407556Y-41165666D03*
D21*
X71407556Y-45345666D03*
D20*
X80047556Y-41165666D03*
D21*
X80047556Y-45345666D03*
%TD*%
M02*
